<svg width="169" height="169" viewBox="0 0 169 169" fill="none" xmlns="http://www.w3.org/2000/svg">
<g clip-path="url(#clip0_384_179)">
<path d="M135.03 101.38H78.28V168.76H135.03V101.38Z" fill="#1D1D1B"/>
<path d="M168.75 78.2803H101.39V135.03H168.75V78.2803Z" fill="#EC6247"/>
<path d="M90.4699 0H33.6699V67.37H90.4699V0Z" fill="#F4C2C9"/>
<path d="M67.38 33.75H0V90.47H67.38V33.75Z" fill="#4DB376"/>
<path d="M135.03 168.76C144.31 168.76 152.72 164.99 158.81 158.9C165 152.81 168.77 144.4 168.77 135.12V135.02C168.67 116.36 153.59 101.38 135.03 101.38H101.39V135.02C101.39 153.58 116.37 168.66 135.03 168.75" fill="#F4C2C9"/>
<path d="M33.74 67.38H67.38V33.74C67.38 24.46 63.61 15.96 57.52 9.86C51.43 3.77 43.02 0 33.74 0H33.64C15.09 0 0 15.08 0 33.74C0 43.02 3.78 51.43 9.87 57.52C15.96 63.61 24.47 67.38 33.75 67.38" fill="#1D1D1B"/>
<path d="M67.35 135.09C67.35 153.67 52.25 168.77 33.67 168.77C15.09 168.77 0 153.66 0 135.09C0 116.52 15.1 101.29 33.67 101.29C52.24 101.29 67.35 116.39 67.35 135.09Z" fill="#EC6247"/>
<path d="M168.77 33.67C168.77 52.27 153.67 67.37 135.07 67.37C116.47 67.37 101.27 52.27 101.27 33.67C101.27 15.07 116.36 0 135.07 0C153.78 0 168.77 15.1 168.77 33.67Z" fill="#4DB376"/>
</g>
<defs>
<clipPath id="clip0_384_179">
<rect width="168.77" height="168.77" fill="white"/>
</clipPath>
</defs>
</svg>
