<svg width="797" height="209" viewBox="0 0 797 209" fill="none" xmlns="http://www.w3.org/2000/svg">
<g clip-path="url(#clip0_384_189)">
<path d="M282.13 85.9101C288.02 89.4601 294.7 91.2301 302.18 91.2301C306.95 91.2301 311.35 90.5201 315.4 89.1101C319.45 87.7001 323.04 85.6701 326.18 83.0401C329.32 80.4101 331.89 77.3201 333.91 73.7701C335.92 70.2201 337.26 66.3201 337.92 62.0601H324.56C324.02 64.7701 323.06 67.1901 321.68 69.3201C320.3 71.4501 318.62 73.2401 316.62 74.7001C314.62 76.1501 312.42 77.2601 310 78.0101C307.58 78.7701 305.01 79.1401 302.3 79.1401C297.38 79.1401 292.96 77.9101 289.05 75.4501C285.14 72.9901 282.04 69.3501 279.75 64.5301C277.46 59.7101 276.32 53.8101 276.32 46.8401C276.32 39.8701 277.44 33.9701 279.69 29.1501C281.94 24.3301 285.03 20.6701 288.96 18.1701C292.89 15.6701 297.34 14.4201 302.3 14.4201C305.01 14.4201 307.59 14.7901 310.03 15.5201C312.47 16.2601 314.68 17.3601 316.65 18.8301C318.63 20.3001 320.3 22.0901 321.68 24.2101C323.05 26.3201 324.01 28.7501 324.56 31.5001H337.87C337.13 26.9301 335.73 22.8401 333.66 19.2401C331.59 15.6401 328.97 12.5801 325.82 10.0601C322.66 7.54008 319.08 5.63008 315.07 4.31008C311.06 2.99008 306.77 2.33008 302.2 2.33008C294.72 2.33008 288.04 4.11008 282.15 7.68008C276.26 11.2401 271.63 16.3501 268.26 22.9901C264.89 29.6301 263.2 37.5801 263.2 46.8401C263.2 56.1001 264.88 63.9901 268.26 70.6401C271.63 77.2801 276.26 82.3801 282.15 85.9201" fill="#1D1D1B"/>
<path d="M363.49 25.0996H350.71V90.0596H363.49V25.0996Z" fill="#1D1D1B"/>
<path d="M357.16 15.17C359.37 15.17 361.26 14.44 362.85 12.96C364.44 11.49 365.23 9.71 365.23 7.61C365.23 5.51 364.44 3.68 362.85 2.21C361.27 0.74 359.37 0 357.16 0C354.95 0 353.06 0.74 351.49 2.21C349.92 3.68 349.14 5.48 349.14 7.61C349.14 9.74 349.92 11.44 351.49 12.93C353.06 14.42 354.95 15.17 357.16 15.17Z" fill="#1D1D1B"/>
<path d="M380.94 73.5599C380.94 79.0599 382.57 83.3299 385.82 86.3699C389.07 89.4099 393.64 90.9299 399.53 90.9299C401.04 90.9299 402.57 90.8199 404.12 90.6099C405.67 90.3999 407.12 90.0599 408.48 89.5899L406.21 79.3599C405.44 79.5099 404.51 79.6699 403.42 79.8199C402.33 79.9699 401.46 80.0499 400.81 80.0499C398.29 80.0499 396.48 79.4399 395.38 78.2199C394.28 76.9999 393.72 75.0899 393.72 72.4999V35.4899H406.68V25.0899H393.72V9.62988H380.94V25.0899H371.47V35.4899H380.94V73.5499V73.5599Z" fill="#1D1D1B"/>
<path d="M437.44 95.1196C436.66 97.9096 435.63 99.9896 434.33 101.37C433.03 102.75 431.5 103.57 429.74 103.84C427.98 104.11 425.99 103.96 423.78 103.38L422.33 103.03L419.19 113.43C419.97 113.78 421.15 114.1 422.74 114.39C424.33 114.68 426.13 114.83 428.14 114.83C431.63 114.83 434.69 114.24 437.32 113.06C439.95 111.88 442.23 110.13 444.15 107.8C446.07 105.48 447.69 102.57 449 99.0796L477.24 25.1096H463.53L450.46 62.0096C449.03 66.0796 447.8 70.1496 446.77 74.2396C446.37 75.8296 445.96 77.4096 445.54 78.9896C445.15 77.4196 444.75 75.8396 444.38 74.2596C443.43 70.1896 442.24 66.1096 440.81 61.9996L427.97 25.0996H414.14L438.83 90.3496L437.44 95.1096V95.1196Z" fill="#1D1D1B"/>
<path d="M324.34 182.01C322.07 186.83 318.99 190.47 315.1 192.93C311.21 195.39 306.8 196.62 301.88 196.62C296.96 196.62 292.48 195.38 288.57 192.9C284.66 190.42 281.57 186.78 279.3 181.97C277.03 177.17 275.9 171.28 275.9 164.31C275.9 157.34 277.03 151.38 279.3 146.56C281.57 141.74 284.66 138.09 288.57 135.61C292.48 133.13 296.92 131.89 301.88 131.89C306.84 131.89 311.21 133.12 315.1 135.58C318.99 138.04 322.07 141.68 324.34 146.5C326.61 151.32 327.74 157.26 327.74 164.31C327.74 171.36 326.61 177.18 324.34 182M321.9 125.14C316.03 121.58 309.36 119.79 301.88 119.79C294.4 119.79 287.71 121.57 281.8 125.14C275.89 128.7 271.24 133.81 267.85 140.45C264.46 147.1 262.77 155.05 262.77 164.3C262.77 173.55 264.46 181.45 267.85 188.09C271.24 194.73 275.89 199.83 281.8 203.37C287.71 206.92 294.4 208.69 301.88 208.69C309.36 208.69 316.03 206.92 321.9 203.37C327.77 199.83 332.4 194.73 335.79 188.09C339.18 181.45 340.87 173.52 340.87 164.3C340.87 155.08 339.18 147.09 335.79 140.45C332.4 133.81 327.77 128.7 321.9 125.14Z" fill="#1D1D1B"/>
<path d="M383.77 141.65C379.97 141.65 376.58 142.66 373.6 144.67C370.62 146.69 368.53 149.47 367.32 153.04H366.62V142.58H354.24V207.54H367.02V168.09C367.02 165.22 367.68 162.69 369 160.51C370.32 158.32 372.16 156.61 374.52 155.37C376.88 154.13 379.54 153.51 382.48 153.51C383.84 153.51 385.17 153.59 386.49 153.74C387.81 153.9 388.7 154.05 389.16 154.2V142C388.46 141.88 387.59 141.8 386.55 141.74C385.5 141.68 384.57 141.65 383.76 141.65" fill="#1D1D1B"/>
<path d="M436.89 191.13C436 192.58 434.89 193.82 433.58 194.85C432.26 195.88 430.77 196.67 429.11 197.23C427.44 197.79 425.6 198.07 423.59 198.07C419.68 198.07 416.43 197.05 413.86 194.99C411.28 192.94 409.37 190.2 408.11 186.77C406.85 183.34 406.22 179.55 406.22 175.41C406.22 171.27 406.85 167.41 408.11 163.96C409.37 160.51 411.29 157.75 413.86 155.68C416.43 153.61 419.68 152.57 423.59 152.57C425.56 152.57 427.37 152.84 429.02 153.39C430.67 153.93 432.12 154.71 433.38 155.71C434.64 156.72 435.71 157.91 436.6 159.28C437.49 160.66 438.15 162.18 438.57 163.84L450.72 160.93C449.91 157.95 448.68 155.27 447.03 152.88C445.38 150.5 443.37 148.48 440.99 146.84C438.61 145.2 435.94 143.94 433 143.06C430.06 142.19 426.9 141.75 423.53 141.75C417.41 141.75 412.08 143.14 407.55 145.93C403.02 148.72 399.49 152.64 396.98 157.7C394.46 162.76 393.2 168.65 393.2 175.39C393.2 182.13 394.46 187.9 396.98 192.94C399.5 197.98 403.02 201.89 407.55 204.68C412.08 207.47 417.41 208.86 423.53 208.86C426.94 208.86 430.13 208.41 433.12 207.52C436.1 206.63 438.79 205.33 441.17 203.63C443.55 201.93 445.58 199.86 447.24 197.44C448.91 195.02 450.13 192.28 450.9 189.22L438.81 186.31C438.42 188.05 437.78 189.65 436.89 191.1" fill="#1D1D1B"/>
<path d="M507.02 144.56C503.71 142.7 499.84 141.77 495.43 141.77C490.32 141.77 485.96 143.11 482.35 145.78C479.7 147.75 477.51 150.57 475.78 154.24V120.97H463.11V207.55H475.89V169.08C475.89 165.63 476.55 162.71 477.87 160.3C479.19 157.9 480.99 156.07 483.27 154.81C485.56 153.55 488.13 152.92 491 152.92C495.26 152.92 498.61 154.24 501.05 156.87C503.49 159.5 504.71 163.17 504.71 167.85V207.54H517.49V166.28C517.49 160.9 516.57 156.39 514.73 152.77C512.89 149.15 510.31 146.41 507 144.55" fill="#1D1D1B"/>
<path d="M544.74 161.84C546.08 158.99 548.02 156.7 550.58 154.95C553.14 153.2 556.22 152.34 559.82 152.34C563.42 152.34 566.49 153.19 568.91 154.9C571.33 156.6 573.16 158.98 574.4 162.02C575.3 164.24 575.87 166.71 576.12 169.43H542.8C542.99 166.73 543.63 164.2 544.74 161.85M579.87 149.33C577.12 146.74 574.02 144.83 570.57 143.61C567.12 142.39 563.54 141.78 559.82 141.78C553.78 141.78 548.51 143.2 544.01 146.05C539.52 148.9 536.04 152.86 533.58 157.93C531.12 163.01 529.89 168.87 529.89 175.54C529.89 182.21 531.14 188.15 533.64 193.15C536.14 198.15 539.71 202.02 544.36 204.77C549.01 207.52 554.53 208.89 560.92 208.89C565.57 208.89 569.72 208.18 573.38 206.77C577.04 205.36 580.1 203.37 582.56 200.81C585.02 198.25 586.77 195.31 587.82 191.98L575.79 189.13C575.05 191.14 573.98 192.84 572.57 194.21C571.16 195.59 569.48 196.61 567.54 197.29C565.6 197.97 563.43 198.31 561.03 198.31C557.39 198.31 554.19 197.53 551.44 195.96C548.69 194.39 546.55 192.07 545.02 188.99C543.64 186.21 542.89 182.87 542.75 178.97H588.8V174.44C588.8 168.55 588 163.54 586.39 159.42C584.78 155.3 582.6 151.93 579.85 149.34" fill="#1D1D1B"/>
<path d="M633.4 171.11L622.94 168.79C619.38 167.98 616.81 166.9 615.24 165.57C613.67 164.24 612.89 162.48 612.89 160.31C612.89 157.87 614.07 155.86 616.43 154.27C618.79 152.68 621.74 151.89 625.26 151.89C629.09 151.89 632.02 152.75 634.03 154.47C636.05 156.19 637.46 158.2 638.27 160.48L649.72 157.98C648.83 154.77 647.35 151.94 645.28 149.5C643.21 147.06 640.5 145.16 637.17 143.81C633.84 142.45 629.83 141.78 625.14 141.78C620.22 141.78 615.88 142.58 612.12 144.19C608.36 145.8 605.4 148.05 603.23 150.96C601.06 153.87 599.98 157.26 599.98 161.13C599.98 165.78 601.45 169.59 604.4 172.58C607.34 175.56 611.84 177.73 617.88 179.09L628.8 181.59C631.9 182.25 634.19 183.26 635.69 184.61C637.18 185.97 637.93 187.69 637.93 189.78C637.93 192.18 636.71 194.24 634.27 195.97C631.83 197.69 628.55 198.56 624.45 198.56C620.69 198.56 617.59 197.75 615.15 196.12C612.71 194.49 611.04 191.99 610.15 188.62L598.12 191.12C598.89 194.95 600.45 198.2 602.8 200.85C605.14 203.5 608.15 205.51 611.81 206.86C615.47 208.22 619.64 208.89 624.33 208.89C629.64 208.89 634.29 208.03 638.3 206.3C642.31 204.58 645.45 202.19 647.71 199.15C649.98 196.11 651.11 192.61 651.11 188.66C651.11 184.13 649.66 180.41 646.75 177.5C643.85 174.6 639.39 172.47 633.39 171.11" fill="#1D1D1B"/>
<path d="M687.86 197.32C686.77 197.48 685.9 197.55 685.24 197.55C682.72 197.55 680.91 196.94 679.81 195.72C678.71 194.5 678.15 192.59 678.15 190V152.99H691.11V142.59H678.15V127.13H665.37V142.59H655.9V152.99H665.37V191.05C665.37 196.55 667 200.82 670.25 203.86C673.5 206.9 678.08 208.42 683.96 208.42C685.47 208.42 687 208.31 688.55 208.1C690.1 207.89 691.55 207.55 692.91 207.08L690.64 196.85C689.86 197.01 688.93 197.16 687.85 197.31" fill="#1D1D1B"/>
<path d="M731.58 141.65C727.78 141.65 724.39 142.66 721.41 144.67C718.43 146.69 716.34 149.47 715.13 153.04H714.43V142.58H702.05V207.54H714.83V168.09C714.83 165.22 715.49 162.69 716.81 160.51C718.13 158.32 719.97 156.61 722.33 155.37C724.69 154.13 727.35 153.51 730.29 153.51C731.65 153.51 732.98 153.59 734.3 153.74C735.62 153.9 736.51 154.05 736.97 154.2V142C736.27 141.88 735.4 141.8 734.36 141.74C733.31 141.68 732.38 141.65 731.57 141.65" fill="#1D1D1B"/>
<path d="M783.43 184.13C783.43 186.65 782.77 189.03 781.45 191.28C780.13 193.53 778.23 195.33 775.75 196.68C773.27 198.04 770.29 198.71 766.8 198.71C764.4 198.71 762.29 198.36 760.47 197.66C758.65 196.96 757.21 195.92 756.14 194.52C755.07 193.12 754.54 191.4 754.54 189.35C754.54 187.1 755.13 185.3 756.31 183.95C757.49 182.59 759.08 181.55 761.07 180.81C763.06 180.07 765.26 179.55 767.66 179.24C768.67 179.12 769.95 178.97 771.5 178.78C773.05 178.59 774.66 178.34 776.32 178.05C777.99 177.76 779.47 177.43 780.76 177.06C782.06 176.69 782.94 176.27 783.41 175.81V184.12L783.43 184.13ZM793.71 152.93C792.08 149.99 789.97 147.7 787.38 146.07C784.78 144.44 782.01 143.32 779.07 142.7C776.13 142.08 773.34 141.77 770.7 141.77C766.9 141.77 763.22 142.31 759.66 143.4C756.1 144.49 752.94 146.21 750.19 148.57C747.44 150.93 745.33 154.05 743.86 157.92L755.89 161.06C756.51 159.59 757.45 158.17 758.71 156.82C759.97 155.46 761.62 154.35 763.65 153.48C765.68 152.61 768.11 152.17 770.94 152.17C773.77 152.17 775.99 152.62 777.83 153.53C779.67 154.44 781.05 155.73 781.99 157.39C782.92 159.06 783.38 161.11 783.38 163.55V163.9C783.38 165.41 782.81 166.51 781.67 167.18C780.53 167.86 778.75 168.34 776.35 168.63C773.95 168.92 770.83 169.3 767 169.76C763.94 170.11 760.93 170.63 757.96 171.33C755 172.03 752.3 173.07 749.88 174.47C747.46 175.86 745.54 177.74 744.13 180.11C742.72 182.47 742.01 185.5 742.01 189.18C742.01 193.44 742.98 197.04 744.92 199.99C746.86 202.94 749.49 205.17 752.82 206.7C756.15 208.23 759.87 209 763.98 209C767.5 209 770.53 208.49 773.07 207.46C775.61 206.43 777.71 205.13 779.38 203.54C781.05 201.95 782.31 200.33 783.16 198.66H783.8V207.55H796.18V164.43C796.18 159.7 795.37 155.87 793.74 152.92" fill="#1D1D1B"/>
<path d="M125.57 167.23V125.57H96.95V209.01H166.95C143.98 208.74 125.57 190.13 125.57 167.24" fill="#1D1D1B"/>
<path d="M167.23 125.57C190.08 125.57 208.66 143.91 209 166.82V96.9502H125.57V125.56H167.23V125.57Z" fill="#EC6247"/>
<path d="M125.57 125.56V125.57H167.23V125.56H125.57Z" fill="#EC6247"/>
<path d="M208.99 166.82C208.65 143.91 190.07 125.57 167.22 125.57H125.56V167.23C125.56 190.12 143.97 208.73 166.94 209C167.03 209 167.13 209 167.22 209C178.71 209 189.13 204.33 196.67 196.79C204.33 189.25 209 178.83 209 167.34V167.22C209 167.08 208.99 166.95 208.99 166.81" fill="#F4C2C9"/>
<path d="M71.2399 12.21C78.7799 19.75 83.4499 30.29 83.4499 41.78V83.43H112.05V0H41.7H41.7799C53.2699 0 63.69 4.67 71.23 12.21" fill="#F4C2C9"/>
<path d="M12.22 71.23C4.68 63.69 0.01 53.28 0 41.79V112.04H83.44V83.44H41.79C30.3 83.44 19.76 78.77 12.22 71.23Z" fill="#4DB376"/>
<path d="M83.45 41.78C83.45 30.29 78.78 19.75 71.24 12.21C63.7 4.67 53.28 0 41.79 0H41.67C18.68 0 0 18.68 0 41.78C0 53.28 4.67 63.69 12.21 71.23C19.75 78.77 30.29 83.44 41.78 83.44H83.43V41.78H83.45Z" fill="#1D1D1B"/>
<path d="M83.41 167.3C83.41 190.3 64.71 209 41.7 209C18.69 209 0 190.31 0 167.3C0 144.29 18.7 125.44 41.7 125.44C64.7 125.44 83.41 144.14 83.41 167.3Z" fill="#EC6247"/>
<path d="M209.01 41.71C209.01 64.75 190.31 83.45 167.27 83.45C144.23 83.45 125.41 64.75 125.41 41.71C125.41 18.67 144.11 0 167.27 0C190.43 0 209.01 18.7 209.01 41.7" fill="#4DB376"/>
</g>
<defs>
<clipPath id="clip0_384_189">
<rect width="796.15" height="209.01" fill="white"/>
</clipPath>
</defs>
</svg>
