<svg width="474" height="81" viewBox="0 0 474 81" fill="none" xmlns="http://www.w3.org/2000/svg">
<g clip-path="url(#clip0_385_257)">
<path d="M37.8399 79.0995H57.9399C51.8699 76.6895 47.5399 70.7595 47.5299 63.8895V48.6595H37.8399V79.0995ZM63.7599 80.2395H36.6899V47.5195H48.6699V63.8595C48.6699 72.1595 55.4399 78.9995 63.7699 79.0995V80.2395H63.7599Z" fill="white"/>
<path d="M64.44 47.5404C71.07 47.7704 76.76 52.0304 79.1 57.9404V37.8404H48.67V47.5204H64.44V47.5404ZM79.1 63.7204C78.98 55.4204 72.14 48.6704 63.86 48.6704H47.52V36.6904H80.24V63.7104H79.1V63.7204Z" fill="white"/>
<path d="M48.11 63.8598H48.1V63.8698L47.53 63.8598L48.08 63.8698L47.54 63.9098L48.11 63.8698H48.68L48.67 63.7998L48.11 63.8598Z" fill="white"/>
<path d="M63.87 48.6695H47.53V47.5195H48.1H64.44V48.6695H63.87Z" fill="white"/>
<path d="M48.67 63.8295V63.8695C48.67 72.1695 55.44 79.0095 63.77 79.1095H63.87C67.92 79.1095 71.73 77.5295 74.61 74.6595C77.51 71.7995 79.11 67.9895 79.11 63.9195V63.7295C78.98 55.4295 72.15 48.6795 63.87 48.6795H48.67V63.8395V63.8295ZM63.87 80.2495H63.76C54.82 80.1395 47.55 72.8095 47.53 63.8995V47.5195H63.87C68.2 47.5195 72.29 49.1995 75.37 52.2395C78.45 55.2795 80.18 59.3495 80.25 63.6995V63.7495C80.25 63.7495 80.25 63.8195 80.25 63.8595V63.9095C80.25 68.2895 78.53 72.3895 75.41 75.4595C72.32 78.5395 68.22 80.2495 63.86 80.2495" fill="white"/>
<path d="M32.7301 31.58H42.4101V1.14H22.4101C24.4601 1.95 26.3401 3.18 27.9401 4.78C30.9801 7.82 32.7301 12.05 32.7301 16.38V31.57V31.58ZM43.5501 32.72H31.5801V16.38C31.5801 12.36 29.9601 8.42 27.1301 5.59C24.2601 2.72 20.4401 1.14 16.3901 1.14H16.3601V0H43.5601V32.72H43.5501Z" fill="white"/>
<path d="M1.15 42.4103H31.59V32.7303H16.4C12.07 32.7303 7.85 30.9803 4.8 27.9403C3.19 26.3403 1.96 24.4503 1.15 22.4103V42.4203V42.4103ZM32.73 43.5503H0V15.8203H1.14V16.3903C1.14 20.4403 2.73 24.2603 5.6 27.1303C8.43 29.9603 12.36 31.5903 16.39 31.5903H32.73V43.5603V43.5503Z" fill="white"/>
<path d="M32.7301 31.5801H31.5901V32.7201H32.7301V31.5801Z" fill="white"/>
<path d="M16.35 1.14C7.97 1.14 1.15 7.98 1.15 16.38C1.15 20.44 2.73 24.25 5.6 27.12C8.43 29.95 12.36 31.58 16.39 31.58H31.58V16.38C31.58 12.36 29.96 8.42 27.13 5.59C24.26 2.72 20.44 1.14 16.39 1.14H16.34H16.35ZM32.16 32.72H16.4C12.07 32.72 7.85 30.97 4.8 27.93C1.71 24.85 0 20.75 0 16.39C0 7.35 7.34 0 16.35 0H16.4C20.76 0 24.86 1.7 27.95 4.79C30.99 7.83 32.74 12.06 32.74 16.39V32.73H32.17L32.16 32.72Z" fill="white"/>
<path d="M16.36 48.6205C7.97 48.6205 1.15 55.4705 1.15 63.8905C1.15 72.3105 7.97 79.1005 16.36 79.1005C24.75 79.1005 31.57 72.2705 31.57 63.8905C31.57 55.5105 24.75 48.6205 16.36 48.6205ZM16.36 80.2505C7.34 80.2505 0 72.9105 0 63.8905C0 54.8705 7.34 47.4805 16.36 47.4805C25.38 47.4805 32.72 54.8405 32.72 63.8905C32.72 72.9405 25.38 80.2505 16.36 80.2505Z" fill="white"/>
<path d="M63.89 1.14C55.47 1.14 48.62 7.97 48.62 16.35C48.62 24.73 55.47 31.57 63.89 31.57C72.31 31.57 79.11 24.74 79.11 16.35C79.11 7.96 72.28 1.14 63.89 1.14ZM63.89 32.72C54.84 32.72 47.47 25.38 47.47 16.35C47.47 7.32 54.83 0 63.89 0C72.95 0 80.26 7.34 80.26 16.36C80.26 25.38 72.92 32.73 63.89 32.73" fill="white"/>
<path d="M102.23 62.0497V70.6997C102.23 75.4697 106.11 79.3497 110.88 79.3497H464.35C469.12 79.3497 473 75.4697 473 70.6997C473 65.9297 469.12 62.0497 464.35 62.0497H102.23ZM464.35 79.6797H110.88C105.93 79.6797 101.9 75.6497 101.9 70.6997V61.7197H464.35C469.3 61.7197 473.33 65.7497 473.33 70.6997C473.33 75.6497 469.3 79.6797 464.35 79.6797Z" fill="white"/>
<path d="M109.77 74.2903V66.2803H110.99V69.6703H114.96V66.2803H116.19V74.2903H114.96V70.7203H110.99V74.2903H109.77Z" fill="white"/>
<path d="M119.82 73.4802C120.14 73.4802 120.42 73.4202 120.65 73.2902C120.88 73.1702 121.06 73.0002 121.18 72.7902C121.3 72.5802 121.36 72.3602 121.36 72.1302V71.3602C121.36 71.3602 121.24 71.4402 121.12 71.4702C121 71.5002 120.86 71.5302 120.71 71.5602C120.56 71.5902 120.41 71.6102 120.26 71.6302C120.12 71.6502 120 71.6602 119.91 71.6702C119.69 71.7002 119.48 71.7502 119.3 71.8202C119.12 71.8902 118.97 71.9802 118.86 72.1102C118.75 72.2402 118.7 72.4002 118.7 72.6102C118.7 72.8002 118.75 72.9602 118.85 73.0902C118.95 73.2202 119.08 73.3202 119.25 73.3802C119.42 73.4502 119.61 73.4802 119.84 73.4802M119.58 74.4302C119.2 74.4302 118.86 74.3602 118.55 74.2202C118.24 74.0802 118 73.8702 117.82 73.6002C117.64 73.3302 117.55 72.9902 117.55 72.6002C117.55 72.2602 117.62 71.9802 117.75 71.7602C117.88 71.5402 118.06 71.3702 118.28 71.2402C118.5 71.1102 118.75 71.0102 119.03 70.9502C119.3 70.8802 119.58 70.8402 119.87 70.8002C120.22 70.7602 120.51 70.7202 120.73 70.6902C120.95 70.6602 121.12 70.6202 121.22 70.5602C121.33 70.5002 121.38 70.4002 121.38 70.2602V70.2302C121.38 70.0002 121.34 69.8102 121.25 69.6602C121.16 69.5102 121.04 69.3902 120.86 69.3002C120.69 69.2202 120.48 69.1702 120.22 69.1702C119.96 69.1702 119.73 69.2102 119.55 69.2902C119.36 69.3702 119.21 69.4702 119.09 69.6002C118.97 69.7302 118.89 69.8602 118.83 69.9902L117.72 69.7002C117.86 69.3402 118.05 69.0502 118.31 68.8302C118.57 68.6102 118.86 68.4502 119.19 68.3502C119.52 68.2502 119.86 68.2002 120.21 68.2002C120.45 68.2002 120.71 68.2302 120.98 68.2902C121.25 68.3502 121.51 68.4502 121.75 68.6002C121.99 68.7502 122.19 68.9602 122.34 69.2302C122.49 69.5002 122.57 69.8602 122.57 70.2902V74.2802H121.43V73.4602H121.37C121.29 73.6102 121.17 73.7602 121.02 73.9102C120.87 74.0602 120.67 74.1802 120.44 74.2702C120.21 74.3702 119.92 74.4102 119.6 74.4102" fill="white"/>
<path d="M124.13 74.2902V68.2802H125.28V69.2502H125.34C125.45 68.9202 125.64 68.6602 125.92 68.4802C126.2 68.2902 126.51 68.2002 126.86 68.2002C126.93 68.2002 127.02 68.2002 127.12 68.2002C127.22 68.2002 127.3 68.2102 127.36 68.2202V69.3502C127.36 69.3502 127.23 69.3202 127.11 69.3102C126.99 69.2902 126.86 69.2902 126.74 69.2902C126.47 69.2902 126.22 69.3502 126 69.4602C125.78 69.5702 125.61 69.7302 125.49 69.9402C125.37 70.1402 125.31 70.3802 125.31 70.6402V74.2902H124.13Z" fill="white"/>
<path d="M128.53 74.2897V68.2797H129.65L129.68 69.6697H129.59C129.68 69.3297 129.81 69.0497 129.99 68.8297C130.17 68.6097 130.38 68.4497 130.62 68.3397C130.86 68.2297 131.11 68.1797 131.37 68.1797C131.81 68.1797 132.16 68.3197 132.43 68.5897C132.7 68.8597 132.88 69.2397 132.97 69.7197H132.82C132.9 69.3897 133.03 69.1097 133.23 68.8797C133.42 68.6497 133.66 68.4797 133.93 68.3597C134.2 68.2397 134.5 68.1797 134.81 68.1797C135.16 68.1797 135.49 68.2597 135.77 68.4097C136.06 68.5597 136.29 68.7897 136.45 69.0997C136.62 69.3997 136.7 69.7797 136.7 70.2397V74.2897H135.52V70.3497C135.52 69.9497 135.41 69.6597 135.18 69.4797C134.96 69.2997 134.69 69.2097 134.39 69.2097C134.14 69.2097 133.93 69.2597 133.75 69.3697C133.57 69.4697 133.43 69.6197 133.34 69.7997C133.24 69.9797 133.19 70.1997 133.19 70.4397V74.2897H132.02V70.2797C132.02 69.9597 131.92 69.6997 131.71 69.5097C131.5 69.3197 131.24 69.2197 130.92 69.2197C130.7 69.2197 130.5 69.2697 130.31 69.3697C130.12 69.4697 129.97 69.6197 129.86 69.8197C129.75 70.0197 129.69 70.2597 129.69 70.5497V74.2897H128.51H128.53Z" fill="white"/>
<path d="M140.84 73.4202C141.21 73.4202 141.51 73.3202 141.75 73.1302C141.99 72.9402 142.17 72.6802 142.28 72.3702C142.4 72.0502 142.45 71.7002 142.45 71.3202C142.45 70.9402 142.39 70.5902 142.28 70.2602C142.16 69.9402 141.99 69.6802 141.75 69.4902C141.51 69.3002 141.21 69.2002 140.84 69.2002C140.47 69.2002 140.18 69.3002 139.94 69.4902C139.7 69.6802 139.53 69.9402 139.41 70.2602C139.29 70.5802 139.24 70.9302 139.24 71.3202C139.24 71.7102 139.3 72.0502 139.41 72.3702C139.53 72.6902 139.7 72.9402 139.94 73.1302C140.18 73.3202 140.48 73.4202 140.84 73.4202ZM140.84 74.4202C140.28 74.4202 139.78 74.2902 139.36 74.0302C138.94 73.7702 138.61 73.4102 138.38 72.9402C138.15 72.4702 138.03 71.9302 138.03 71.3202C138.03 70.7102 138.15 70.1502 138.38 69.6802C138.61 69.2102 138.94 68.8502 139.36 68.5902C139.78 68.3302 140.27 68.2002 140.84 68.2002C141.41 68.2002 141.9 68.3302 142.32 68.5902C142.74 68.8502 143.07 69.2102 143.3 69.6802C143.53 70.1502 143.65 70.6902 143.65 71.3202C143.65 71.9502 143.53 72.4802 143.3 72.9402C143.07 73.4102 142.74 73.7702 142.32 74.0302C141.9 74.2902 141.4 74.4202 140.84 74.4202Z" fill="white"/>
<path d="M146.15 70.7302V74.2902H144.97V68.2802H146.1V69.7502H145.99C146.17 69.2102 146.42 68.8202 146.75 68.5702C147.08 68.3202 147.49 68.2002 147.96 68.2002C148.37 68.2002 148.73 68.2902 149.03 68.4602C149.33 68.6302 149.57 68.8802 149.74 69.2202C149.91 69.5602 150 69.9702 150 70.4702V74.2902H148.82V70.6202C148.82 70.1902 148.71 69.8502 148.48 69.6002C148.26 69.3602 147.95 69.2302 147.55 69.2302C147.28 69.2302 147.05 69.2902 146.84 69.4102C146.63 69.5302 146.46 69.7002 146.34 69.9202C146.22 70.1402 146.16 70.4102 146.16 70.7302" fill="white"/>
<path d="M151.59 68.2802H152.77V74.2902H151.59V68.2802ZM152.19 67.3602C151.99 67.3602 151.81 67.2902 151.67 67.1502C151.52 67.0102 151.45 66.8502 151.45 66.6602C151.45 66.4702 151.52 66.3002 151.67 66.1602C151.82 66.0202 151.99 65.9502 152.19 65.9502C152.39 65.9502 152.57 66.0202 152.72 66.1602C152.87 66.3002 152.94 66.4602 152.94 66.6602C152.94 66.8602 152.87 67.0202 152.72 67.1502C152.57 67.2902 152.4 67.3502 152.19 67.3502" fill="white"/>
<path d="M156.52 74.42C156.09 74.42 155.7 74.36 155.36 74.23C155.02 74.1 154.74 73.92 154.53 73.67C154.31 73.43 154.17 73.12 154.1 72.77L155.21 72.54C155.29 72.85 155.45 73.08 155.67 73.23C155.9 73.38 156.18 73.46 156.53 73.46C156.91 73.46 157.21 73.38 157.44 73.22C157.67 73.06 157.78 72.87 157.78 72.65C157.78 72.46 157.71 72.3 157.57 72.17C157.43 72.05 157.22 71.95 156.93 71.89L155.92 71.66C155.36 71.54 154.95 71.33 154.67 71.06C154.4 70.78 154.26 70.43 154.26 70C154.26 69.64 154.36 69.33 154.56 69.06C154.76 68.79 155.03 68.58 155.38 68.43C155.73 68.28 156.13 68.21 156.58 68.21C157.03 68.21 157.38 68.27 157.69 68.4C158 68.53 158.25 68.7 158.44 68.93C158.63 69.16 158.77 69.42 158.85 69.71L157.79 69.94C157.71 69.73 157.58 69.54 157.4 69.38C157.21 69.22 156.94 69.14 156.59 69.14C156.26 69.14 155.99 69.21 155.77 69.36C155.55 69.51 155.44 69.69 155.44 69.92C155.44 70.12 155.51 70.28 155.66 70.41C155.81 70.53 156.04 70.63 156.37 70.71L157.34 70.93C157.9 71.05 158.31 71.25 158.58 71.52C158.85 71.79 158.98 72.13 158.98 72.55C158.98 72.92 158.88 73.24 158.67 73.52C158.46 73.8 158.17 74.02 157.8 74.18C157.43 74.34 157 74.42 156.51 74.42" fill="white"/>
<path d="M162.89 74.4202C162.3 74.4202 161.79 74.2902 161.36 74.0402C160.93 73.7802 160.6 73.4302 160.37 72.9602C160.14 72.5002 160.02 71.9502 160.02 71.3302C160.02 70.7102 160.13 70.1702 160.36 69.7002C160.59 69.2302 160.91 68.8602 161.32 68.6002C161.74 68.3402 162.22 68.2002 162.78 68.2002C163.12 68.2002 163.46 68.2602 163.77 68.3702C164.09 68.4802 164.37 68.6602 164.63 68.9002C164.89 69.1402 165.09 69.4502 165.23 69.8302C165.38 70.2102 165.45 70.6802 165.45 71.2202V71.6402H160.66V70.7602H164.84L164.29 71.0502C164.29 70.6802 164.23 70.3502 164.12 70.0702C164.01 69.7902 163.83 69.5702 163.61 69.4102C163.38 69.2502 163.1 69.1702 162.77 69.1702C162.44 69.1702 162.15 69.2502 161.92 69.4102C161.68 69.5702 161.5 69.7802 161.38 70.0502C161.26 70.3102 161.19 70.6002 161.19 70.9102V71.5102C161.19 71.9202 161.26 72.2702 161.4 72.5602C161.54 72.8502 161.74 73.0602 161.99 73.2002C162.25 73.3502 162.54 73.4202 162.88 73.4202C163.1 73.4202 163.3 73.3902 163.48 73.3302C163.66 73.2702 163.81 73.1702 163.94 73.0502C164.07 72.9202 164.17 72.7702 164.24 72.5802L165.35 72.8402C165.25 73.1502 165.09 73.4202 164.86 73.6602C164.63 73.9002 164.35 74.0802 164.01 74.2102C163.67 74.3402 163.29 74.4102 162.86 74.4102" fill="white"/>
<path d="M166.77 74.2902V68.2802H167.92V69.2502H167.98C168.09 68.9202 168.28 68.6602 168.56 68.4802C168.84 68.2902 169.15 68.2002 169.5 68.2002C169.57 68.2002 169.66 68.2002 169.76 68.2002C169.86 68.2002 169.94 68.2102 170 68.2202V69.3502C170 69.3502 169.87 69.3202 169.75 69.3102C169.63 69.2902 169.5 69.2902 169.38 69.2902C169.11 69.2902 168.86 69.3502 168.64 69.4602C168.42 69.5702 168.25 69.7302 168.13 69.9402C168.01 70.1402 167.95 70.3802 167.95 70.6402V74.2902H166.77Z" fill="white"/>
<path d="M175.13 66.2803H173.95V74.2903H175.13V66.2803Z" fill="white"/>
<path d="M179.33 74.4202C178.74 74.4202 178.23 74.2902 177.8 74.0402C177.37 73.7802 177.04 73.4302 176.81 72.9602C176.58 72.5002 176.46 71.9502 176.46 71.3302C176.46 70.7102 176.57 70.1702 176.8 69.7002C177.03 69.2302 177.35 68.8602 177.76 68.6002C178.18 68.3402 178.66 68.2002 179.22 68.2002C179.56 68.2002 179.9 68.2602 180.21 68.3702C180.53 68.4802 180.81 68.6602 181.07 68.9002C181.33 69.1402 181.53 69.4502 181.67 69.8302C181.82 70.2102 181.89 70.6802 181.89 71.2202V71.6402H177.1V70.7602H181.28L180.73 71.0502C180.73 70.6802 180.67 70.3502 180.56 70.0702C180.45 69.7902 180.27 69.5702 180.05 69.4102C179.83 69.2502 179.55 69.1702 179.21 69.1702C178.87 69.1702 178.59 69.2502 178.36 69.4102C178.12 69.5702 177.94 69.7802 177.82 70.0502C177.7 70.3102 177.63 70.6002 177.63 70.9102V71.5102C177.63 71.9202 177.7 72.2702 177.84 72.5602C177.98 72.8502 178.18 73.0602 178.43 73.2002C178.69 73.3502 178.98 73.4202 179.32 73.4202C179.54 73.4202 179.74 73.3902 179.92 73.3302C180.1 73.2702 180.25 73.1702 180.38 73.0502C180.51 72.9202 180.61 72.7702 180.68 72.5802L181.79 72.8402C181.69 73.1502 181.53 73.4202 181.3 73.6602C181.07 73.9002 180.79 74.0802 180.45 74.2102C180.11 74.3402 179.73 74.4102 179.3 74.4102" fill="white"/>
<path d="M185.36 74.42C184.93 74.42 184.54 74.36 184.2 74.23C183.86 74.1 183.58 73.92 183.37 73.67C183.15 73.43 183.01 73.12 182.94 72.77L184.05 72.54C184.13 72.85 184.29 73.08 184.51 73.23C184.74 73.38 185.02 73.46 185.37 73.46C185.75 73.46 186.05 73.38 186.28 73.22C186.5 73.06 186.62 72.87 186.62 72.65C186.62 72.46 186.55 72.3 186.41 72.17C186.27 72.05 186.06 71.95 185.77 71.89L184.76 71.66C184.2 71.54 183.79 71.33 183.51 71.06C183.24 70.78 183.1 70.43 183.1 70C183.1 69.64 183.2 69.33 183.4 69.06C183.6 68.79 183.87 68.58 184.22 68.43C184.57 68.28 184.97 68.21 185.42 68.21C185.87 68.21 186.22 68.27 186.53 68.4C186.84 68.53 187.09 68.7 187.28 68.93C187.47 69.16 187.61 69.42 187.69 69.71L186.63 69.94C186.55 69.73 186.42 69.54 186.24 69.38C186.05 69.22 185.78 69.14 185.43 69.14C185.1 69.14 184.83 69.21 184.61 69.36C184.39 69.51 184.28 69.69 184.28 69.92C184.28 70.12 184.35 70.28 184.5 70.41C184.65 70.53 184.88 70.63 185.21 70.71L186.18 70.93C186.74 71.05 187.15 71.25 187.42 71.52C187.69 71.79 187.82 72.13 187.82 72.55C187.82 72.92 187.72 73.24 187.51 73.52C187.3 73.8 187.01 74.02 186.64 74.18C186.27 74.34 185.84 74.42 185.35 74.42" fill="white"/>
<path d="M194.56 73.4103C194.9 73.4103 195.18 73.3203 195.41 73.1403C195.64 72.9603 195.82 72.7103 195.94 72.4003C196.06 72.0803 196.12 71.7203 196.12 71.3003C196.12 70.8803 196.06 70.5203 195.94 70.2103C195.82 69.9003 195.65 69.6603 195.42 69.4803C195.19 69.3103 194.9 69.2203 194.56 69.2203C194.22 69.2203 193.92 69.3103 193.69 69.4903C193.46 69.6703 193.28 69.9203 193.17 70.2303C193.05 70.5403 193 70.9003 193 71.2903C193 71.6803 193.06 72.0503 193.18 72.3703C193.3 72.6903 193.47 72.9403 193.71 73.1303C193.94 73.3203 194.23 73.4103 194.57 73.4103M194.31 74.4103C193.82 74.4103 193.39 74.2903 193.01 74.0403C192.63 73.7903 192.33 73.4303 192.12 72.9703C191.91 72.5103 191.8 71.9503 191.8 71.3103C191.8 70.6703 191.91 70.1003 192.13 69.6403C192.35 69.1803 192.65 68.8203 193.03 68.5803C193.41 68.3403 193.84 68.2103 194.32 68.2103C194.69 68.2103 194.99 68.2703 195.22 68.4003C195.45 68.5203 195.63 68.6703 195.76 68.8303C195.89 68.9903 195.99 69.1403 196.06 69.2603H196.12V66.2803H197.3V74.2903H196.15V73.3503H196.05C195.98 73.4803 195.88 73.6303 195.75 73.7903C195.62 73.9603 195.44 74.1003 195.21 74.2203C194.98 74.3403 194.68 74.4003 194.32 74.4003" fill="white"/>
<path d="M201.41 73.4202C201.78 73.4202 202.08 73.3202 202.32 73.1302C202.56 72.9402 202.74 72.6802 202.85 72.3702C202.97 72.0502 203.02 71.7002 203.02 71.3202C203.02 70.9402 202.96 70.5902 202.85 70.2602C202.73 69.9402 202.56 69.6802 202.32 69.4902C202.08 69.3002 201.78 69.2002 201.41 69.2002C201.04 69.2002 200.75 69.3002 200.51 69.4902C200.27 69.6802 200.1 69.9402 199.98 70.2602C199.86 70.5802 199.81 70.9302 199.81 71.3202C199.81 71.7102 199.87 72.0502 199.98 72.3702C200.1 72.6902 200.27 72.9402 200.51 73.1302C200.75 73.3202 201.05 73.4202 201.41 73.4202ZM201.41 74.4202C200.85 74.4202 200.35 74.2902 199.93 74.0302C199.51 73.7702 199.18 73.4102 198.95 72.9402C198.72 72.4702 198.6 71.9302 198.6 71.3202C198.6 70.7102 198.72 70.1502 198.95 69.6802C199.18 69.2102 199.51 68.8502 199.93 68.5902C200.35 68.3302 200.84 68.2002 201.41 68.2002C201.98 68.2002 202.47 68.3302 202.89 68.5902C203.31 68.8502 203.64 69.2102 203.87 69.6802C204.1 70.1502 204.22 70.6902 204.22 71.3202C204.22 71.9502 204.1 72.4802 203.87 72.9402C203.64 73.4102 203.31 73.7702 202.89 74.0302C202.47 74.2902 201.98 74.4202 201.41 74.4202Z" fill="white"/>
<path d="M206.72 70.7302V74.2902H205.54V68.2802H206.67V69.7502H206.56C206.74 69.2102 206.99 68.8202 207.32 68.5702C207.65 68.3202 208.06 68.2002 208.53 68.2002C208.94 68.2002 209.3 68.2902 209.6 68.4602C209.9 68.6302 210.14 68.8802 210.31 69.2202C210.48 69.5602 210.57 69.9702 210.57 70.4702V74.2902H209.39V70.6202C209.39 70.1902 209.28 69.8502 209.05 69.6002C208.82 69.3602 208.51 69.2302 208.12 69.2302C207.85 69.2302 207.62 69.2902 207.41 69.4102C207.2 69.5302 207.03 69.7002 206.91 69.9202C206.79 70.1402 206.73 70.4102 206.73 70.7302" fill="white"/>
<path d="M213.34 70.7302V74.2902H212.16V68.2802H213.29V69.7502H213.18C213.36 69.2102 213.61 68.8202 213.94 68.5702C214.27 68.3202 214.68 68.2002 215.15 68.2002C215.56 68.2002 215.92 68.2902 216.22 68.4602C216.52 68.6302 216.76 68.8802 216.93 69.2202C217.1 69.5602 217.19 69.9702 217.19 70.4702V74.2902H216.01V70.6202C216.01 70.1902 215.9 69.8502 215.67 69.6002C215.44 69.3602 215.14 69.2302 214.74 69.2302C214.47 69.2302 214.24 69.2902 214.03 69.4102C213.82 69.5302 213.65 69.7002 213.53 69.9202C213.41 70.1402 213.35 70.4102 213.35 70.7302" fill="white"/>
<path d="M220.77 67.4996L221.52 65.8896H222.74L221.67 67.4996H220.77ZM221.38 74.4196C220.79 74.4196 220.28 74.2896 219.85 74.0396C219.42 73.7796 219.09 73.4296 218.86 72.9596C218.63 72.4996 218.51 71.9497 218.51 71.3297C218.51 70.7097 218.62 70.1696 218.85 69.6996C219.08 69.2296 219.4 68.8596 219.81 68.5996C220.23 68.3396 220.71 68.1996 221.27 68.1996C221.61 68.1996 221.95 68.2597 222.26 68.3697C222.58 68.4797 222.87 68.6597 223.12 68.8997C223.38 69.1397 223.58 69.4497 223.72 69.8297C223.87 70.2097 223.94 70.6797 223.94 71.2197V71.6396H219.15V70.7597H223.33L222.78 71.0497C222.78 70.6797 222.72 70.3496 222.61 70.0696C222.5 69.7896 222.33 69.5697 222.1 69.4097C221.87 69.2497 221.59 69.1696 221.26 69.1696C220.93 69.1696 220.64 69.2497 220.41 69.4097C220.17 69.5697 219.99 69.7797 219.87 70.0497C219.75 70.3097 219.68 70.5997 219.68 70.9097V71.5097C219.68 71.9197 219.75 72.2696 219.89 72.5596C220.03 72.8496 220.23 73.0596 220.48 73.1996C220.73 73.3496 221.03 73.4196 221.37 73.4196C221.59 73.4196 221.79 73.3897 221.97 73.3297C222.15 73.2697 222.3 73.1697 222.43 73.0497C222.56 72.9197 222.66 72.7697 222.73 72.5797L223.84 72.8396C223.74 73.1496 223.58 73.4197 223.35 73.6597C223.12 73.8997 222.84 74.0796 222.5 74.2096C222.16 74.3396 221.78 74.4097 221.35 74.4097" fill="white"/>
<path d="M227.84 74.4202C227.25 74.4202 226.74 74.2902 226.31 74.0402C225.88 73.7802 225.55 73.4302 225.32 72.9602C225.09 72.5002 224.97 71.9502 224.97 71.3302C224.97 70.7102 225.08 70.1702 225.31 69.7002C225.54 69.2302 225.86 68.8602 226.27 68.6002C226.69 68.3402 227.17 68.2002 227.73 68.2002C228.07 68.2002 228.41 68.2602 228.72 68.3702C229.04 68.4802 229.33 68.6602 229.58 68.9002C229.84 69.1402 230.04 69.4502 230.18 69.8302C230.33 70.2102 230.4 70.6802 230.4 71.2202V71.6402H225.61V70.7602H229.79L229.24 71.0502C229.24 70.6802 229.18 70.3502 229.07 70.0702C228.96 69.7902 228.78 69.5702 228.56 69.4102C228.33 69.2502 228.05 69.1702 227.72 69.1702C227.39 69.1702 227.1 69.2502 226.87 69.4102C226.63 69.5702 226.45 69.7802 226.33 70.0502C226.21 70.3102 226.14 70.6002 226.14 70.9102V71.5102C226.14 71.9202 226.21 72.2702 226.35 72.5602C226.49 72.8502 226.69 73.0602 226.94 73.2002C227.2 73.3502 227.49 73.4202 227.83 73.4202C228.05 73.4202 228.25 73.3902 228.43 73.3302C228.61 73.2702 228.76 73.1702 228.89 73.0502C229.02 72.9202 229.12 72.7702 229.19 72.5802L230.3 72.8402C230.2 73.1502 230.04 73.4202 229.81 73.6602C229.58 73.9002 229.3 74.0802 228.96 74.2102C228.62 74.3402 228.24 74.4102 227.81 74.4102" fill="white"/>
<path d="M233.88 74.42C233.45 74.42 233.06 74.36 232.72 74.23C232.38 74.1 232.1 73.92 231.89 73.67C231.67 73.43 231.53 73.12 231.46 72.77L232.57 72.54C232.65 72.85 232.81 73.08 233.03 73.23C233.26 73.38 233.54 73.46 233.89 73.46C234.27 73.46 234.57 73.38 234.8 73.22C235.03 73.06 235.14 72.87 235.14 72.65C235.14 72.46 235.07 72.3 234.93 72.17C234.79 72.05 234.58 71.95 234.29 71.89L233.28 71.66C232.72 71.54 232.31 71.33 232.03 71.06C231.76 70.78 231.62 70.43 231.62 70C231.62 69.64 231.72 69.33 231.92 69.06C232.12 68.79 232.39 68.58 232.74 68.43C233.09 68.28 233.49 68.21 233.94 68.21C234.39 68.21 234.74 68.27 235.05 68.4C235.36 68.53 235.61 68.7 235.8 68.93C235.99 69.16 236.13 69.42 236.21 69.71L235.15 69.94C235.07 69.73 234.94 69.54 234.76 69.38C234.57 69.22 234.3 69.14 233.95 69.14C233.62 69.14 233.35 69.21 233.13 69.36C232.91 69.51 232.8 69.69 232.8 69.92C232.8 70.12 232.87 70.28 233.02 70.41C233.17 70.53 233.4 70.63 233.73 70.71L234.7 70.93C235.26 71.05 235.67 71.25 235.94 71.52C236.21 71.79 236.34 72.13 236.34 72.55C236.34 72.92 236.24 73.24 236.03 73.52C235.82 73.8 235.53 74.02 235.16 74.18C234.79 74.34 234.36 74.42 233.87 74.42" fill="white"/>
<path d="M243.31 73.4097C243.65 73.4097 243.94 73.3197 244.18 73.1297C244.41 72.9397 244.59 72.6897 244.7 72.3697C244.82 72.0497 244.87 71.6897 244.87 71.2897C244.87 70.8897 244.81 70.5397 244.7 70.2297C244.58 69.9197 244.41 69.6697 244.18 69.4897C243.95 69.3097 243.66 69.2197 243.31 69.2197C242.96 69.2197 242.69 69.3097 242.46 69.4797C242.23 69.6497 242.05 69.8997 241.93 70.2097C241.81 70.5197 241.75 70.8797 241.75 71.3097C241.75 71.7397 241.81 72.0897 241.93 72.4097C242.05 72.7297 242.23 72.9797 242.46 73.1497C242.69 73.3297 242.98 73.4197 243.31 73.4197M240.59 76.5497V68.2897H241.74V69.2697H241.84C241.91 69.1397 242.01 68.9997 242.14 68.8297C242.27 68.6597 242.45 68.5197 242.67 68.3997C242.9 68.2797 243.2 68.2197 243.58 68.2197C244.06 68.2197 244.49 68.3397 244.87 68.5897C245.25 68.8297 245.55 69.1897 245.77 69.6497C245.99 70.1097 246.1 70.6697 246.1 71.3197C246.1 71.9697 245.99 72.5197 245.78 72.9797C245.56 73.4397 245.27 73.7997 244.89 74.0497C244.51 74.2997 244.08 74.4197 243.59 74.4197C243.23 74.4197 242.93 74.3597 242.7 74.2397C242.47 74.1197 242.29 73.9697 242.16 73.8097C242.03 73.6397 241.93 73.4997 241.86 73.3697H241.8V76.5597H240.62L240.59 76.5497Z" fill="white"/>
<path d="M249.92 73.4202C250.29 73.4202 250.59 73.3202 250.83 73.1302C251.07 72.9402 251.25 72.6802 251.36 72.3702C251.48 72.0502 251.53 71.7002 251.53 71.3202C251.53 70.9402 251.47 70.5902 251.36 70.2602C251.24 69.9402 251.07 69.6802 250.83 69.4902C250.59 69.3002 250.29 69.2002 249.92 69.2002C249.55 69.2002 249.26 69.3002 249.02 69.4902C248.78 69.6802 248.61 69.9402 248.49 70.2602C248.37 70.5802 248.32 70.9302 248.32 71.3202C248.32 71.7102 248.38 72.0502 248.49 72.3702C248.61 72.6902 248.78 72.9402 249.02 73.1302C249.26 73.3202 249.56 73.4202 249.92 73.4202ZM249.92 74.4202C249.36 74.4202 248.86 74.2902 248.44 74.0302C248.02 73.7702 247.69 73.4102 247.46 72.9402C247.23 72.4702 247.11 71.9302 247.11 71.3202C247.11 70.7102 247.23 70.1502 247.46 69.6802C247.69 69.2102 248.02 68.8502 248.44 68.5902C248.86 68.3302 249.35 68.2002 249.92 68.2002C250.49 68.2002 250.98 68.3302 251.4 68.5902C251.82 68.8502 252.15 69.2102 252.38 69.6802C252.61 70.1502 252.73 70.6902 252.73 71.3202C252.73 71.9502 252.61 72.4802 252.38 72.9402C252.15 73.4102 251.82 73.7702 251.4 74.0302C250.98 74.2902 250.48 74.4202 249.92 74.4202Z" fill="white"/>
<path d="M256.1 74.3703C255.69 74.3703 255.33 74.2803 255.02 74.1103C254.71 73.9403 254.47 73.6803 254.3 73.3503C254.13 73.0103 254.04 72.6003 254.04 72.1003V68.2803H255.22V71.9503C255.22 72.3803 255.33 72.7203 255.56 72.9703C255.79 73.2103 256.1 73.3303 256.49 73.3303C256.76 73.3303 257 73.2703 257.21 73.1603C257.42 73.0403 257.59 72.8703 257.71 72.6503C257.83 72.4303 257.89 72.1603 257.89 71.8403V68.2803H259.07V74.2903H257.94V72.8203H258.05C257.87 73.3603 257.62 73.7603 257.28 74.0003C256.94 74.2403 256.55 74.3703 256.09 74.3703" fill="white"/>
<path d="M260.67 74.2902V68.2802H261.82V69.2502H261.88C261.99 68.9202 262.18 68.6602 262.46 68.4802C262.74 68.2902 263.05 68.2002 263.4 68.2002C263.47 68.2002 263.56 68.2002 263.66 68.2002C263.76 68.2002 263.84 68.2102 263.9 68.2202V69.3502C263.9 69.3502 263.77 69.3202 263.65 69.3102C263.53 69.2902 263.4 69.2902 263.28 69.2902C263.01 69.2902 262.76 69.3502 262.54 69.4602C262.32 69.5702 262.15 69.7302 262.03 69.9402C261.91 70.1402 261.85 70.3802 261.85 70.6402V74.2902H260.67Z" fill="white"/>
<path d="M269.04 66.2803H267.86V74.2903H269.04V66.2803Z" fill="white"/>
<path d="M272.59 73.4802C272.91 73.4802 273.19 73.4202 273.42 73.2902C273.65 73.1702 273.83 73.0002 273.95 72.7902C274.07 72.5802 274.13 72.3602 274.13 72.1302V71.3602C274.13 71.3602 274.01 71.4402 273.89 71.4702C273.77 71.5002 273.63 71.5302 273.48 71.5602C273.33 71.5902 273.18 71.6102 273.03 71.6302C272.89 71.6502 272.77 71.6602 272.68 71.6702C272.46 71.7002 272.25 71.7502 272.07 71.8202C271.89 71.8902 271.74 71.9802 271.63 72.1102C271.52 72.2402 271.47 72.4002 271.47 72.6102C271.47 72.8002 271.52 72.9602 271.62 73.0902C271.72 73.2202 271.85 73.3202 272.02 73.3802C272.19 73.4502 272.38 73.4802 272.61 73.4802M272.35 74.4302C271.97 74.4302 271.63 74.3602 271.32 74.2202C271.01 74.0802 270.77 73.8702 270.59 73.6002C270.41 73.3302 270.32 72.9902 270.32 72.6002C270.32 72.2602 270.39 71.9802 270.52 71.7602C270.65 71.5402 270.83 71.3702 271.05 71.2402C271.27 71.1102 271.52 71.0102 271.8 70.9502C272.07 70.8802 272.35 70.8402 272.64 70.8002C272.99 70.7602 273.28 70.7202 273.5 70.6902C273.72 70.6602 273.89 70.6202 273.99 70.5602C274.09 70.5002 274.15 70.4002 274.15 70.2602V70.2302C274.15 70.0002 274.11 69.8102 274.02 69.6602C273.93 69.5102 273.81 69.3902 273.64 69.3002C273.47 69.2202 273.26 69.1702 273 69.1702C272.74 69.1702 272.51 69.2102 272.33 69.2902C272.14 69.3702 271.99 69.4702 271.87 69.6002C271.75 69.7302 271.67 69.8602 271.61 69.9902L270.5 69.7002C270.64 69.3402 270.83 69.0502 271.09 68.8302C271.34 68.6102 271.64 68.4502 271.97 68.3502C272.3 68.2502 272.64 68.2002 272.99 68.2002C273.23 68.2002 273.49 68.2302 273.76 68.2902C274.03 68.3502 274.29 68.4502 274.53 68.6002C274.77 68.7502 274.97 68.9602 275.12 69.2302C275.27 69.5002 275.35 69.8602 275.35 70.2902V74.2802H274.21V73.4602H274.15C274.07 73.6102 273.95 73.7602 273.8 73.9102C273.65 74.0602 273.45 74.1802 273.22 74.2702C272.99 74.3702 272.7 74.4102 272.38 74.4102" fill="white"/>
<path d="M280.02 66.8496H281.21V72.6696C281.21 72.9096 281.26 73.0896 281.36 73.1996C281.46 73.3096 281.63 73.3696 281.86 73.3696C281.92 73.3696 282 73.3696 282.1 73.3496C282.21 73.3396 282.29 73.3196 282.36 73.3096L282.57 74.2596C282.45 74.2996 282.31 74.3396 282.17 74.3496C282.03 74.3696 281.88 74.3796 281.74 74.3796C281.2 74.3796 280.78 74.2396 280.48 73.9596C280.17 73.6796 280.02 73.2796 280.02 72.7696V66.8596V66.8496ZM282.41 69.2396H279.15V68.2796H282.41V69.2396Z" fill="white"/>
<path d="M283.58 74.2902V68.2802H284.73V69.2502H284.79C284.9 68.9202 285.09 68.6602 285.37 68.4802C285.65 68.2902 285.96 68.2002 286.31 68.2002C286.38 68.2002 286.47 68.2002 286.57 68.2002C286.67 68.2002 286.75 68.2102 286.81 68.2202V69.3502C286.81 69.3502 286.68 69.3202 286.56 69.3102C286.44 69.2902 286.31 69.2902 286.19 69.2902C285.92 69.2902 285.67 69.3502 285.45 69.4602C285.23 69.5702 285.06 69.7302 284.94 69.9402C284.82 70.1402 284.76 70.3802 284.76 70.6402V74.2902H283.58Z" fill="white"/>
<path d="M289.74 73.4802C290.06 73.4802 290.34 73.4202 290.57 73.2902C290.8 73.1702 290.98 73.0002 291.1 72.7902C291.22 72.5802 291.28 72.3602 291.28 72.1302V71.3602C291.28 71.3602 291.16 71.4402 291.04 71.4702C290.92 71.5002 290.78 71.5302 290.63 71.5602C290.48 71.5902 290.33 71.6102 290.18 71.6302C290.04 71.6502 289.92 71.6602 289.83 71.6702C289.61 71.7002 289.4 71.7502 289.22 71.8202C289.04 71.8902 288.89 71.9802 288.78 72.1102C288.67 72.2402 288.62 72.4002 288.62 72.6102C288.62 72.8002 288.67 72.9602 288.77 73.0902C288.87 73.2202 289 73.3202 289.17 73.3802C289.34 73.4502 289.53 73.4802 289.76 73.4802M289.5 74.4302C289.12 74.4302 288.78 74.3602 288.47 74.2202C288.16 74.0802 287.92 73.8702 287.74 73.6002C287.56 73.3302 287.47 72.9902 287.47 72.6002C287.47 72.2602 287.54 71.9802 287.67 71.7602C287.8 71.5402 287.98 71.3702 288.2 71.2402C288.42 71.1102 288.67 71.0102 288.95 70.9502C289.22 70.8802 289.5 70.8402 289.79 70.8002C290.14 70.7602 290.43 70.7202 290.65 70.6902C290.87 70.6602 291.04 70.6202 291.14 70.5602C291.25 70.5002 291.3 70.4002 291.3 70.2602V70.2302C291.3 70.0002 291.26 69.8102 291.17 69.6602C291.08 69.5102 290.96 69.3902 290.79 69.3002C290.62 69.2202 290.41 69.1702 290.15 69.1702C289.89 69.1702 289.66 69.2102 289.48 69.2902C289.29 69.3702 289.14 69.4702 289.02 69.6002C288.9 69.7302 288.82 69.8602 288.76 69.9902L287.65 69.7002C287.79 69.3402 287.98 69.0502 288.24 68.8302C288.5 68.6102 288.79 68.4502 289.12 68.3502C289.45 68.2502 289.79 68.2002 290.14 68.2002C290.38 68.2002 290.64 68.2302 290.91 68.2902C291.18 68.3502 291.44 68.4502 291.68 68.6002C291.92 68.7502 292.12 68.9602 292.27 69.2302C292.42 69.5002 292.5 69.8602 292.5 70.2902V74.2802H291.36V73.4602H291.3C291.22 73.6102 291.1 73.7602 290.95 73.9102C290.8 74.0602 290.6 74.1802 290.37 74.2702C290.14 74.3702 289.85 74.4102 289.53 74.4102" fill="white"/>
<path d="M295.23 70.7302V74.2902H294.05V68.2802H295.18V69.7502H295.07C295.25 69.2102 295.5 68.8202 295.83 68.5702C296.16 68.3202 296.57 68.2002 297.04 68.2002C297.45 68.2002 297.81 68.2902 298.11 68.4602C298.41 68.6302 298.65 68.8802 298.82 69.2202C298.99 69.5602 299.08 69.9702 299.08 70.4702V74.2902H297.9V70.6202C297.9 70.1902 297.79 69.8502 297.56 69.6002C297.34 69.3602 297.02 69.2302 296.63 69.2302C296.36 69.2302 296.13 69.2902 295.92 69.4102C295.71 69.5302 295.54 69.7002 295.42 69.9202C295.3 70.1402 295.24 70.4102 295.24 70.7302" fill="white"/>
<path d="M302.83 74.42C302.4 74.42 302.01 74.36 301.67 74.23C301.33 74.1 301.05 73.92 300.84 73.67C300.62 73.43 300.48 73.12 300.41 72.77L301.52 72.54C301.6 72.85 301.76 73.08 301.98 73.23C302.21 73.38 302.49 73.46 302.84 73.46C303.22 73.46 303.52 73.38 303.75 73.22C303.97 73.06 304.09 72.87 304.09 72.65C304.09 72.46 304.02 72.3 303.88 72.17C303.74 72.05 303.53 71.95 303.24 71.89L302.23 71.66C301.67 71.54 301.26 71.33 300.98 71.06C300.71 70.78 300.57 70.43 300.57 70C300.57 69.64 300.67 69.33 300.87 69.06C301.07 68.79 301.34 68.58 301.69 68.43C302.04 68.28 302.44 68.21 302.89 68.21C303.34 68.21 303.69 68.27 304 68.4C304.31 68.53 304.56 68.7 304.75 68.93C304.94 69.16 305.08 69.42 305.16 69.71L304.1 69.94C304.02 69.73 303.89 69.54 303.71 69.38C303.52 69.22 303.25 69.14 302.9 69.14C302.57 69.14 302.3 69.21 302.08 69.36C301.86 69.51 301.75 69.69 301.75 69.92C301.75 70.12 301.82 70.28 301.97 70.41C302.12 70.53 302.35 70.63 302.68 70.71L303.65 70.93C304.21 71.05 304.62 71.25 304.89 71.52C305.16 71.79 305.29 72.13 305.29 72.55C305.29 72.92 305.19 73.24 304.98 73.52C304.77 73.8 304.48 74.02 304.11 74.18C303.74 74.34 303.31 74.42 302.82 74.42" fill="white"/>
<path d="M306.6 68.2802H307.78V74.2902H306.6V68.2802ZM307.2 67.3602C306.99 67.3602 306.82 67.2902 306.68 67.1502C306.53 67.0102 306.46 66.8502 306.46 66.6602C306.46 66.4702 306.53 66.3002 306.68 66.1602C306.83 66.0202 307 65.9502 307.2 65.9502C307.4 65.9502 307.58 66.0202 307.73 66.1602C307.88 66.3002 307.95 66.4602 307.95 66.6602C307.95 66.8602 307.88 67.0202 307.73 67.1502C307.58 67.2902 307.41 67.3502 307.2 67.3502" fill="white"/>
<path d="M309.57 66.8496H310.75V72.6696C310.75 72.9096 310.8 73.0896 310.9 73.1996C311.01 73.3096 311.17 73.3696 311.41 73.3696C311.47 73.3696 311.55 73.3696 311.65 73.3496C311.75 73.3396 311.84 73.3196 311.91 73.3096L312.12 74.2596C311.99 74.2996 311.86 74.3396 311.71 74.3496C311.57 74.3696 311.43 74.3796 311.29 74.3796C310.74 74.3796 310.32 74.2396 310.02 73.9596C309.72 73.6796 309.57 73.2796 309.57 72.7696V66.8596V66.8496ZM311.95 69.2396H308.69V68.2796H311.95V69.2396Z" fill="white"/>
<path d="M313.12 68.2802H314.3V74.2902H313.12V68.2802ZM313.72 67.3602C313.52 67.3602 313.34 67.2902 313.2 67.1502C313.05 67.0102 312.98 66.8502 312.98 66.6602C312.98 66.4702 313.05 66.3002 313.2 66.1602C313.35 66.0202 313.52 65.9502 313.72 65.9502C313.92 65.9502 314.1 66.0202 314.25 66.1602C314.4 66.3002 314.47 66.4602 314.47 66.6602C314.47 66.8602 314.4 67.0202 314.25 67.1502C314.1 67.2902 313.93 67.3502 313.72 67.3502" fill="white"/>
<path d="M318.43 73.4202C318.8 73.4202 319.1 73.3202 319.34 73.1302C319.58 72.9402 319.76 72.6802 319.87 72.3702C319.99 72.0502 320.04 71.7002 320.04 71.3202C320.04 70.9402 319.98 70.5902 319.87 70.2602C319.75 69.9402 319.58 69.6802 319.34 69.4902C319.1 69.3002 318.8 69.2002 318.43 69.2002C318.06 69.2002 317.77 69.3002 317.53 69.4902C317.29 69.6802 317.12 69.9402 317 70.2602C316.88 70.5802 316.83 70.9302 316.83 71.3202C316.83 71.7102 316.89 72.0502 317 72.3702C317.12 72.6902 317.29 72.9402 317.53 73.1302C317.77 73.3202 318.07 73.4202 318.43 73.4202ZM318.43 74.4202C317.87 74.4202 317.37 74.2902 316.95 74.0302C316.53 73.7702 316.2 73.4102 315.97 72.9402C315.74 72.4702 315.62 71.9302 315.62 71.3202C315.62 70.7102 315.74 70.1502 315.97 69.6802C316.2 69.2102 316.53 68.8502 316.95 68.5902C317.37 68.3302 317.86 68.2002 318.43 68.2002C319 68.2002 319.49 68.3302 319.91 68.5902C320.33 68.8502 320.66 69.2102 320.89 69.6802C321.12 70.1502 321.24 70.6902 321.24 71.3202C321.24 71.9502 321.12 72.4802 320.89 72.9402C320.66 73.4102 320.33 73.7702 319.91 74.0302C319.49 74.2902 318.99 74.4202 318.43 74.4202Z" fill="white"/>
<path d="M323.74 70.7302V74.2902H322.56V68.2802H323.69V69.7502H323.58C323.76 69.2102 324.01 68.8202 324.34 68.5702C324.67 68.3202 325.08 68.2002 325.55 68.2002C325.96 68.2002 326.32 68.2902 326.62 68.4602C326.92 68.6302 327.16 68.8802 327.33 69.2202C327.5 69.5602 327.59 69.9702 327.59 70.4702V74.2902H326.41V70.6202C326.41 70.1902 326.3 69.8502 326.07 69.6002C325.85 69.3602 325.53 69.2302 325.14 69.2302C324.87 69.2302 324.64 69.2902 324.43 69.4102C324.22 69.5302 324.05 69.7002 323.93 69.9202C323.81 70.1402 323.75 70.4102 323.75 70.7302" fill="white"/>
<path d="M334.1 67.4996L334.85 65.8896H336.07L335 67.4996H334.1ZM334.71 74.4196C334.12 74.4196 333.61 74.2896 333.18 74.0396C332.75 73.7796 332.42 73.4296 332.19 72.9596C331.96 72.4996 331.84 71.9497 331.84 71.3297C331.84 70.7097 331.95 70.1696 332.18 69.6996C332.41 69.2296 332.73 68.8596 333.14 68.5996C333.56 68.3396 334.04 68.1996 334.6 68.1996C334.94 68.1996 335.28 68.2597 335.59 68.3697C335.91 68.4797 336.2 68.6597 336.45 68.8997C336.71 69.1397 336.91 69.4497 337.05 69.8297C337.2 70.2097 337.27 70.6797 337.27 71.2197V71.6396H332.48V70.7597H336.66L336.11 71.0497C336.11 70.6797 336.05 70.3496 335.94 70.0696C335.83 69.7896 335.65 69.5697 335.43 69.4097C335.2 69.2497 334.92 69.1696 334.59 69.1696C334.26 69.1696 333.97 69.2497 333.74 69.4097C333.5 69.5697 333.32 69.7797 333.2 70.0497C333.08 70.3097 333.01 70.5997 333.01 70.9097V71.5097C333.01 71.9197 333.08 72.2696 333.22 72.5596C333.36 72.8496 333.56 73.0596 333.81 73.1996C334.07 73.3496 334.36 73.4196 334.7 73.4196C334.92 73.4196 335.12 73.3897 335.3 73.3297C335.48 73.2697 335.63 73.1697 335.76 73.0497C335.89 72.9197 335.99 72.7697 336.06 72.5797L337.17 72.8396C337.07 73.1496 336.91 73.4197 336.68 73.6597C336.45 73.8997 336.17 74.0796 335.83 74.2096C335.49 74.3396 335.11 74.4097 334.68 74.4097" fill="white"/>
<path d="M341.11 74.4202C340.54 74.4202 340.05 74.2902 339.63 74.0302C339.21 73.7702 338.88 73.4102 338.65 72.9402C338.42 72.4702 338.3 71.9302 338.3 71.3202C338.3 70.7102 338.42 70.1502 338.65 69.6802C338.88 69.2102 339.21 68.8502 339.63 68.5902C340.05 68.3302 340.54 68.2002 341.11 68.2002C341.42 68.2002 341.71 68.2402 341.99 68.3202C342.26 68.4002 342.51 68.5202 342.73 68.6702C342.95 68.8202 343.14 69.0102 343.29 69.2302C343.44 69.4502 343.56 69.7002 343.63 69.9702L342.51 70.2402C342.47 70.0902 342.41 69.9502 342.33 69.8202C342.25 69.6902 342.15 69.5802 342.03 69.4902C341.91 69.4002 341.78 69.3202 341.63 69.2802C341.48 69.2302 341.31 69.2002 341.13 69.2002C340.77 69.2002 340.47 69.3002 340.23 69.4902C339.99 69.6802 339.81 69.9402 339.7 70.2602C339.58 70.5802 339.53 70.9302 339.53 71.3202C339.53 71.7102 339.59 72.0502 339.7 72.3702C339.82 72.6902 339.99 72.9402 340.23 73.1302C340.47 73.3202 340.77 73.4102 341.13 73.4102C341.32 73.4102 341.49 73.3802 341.64 73.3302C341.79 73.2802 341.93 73.2002 342.05 73.1102C342.17 73.0102 342.27 72.9002 342.36 72.7702C342.44 72.6402 342.5 72.4902 342.54 72.3302L343.66 72.6002C343.59 72.8802 343.47 73.1402 343.32 73.3602C343.17 73.5802 342.98 73.7702 342.76 73.9302C342.54 74.0902 342.29 74.2102 342.02 74.2902C341.74 74.3702 341.45 74.4102 341.13 74.4102" fill="white"/>
<path d="M347.47 73.4202C347.84 73.4202 348.14 73.3202 348.38 73.1302C348.62 72.9402 348.8 72.6802 348.91 72.3702C349.03 72.0502 349.08 71.7002 349.08 71.3202C349.08 70.9402 349.02 70.5902 348.91 70.2602C348.79 69.9402 348.62 69.6802 348.38 69.4902C348.14 69.3002 347.84 69.2002 347.47 69.2002C347.1 69.2002 346.81 69.3002 346.57 69.4902C346.33 69.6802 346.16 69.9402 346.04 70.2602C345.92 70.5802 345.87 70.9302 345.87 71.3202C345.87 71.7102 345.93 72.0502 346.04 72.3702C346.16 72.6902 346.33 72.9402 346.57 73.1302C346.81 73.3202 347.11 73.4202 347.47 73.4202ZM347.47 74.4202C346.91 74.4202 346.41 74.2902 345.99 74.0302C345.57 73.7702 345.24 73.4102 345.01 72.9402C344.78 72.4702 344.66 71.9302 344.66 71.3202C344.66 70.7102 344.78 70.1502 345.01 69.6802C345.24 69.2102 345.57 68.8502 345.99 68.5902C346.41 68.3302 346.9 68.2002 347.47 68.2002C348.04 68.2002 348.53 68.3302 348.95 68.5902C349.37 68.8502 349.7 69.2102 349.93 69.6802C350.16 70.1502 350.28 70.6902 350.28 71.3202C350.28 71.9502 350.16 72.4802 349.93 72.9402C349.7 73.4102 349.37 73.7702 348.95 74.0302C348.53 74.2902 348.03 74.4202 347.47 74.4202Z" fill="white"/>
<path d="M352.77 66.2803H351.59V74.2903H352.77V66.2803Z" fill="white"/>
<path d="M356.9 73.4202C357.27 73.4202 357.57 73.3202 357.81 73.1302C358.05 72.9402 358.23 72.6802 358.34 72.3702C358.46 72.0502 358.51 71.7002 358.51 71.3202C358.51 70.9402 358.45 70.5902 358.34 70.2602C358.22 69.9402 358.05 69.6802 357.81 69.4902C357.57 69.3002 357.27 69.2002 356.9 69.2002C356.53 69.2002 356.24 69.3002 356 69.4902C355.76 69.6802 355.59 69.9402 355.47 70.2602C355.35 70.5802 355.3 70.9302 355.3 71.3202C355.3 71.7102 355.36 72.0502 355.47 72.3702C355.59 72.6902 355.76 72.9402 356 73.1302C356.24 73.3202 356.54 73.4202 356.9 73.4202ZM356.9 74.4202C356.34 74.4202 355.84 74.2902 355.42 74.0302C355 73.7702 354.67 73.4102 354.44 72.9402C354.21 72.4702 354.09 71.9302 354.09 71.3202C354.09 70.7102 354.21 70.1502 354.44 69.6802C354.67 69.2102 355 68.8502 355.42 68.5902C355.84 68.3302 356.33 68.2002 356.9 68.2002C357.47 68.2002 357.96 68.3302 358.38 68.5902C358.8 68.8502 359.13 69.2102 359.36 69.6802C359.59 70.1502 359.71 70.6902 359.71 71.3202C359.71 71.9502 359.59 72.4802 359.36 72.9402C359.13 73.4102 358.8 73.7702 358.38 74.0302C357.96 74.2902 357.46 74.4202 356.9 74.4202Z" fill="white"/>
<path d="M363.52 73.22C363.86 73.22 364.14 73.14 364.37 72.99C364.6 72.83 364.78 72.61 364.89 72.31C365.01 72.01 365.07 71.66 365.07 71.25C365.07 70.84 365.01 70.49 364.89 70.19C364.77 69.89 364.6 69.65 364.37 69.47C364.14 69.3 363.85 69.21 363.52 69.21C363.19 69.21 362.88 69.3 362.65 69.48C362.42 69.66 362.24 69.9 362.12 70.21C362 70.52 361.94 70.86 361.94 71.25C361.94 71.64 362 71.99 362.12 72.28C362.24 72.58 362.42 72.81 362.65 72.97C362.88 73.14 363.17 73.22 363.52 73.22ZM363.52 76.67C363.06 76.67 362.66 76.61 362.31 76.49C361.97 76.37 361.69 76.21 361.47 76.02C361.25 75.82 361.08 75.6 360.97 75.36L361.96 74.89C362.03 75.01 362.13 75.13 362.25 75.25C362.37 75.38 362.53 75.48 362.74 75.57C362.94 75.66 363.21 75.7 363.53 75.7C363.99 75.7 364.36 75.59 364.65 75.38C364.93 75.16 365.08 74.82 365.08 74.36V73.19H364.98C364.91 73.32 364.81 73.47 364.68 73.62C364.55 73.77 364.37 73.91 364.15 74.02C363.92 74.13 363.63 74.19 363.26 74.19C362.79 74.19 362.36 74.08 361.98 73.86C361.6 73.64 361.3 73.31 361.08 72.87C360.86 72.43 360.75 71.89 360.75 71.26C360.75 70.63 360.86 70.07 361.08 69.62C361.3 69.16 361.6 68.81 361.98 68.57C362.36 68.33 362.79 68.21 363.27 68.21C363.64 68.21 363.94 68.27 364.17 68.39C364.4 68.51 364.58 68.66 364.71 68.82C364.84 68.99 364.94 69.13 365.01 69.26H365.1V68.28H366.26V74.38C366.26 74.91 366.14 75.34 365.9 75.68C365.66 76.02 365.34 76.27 364.93 76.43C364.52 76.59 364.06 76.67 363.54 76.67" fill="white"/>
<path d="M367.84 68.2802H369.02V74.2902H367.84V68.2802ZM368.44 67.3602C368.24 67.3602 368.06 67.2902 367.92 67.1502C367.77 67.0102 367.7 66.8502 367.7 66.6602C367.7 66.4702 367.77 66.3002 367.92 66.1602C368.07 66.0202 368.24 65.9502 368.44 65.9502C368.64 65.9502 368.82 66.0202 368.97 66.1602C369.12 66.3002 369.19 66.4602 369.19 66.6602C369.19 66.8602 369.12 67.0202 368.97 67.1502C368.82 67.2902 368.65 67.3502 368.44 67.3502" fill="white"/>
<path d="M373.11 73.4104C373.45 73.4104 373.73 73.3204 373.96 73.1404C374.19 72.9604 374.37 72.7104 374.49 72.4004C374.61 72.0804 374.67 71.7204 374.67 71.3004C374.67 70.8804 374.61 70.5104 374.49 70.2004C374.37 69.8904 374.2 69.6504 373.97 69.4704C373.74 69.3004 373.45 69.2104 373.11 69.2104C372.77 69.2104 372.47 69.3004 372.24 69.4804C372.01 69.6604 371.83 69.9104 371.72 70.2204C371.6 70.5304 371.55 70.8904 371.55 71.2804C371.55 71.6704 371.61 72.0404 371.73 72.3604C371.85 72.6804 372.02 72.9304 372.26 73.1204C372.49 73.3104 372.78 73.4004 373.12 73.4004M375.84 76.5304H374.66V73.3404H374.6C374.53 73.4704 374.43 73.6204 374.3 73.7804C374.17 73.9504 373.99 74.0904 373.76 74.2104C373.53 74.3304 373.23 74.3904 372.87 74.3904C372.38 74.3904 371.95 74.2704 371.57 74.0204C371.19 73.7704 370.89 73.4104 370.68 72.9504C370.47 72.4904 370.36 71.9304 370.36 71.2904C370.36 70.6504 370.47 70.0804 370.69 69.6204C370.91 69.1604 371.21 68.8004 371.59 68.5604C371.97 68.3204 372.4 68.1904 372.88 68.1904C373.25 68.1904 373.55 68.2504 373.78 68.3704C374.01 68.4904 374.19 68.6404 374.31 68.8004C374.43 68.9604 374.54 69.1104 374.61 69.2404H374.71V68.2604H375.86V76.5204L375.84 76.5304Z" fill="white"/>
<path d="M379.48 74.3703C379.07 74.3703 378.71 74.2803 378.4 74.1103C378.09 73.9403 377.85 73.6803 377.68 73.3503C377.51 73.0103 377.42 72.6003 377.42 72.1003V68.2803H378.6V71.9503C378.6 72.3803 378.71 72.7203 378.94 72.9703C379.17 73.2103 379.48 73.3303 379.87 73.3303C380.14 73.3303 380.38 73.2703 380.59 73.1603C380.8 73.0403 380.97 72.8703 381.09 72.6503C381.21 72.4303 381.27 72.1603 381.27 71.8403V68.2803H382.45V74.2903H381.32V72.8203H381.43C381.25 73.3603 381 73.7603 380.66 74.0003C380.32 74.2403 379.93 74.3703 379.47 74.3703" fill="white"/>
<path d="M386.64 74.4202C386.05 74.4202 385.54 74.2902 385.11 74.0402C384.68 73.7802 384.35 73.4302 384.12 72.9602C383.89 72.5002 383.77 71.9502 383.77 71.3302C383.77 70.7102 383.88 70.1702 384.11 69.7002C384.34 69.2302 384.66 68.8602 385.07 68.6002C385.49 68.3402 385.97 68.2002 386.53 68.2002C386.87 68.2002 387.21 68.2602 387.52 68.3702C387.84 68.4802 388.13 68.6602 388.38 68.9002C388.64 69.1402 388.84 69.4502 388.98 69.8302C389.13 70.2102 389.2 70.6802 389.2 71.2202V71.6402H384.41V70.7602H388.59L388.04 71.0502C388.04 70.6802 387.98 70.3502 387.87 70.0702C387.76 69.7902 387.58 69.5702 387.36 69.4102C387.14 69.2502 386.86 69.1702 386.52 69.1702C386.18 69.1702 385.9 69.2502 385.67 69.4102C385.43 69.5702 385.25 69.7802 385.13 70.0502C385.01 70.3102 384.94 70.6002 384.94 70.9102V71.5102C384.94 71.9202 385.01 72.2702 385.15 72.5602C385.29 72.8502 385.49 73.0602 385.74 73.2002C386 73.3502 386.29 73.4202 386.63 73.4202C386.85 73.4202 387.05 73.3902 387.23 73.3302C387.41 73.2702 387.56 73.1702 387.69 73.0502C387.82 72.9202 387.92 72.7702 387.99 72.5802L389.1 72.8402C389 73.1502 388.84 73.4202 388.61 73.6602C388.38 73.9002 388.1 74.0802 387.76 74.2102C387.42 74.3402 387.04 74.4102 386.61 74.4102" fill="white"/>
<path d="M395.94 73.4103C396.28 73.4103 396.56 73.3203 396.79 73.1403C397.02 72.9603 397.2 72.7103 397.32 72.4003C397.44 72.0803 397.5 71.7203 397.5 71.3003C397.5 70.8803 397.44 70.5203 397.32 70.2103C397.2 69.9003 397.03 69.6603 396.8 69.4803C396.57 69.3103 396.28 69.2203 395.94 69.2203C395.6 69.2203 395.3 69.3103 395.07 69.4903C394.84 69.6703 394.67 69.9203 394.55 70.2303C394.43 70.5403 394.38 70.9003 394.38 71.2903C394.38 71.6803 394.44 72.0503 394.56 72.3703C394.68 72.6903 394.85 72.9403 395.09 73.1303C395.32 73.3203 395.61 73.4103 395.95 73.4103M395.69 74.4103C395.2 74.4103 394.77 74.2903 394.39 74.0403C394.01 73.7903 393.71 73.4303 393.5 72.9703C393.29 72.5103 393.18 71.9503 393.18 71.3103C393.18 70.6703 393.29 70.1003 393.51 69.6403C393.73 69.1803 394.03 68.8203 394.41 68.5803C394.79 68.3403 395.22 68.2103 395.7 68.2103C396.07 68.2103 396.37 68.2703 396.6 68.4003C396.83 68.5203 397.01 68.6703 397.14 68.8303C397.27 68.9903 397.37 69.1403 397.44 69.2603H397.5V66.2803H398.68V74.2903H397.53V73.3503H397.43C397.36 73.4803 397.26 73.6303 397.13 73.7903C397 73.9603 396.82 74.1003 396.59 74.2203C396.36 74.3403 396.06 74.4003 395.7 74.4003" fill="white"/>
<path d="M402.86 74.4202C402.27 74.4202 401.76 74.2902 401.33 74.0402C400.9 73.7802 400.57 73.4302 400.34 72.9602C400.11 72.5002 399.99 71.9502 399.99 71.3302C399.99 70.7102 400.1 70.1702 400.33 69.7002C400.56 69.2302 400.88 68.8602 401.29 68.6002C401.71 68.3402 402.19 68.2002 402.75 68.2002C403.09 68.2002 403.43 68.2602 403.74 68.3702C404.06 68.4802 404.35 68.6602 404.6 68.9002C404.86 69.1402 405.06 69.4502 405.2 69.8302C405.35 70.2102 405.42 70.6802 405.42 71.2202V71.6402H400.63V70.7602H404.81L404.26 71.0502C404.26 70.6802 404.2 70.3502 404.09 70.0702C403.98 69.7902 403.8 69.5702 403.58 69.4102C403.36 69.2502 403.08 69.1702 402.74 69.1702C402.4 69.1702 402.12 69.2502 401.89 69.4102C401.65 69.5702 401.47 69.7802 401.35 70.0502C401.23 70.3102 401.16 70.6002 401.16 70.9102V71.5102C401.16 71.9202 401.23 72.2702 401.37 72.5602C401.51 72.8502 401.71 73.0602 401.96 73.2002C402.22 73.3502 402.51 73.4202 402.85 73.4202C403.07 73.4202 403.27 73.3902 403.45 73.3302C403.63 73.2702 403.78 73.1702 403.91 73.0502C404.04 72.9202 404.14 72.7702 404.21 72.5802L405.32 72.8402C405.22 73.1502 405.06 73.4202 404.83 73.6602C404.6 73.9002 404.32 74.0802 403.98 74.2102C403.64 74.3402 403.26 74.4102 402.83 74.4102" fill="white"/>
<path d="M408.89 74.42C408.46 74.42 408.07 74.36 407.73 74.23C407.39 74.1 407.11 73.92 406.9 73.67C406.68 73.43 406.54 73.12 406.47 72.77L407.58 72.54C407.66 72.85 407.82 73.08 408.04 73.23C408.27 73.38 408.55 73.46 408.9 73.46C409.28 73.46 409.58 73.38 409.81 73.22C410.04 73.06 410.15 72.87 410.15 72.65C410.15 72.46 410.08 72.3 409.94 72.17C409.8 72.05 409.59 71.95 409.3 71.89L408.29 71.66C407.73 71.54 407.32 71.33 407.04 71.06C406.77 70.78 406.63 70.43 406.63 70C406.63 69.64 406.73 69.33 406.93 69.06C407.13 68.79 407.4 68.58 407.75 68.43C408.1 68.28 408.5 68.21 408.95 68.21C409.4 68.21 409.75 68.27 410.06 68.4C410.37 68.53 410.62 68.7 410.81 68.93C411 69.16 411.14 69.42 411.22 69.71L410.16 69.94C410.08 69.73 409.95 69.54 409.77 69.38C409.58 69.22 409.31 69.14 408.96 69.14C408.63 69.14 408.36 69.21 408.14 69.36C407.92 69.51 407.81 69.69 407.81 69.92C407.81 70.12 407.88 70.28 408.03 70.41C408.18 70.53 408.41 70.63 408.74 70.71L409.71 70.93C410.27 71.05 410.68 71.25 410.95 71.52C411.22 71.79 411.35 72.13 411.35 72.55C411.35 72.92 411.25 73.24 411.04 73.52C410.83 73.8 410.54 74.02 410.17 74.18C409.8 74.34 409.37 74.42 408.88 74.42" fill="white"/>
<path d="M415.79 66.8496H416.97V72.6696C416.97 72.9096 417.02 73.0896 417.13 73.1996C417.23 73.3096 417.4 73.3696 417.63 73.3696C417.69 73.3696 417.77 73.3696 417.87 73.3496C417.97 73.3396 418.06 73.3196 418.13 73.3096L418.34 74.2596C418.21 74.2996 418.08 74.3396 417.94 74.3496C417.79 74.3696 417.65 74.3796 417.51 74.3796C416.97 74.3796 416.54 74.2396 416.24 73.9596C415.94 73.6796 415.79 73.2796 415.79 72.7696V66.8596V66.8496ZM418.17 69.2396H414.91V68.2796H418.17V69.2396Z" fill="white"/>
<path d="M421.83 74.4202C421.24 74.4202 420.73 74.2902 420.3 74.0402C419.87 73.7802 419.54 73.4302 419.31 72.9602C419.08 72.5002 418.96 71.9502 418.96 71.3302C418.96 70.7102 419.07 70.1702 419.3 69.7002C419.53 69.2302 419.85 68.8602 420.26 68.6002C420.68 68.3402 421.16 68.2002 421.72 68.2002C422.06 68.2002 422.4 68.2602 422.71 68.3702C423.03 68.4802 423.32 68.6602 423.57 68.9002C423.83 69.1402 424.03 69.4502 424.17 69.8302C424.32 70.2102 424.39 70.6802 424.39 71.2202V71.6402H419.6V70.7602H423.78L423.23 71.0502C423.23 70.6802 423.17 70.3502 423.06 70.0702C422.95 69.7902 422.77 69.5702 422.55 69.4102C422.32 69.2502 422.04 69.1702 421.71 69.1702C421.38 69.1702 421.09 69.2502 420.86 69.4102C420.62 69.5702 420.44 69.7802 420.32 70.0502C420.2 70.3102 420.13 70.6002 420.13 70.9102V71.5102C420.13 71.9202 420.2 72.2702 420.34 72.5602C420.48 72.8502 420.68 73.0602 420.93 73.2002C421.18 73.3502 421.48 73.4202 421.82 73.4202C422.04 73.4202 422.24 73.3902 422.42 73.3302C422.6 73.2702 422.75 73.1702 422.88 73.0502C423.01 72.9202 423.11 72.7702 423.18 72.5802L424.29 72.8402C424.19 73.1502 424.03 73.4202 423.8 73.6602C423.57 73.9002 423.29 74.0802 422.95 74.2102C422.61 74.3402 422.23 74.4102 421.8 74.4102" fill="white"/>
<path d="M425.71 74.2902V68.2802H426.86V69.2502H426.92C427.03 68.9202 427.22 68.6602 427.5 68.4802C427.78 68.2902 428.09 68.2002 428.44 68.2002C428.51 68.2002 428.6 68.2002 428.7 68.2002C428.8 68.2002 428.88 68.2102 428.94 68.2202V69.3502C428.94 69.3502 428.81 69.3202 428.69 69.3102C428.57 69.2902 428.44 69.2902 428.32 69.2902C428.05 69.2902 427.8 69.3502 427.58 69.4602C427.36 69.5702 427.19 69.7302 427.07 69.9402C426.95 70.1402 426.89 70.3802 426.89 70.6402V74.2902H425.71Z" fill="white"/>
<path d="M430.11 74.2902V68.2802H431.26V69.2502H431.32C431.43 68.9202 431.62 68.6602 431.9 68.4802C432.18 68.2902 432.49 68.2002 432.84 68.2002C432.91 68.2002 433 68.2002 433.1 68.2002C433.2 68.2002 433.28 68.2102 433.34 68.2202V69.3502C433.34 69.3502 433.21 69.3202 433.09 69.3102C432.97 69.2902 432.84 69.2902 432.72 69.2902C432.45 69.2902 432.2 69.3502 431.98 69.4602C431.76 69.5702 431.59 69.7302 431.47 69.9402C431.35 70.1402 431.29 70.3802 431.29 70.6402V74.2902H430.11Z" fill="white"/>
<path d="M434.45 68.2802H435.63V74.2902H434.45V68.2802ZM435.05 67.3602C434.85 67.3602 434.67 67.2902 434.53 67.1502C434.38 67.0102 434.31 66.8502 434.31 66.6602C434.31 66.4702 434.38 66.3002 434.53 66.1602C434.68 66.0202 434.85 65.9502 435.05 65.9502C435.25 65.9502 435.43 66.0202 435.58 66.1602C435.73 66.3002 435.8 66.4602 435.8 66.6602C435.8 66.8602 435.73 67.0202 435.58 67.1502C435.43 67.2902 435.26 67.3502 435.05 67.3502" fill="white"/>
<path d="M437.42 66.8496H438.6V72.6696C438.6 72.9096 438.65 73.0896 438.76 73.1996C438.86 73.3096 439.03 73.3696 439.26 73.3696C439.32 73.3696 439.4 73.3696 439.5 73.3496C439.6 73.3396 439.69 73.3196 439.76 73.3096L439.97 74.2596C439.84 74.2996 439.71 74.3396 439.56 74.3496C439.42 74.3696 439.28 74.3796 439.14 74.3796C438.59 74.3796 438.17 74.2396 437.87 73.9596C437.57 73.6796 437.42 73.2796 437.42 72.7696V66.8596V66.8496ZM439.8 69.2396H436.54V68.2796H439.8V69.2396Z" fill="white"/>
<path d="M443.4 73.4202C443.77 73.4202 444.07 73.3202 444.31 73.1302C444.55 72.9402 444.73 72.6802 444.84 72.3702C444.96 72.0502 445.01 71.7002 445.01 71.3202C445.01 70.9402 444.95 70.5902 444.84 70.2602C444.72 69.9402 444.55 69.6802 444.31 69.4902C444.07 69.3002 443.77 69.2002 443.4 69.2002C443.03 69.2002 442.74 69.3002 442.5 69.4902C442.26 69.6802 442.09 69.9402 441.97 70.2602C441.85 70.5802 441.8 70.9302 441.8 71.3202C441.8 71.7102 441.86 72.0502 441.97 72.3702C442.09 72.6902 442.26 72.9402 442.5 73.1302C442.74 73.3202 443.04 73.4202 443.4 73.4202ZM443.4 74.4202C442.84 74.4202 442.34 74.2902 441.92 74.0302C441.5 73.7702 441.17 73.4102 440.94 72.9402C440.71 72.4702 440.59 71.9302 440.59 71.3202C440.59 70.7102 440.71 70.1502 440.94 69.6802C441.17 69.2102 441.5 68.8502 441.92 68.5902C442.34 68.3302 442.83 68.2002 443.4 68.2002C443.97 68.2002 444.46 68.3302 444.88 68.5902C445.3 68.8502 445.63 69.2102 445.86 69.6802C446.09 70.1502 446.21 70.6902 446.21 71.3202C446.21 71.9502 446.09 72.4802 445.86 72.9402C445.63 73.4102 445.3 73.7702 444.88 74.0302C444.46 74.2902 443.96 74.4202 443.4 74.4202Z" fill="white"/>
<path d="M447.52 68.2802H448.7V74.2902H447.52V68.2802ZM448.12 67.3602C447.92 67.3602 447.74 67.2902 447.6 67.1502C447.45 67.0102 447.38 66.8502 447.38 66.6602C447.38 66.4702 447.45 66.3002 447.6 66.1602C447.75 66.0202 447.92 65.9502 448.12 65.9502C448.32 65.9502 448.5 66.0202 448.65 66.1602C448.8 66.3002 448.87 66.4602 448.87 66.6602C448.87 66.8602 448.8 67.0202 448.65 67.1502C448.5 67.2902 448.33 67.3502 448.12 67.3502" fill="white"/>
<path d="M450.3 74.2902V68.2802H451.45V69.2502H451.51C451.62 68.9202 451.81 68.6602 452.09 68.4802C452.37 68.2902 452.68 68.2002 453.03 68.2002C453.1 68.2002 453.19 68.2002 453.29 68.2002C453.39 68.2002 453.47 68.2102 453.53 68.2202V69.3502C453.53 69.3502 453.4 69.3202 453.28 69.3102C453.16 69.2902 453.03 69.2902 452.91 69.2902C452.64 69.2902 452.39 69.3502 452.17 69.4602C451.95 69.5702 451.78 69.7302 451.66 69.9402C451.54 70.1402 451.48 70.3802 451.48 70.6402V74.2902H450.3Z" fill="white"/>
<path d="M456.94 74.4202C456.35 74.4202 455.84 74.2902 455.41 74.0402C454.98 73.7802 454.65 73.4302 454.42 72.9602C454.19 72.5002 454.07 71.9502 454.07 71.3302C454.07 70.7102 454.18 70.1702 454.41 69.7002C454.64 69.2302 454.96 68.8602 455.37 68.6002C455.79 68.3402 456.27 68.2002 456.83 68.2002C457.17 68.2002 457.51 68.2602 457.82 68.3702C458.14 68.4802 458.43 68.6602 458.68 68.9002C458.94 69.1402 459.14 69.4502 459.28 69.8302C459.43 70.2102 459.5 70.6802 459.5 71.2202V71.6402H454.71V70.7602H458.89L458.34 71.0502C458.34 70.6802 458.28 70.3502 458.17 70.0702C458.06 69.7902 457.88 69.5702 457.66 69.4102C457.43 69.2502 457.15 69.1702 456.82 69.1702C456.49 69.1702 456.2 69.2502 455.97 69.4102C455.73 69.5702 455.55 69.7802 455.43 70.0502C455.31 70.3102 455.24 70.6002 455.24 70.9102V71.5102C455.24 71.9202 455.31 72.2702 455.45 72.5602C455.59 72.8502 455.79 73.0602 456.04 73.2002C456.3 73.3502 456.59 73.4202 456.93 73.4202C457.15 73.4202 457.35 73.3902 457.53 73.3302C457.71 73.2702 457.86 73.1702 457.99 73.0502C458.12 72.9202 458.22 72.7702 458.29 72.5802L459.4 72.8402C459.3 73.1502 459.14 73.4202 458.91 73.6602C458.68 73.9002 458.4 74.0802 458.06 74.2102C457.72 74.3402 457.34 74.4102 456.91 74.4102" fill="white"/>
<path d="M462.97 74.42C462.54 74.42 462.15 74.36 461.81 74.23C461.47 74.1 461.19 73.92 460.98 73.67C460.76 73.43 460.62 73.12 460.55 72.77L461.66 72.54C461.74 72.85 461.9 73.08 462.12 73.23C462.35 73.38 462.63 73.46 462.98 73.46C463.36 73.46 463.66 73.38 463.89 73.22C464.11 73.06 464.23 72.87 464.23 72.65C464.23 72.46 464.16 72.3 464.02 72.17C463.88 72.05 463.67 71.95 463.38 71.89L462.37 71.66C461.81 71.54 461.4 71.33 461.12 71.06C460.85 70.78 460.71 70.43 460.71 70C460.71 69.64 460.81 69.33 461.01 69.06C461.21 68.79 461.48 68.58 461.83 68.43C462.18 68.28 462.58 68.21 463.03 68.21C463.48 68.21 463.83 68.27 464.14 68.4C464.45 68.53 464.7 68.7 464.89 68.93C465.08 69.16 465.22 69.42 465.3 69.71L464.24 69.94C464.16 69.73 464.03 69.54 463.85 69.38C463.66 69.22 463.39 69.14 463.04 69.14C462.71 69.14 462.44 69.21 462.22 69.36C462 69.51 461.89 69.69 461.89 69.92C461.89 70.12 461.96 70.28 462.11 70.41C462.26 70.53 462.49 70.63 462.82 70.71L463.79 70.93C464.35 71.05 464.76 71.25 465.03 71.52C465.3 71.79 465.43 72.13 465.43 72.55C465.43 72.92 465.33 73.24 465.12 73.52C464.91 73.8 464.62 74.02 464.25 74.18C463.88 74.34 463.45 74.42 462.96 74.42" fill="white"/>
<path d="M133.68 36.9503C133.05 37.9303 132.27 38.7603 131.35 39.4303C130.43 40.1003 129.41 40.6103 128.3 40.9603C127.18 41.3103 126 41.4803 124.75 41.4803C122.48 41.4803 120.45 40.9103 118.64 39.7803C116.84 38.6503 115.41 36.9703 114.35 34.7403C113.29 32.5103 112.77 29.8003 112.77 26.5803C112.77 23.3603 113.29 20.6503 114.32 18.4203C115.36 16.2003 116.78 14.5103 118.59 13.3603C120.4 12.2103 122.45 11.6303 124.74 11.6303C125.99 11.6303 127.18 11.8003 128.3 12.1403C129.42 12.4803 130.44 12.9903 131.35 13.6703C132.26 14.3503 133.03 15.1803 133.67 16.1503C134.3 17.1203 134.74 18.2403 135 19.5103H141.13C140.79 17.4003 140.14 15.5203 139.19 13.8603C138.23 12.2003 137.03 10.7903 135.57 9.63031C134.11 8.47031 132.46 7.59031 130.61 6.98031C128.76 6.37031 126.78 6.07031 124.68 6.07031C121.23 6.07031 118.15 6.89031 115.44 8.53031C112.73 10.1703 110.59 12.5303 109.04 15.5903C107.49 18.6503 106.71 22.3203 106.71 26.5903C106.71 30.8603 107.49 34.5003 109.04 37.5603C110.59 40.6203 112.73 42.9703 115.44 44.6003C118.15 46.2303 121.23 47.0503 124.68 47.0503C126.88 47.0503 128.91 46.7203 130.77 46.0703C132.64 45.4203 134.29 44.4903 135.74 43.2703C137.19 42.0603 138.37 40.6303 139.3 39.0003C140.23 37.3703 140.85 35.5703 141.15 33.6003H134.99C134.74 34.8503 134.3 35.9703 133.66 36.9503" fill="white"/>
<path d="M150.04 5C149.02 5 148.15 5.34 147.43 6.02C146.71 6.7 146.35 7.53 146.35 8.51C146.35 9.49 146.71 10.27 147.43 10.96C148.15 11.65 149.02 11.99 150.04 11.99C151.06 11.99 151.93 11.65 152.66 10.97C153.39 10.29 153.76 9.47 153.76 8.51C153.76 7.55 153.39 6.7 152.66 6.02C151.93 5.34 151.05 5 150.04 5Z" fill="white"/>
<path d="M152.96 16.5703H147.07V46.5203H152.96V16.5703Z" fill="white"/>
<path d="M171.37 41.8002C170.87 41.8702 170.47 41.9102 170.16 41.9102C169 41.9102 168.16 41.6302 167.65 41.0702C167.14 40.5102 166.89 39.6302 166.89 38.4302V21.3702H172.86V16.5702H166.89V9.4502H161V16.5702H156.63V21.3702H161V38.9102C161 41.4502 161.75 43.4202 163.25 44.8202C164.75 46.2202 166.86 46.9202 169.57 46.9202C170.27 46.9202 170.97 46.8702 171.69 46.7702C172.4 46.6702 173.07 46.5102 173.7 46.3002L172.66 41.5902C172.3 41.6602 171.87 41.7302 171.37 41.8002Z" fill="white"/>
<path d="M193.04 33.5803C192.38 35.4603 191.81 37.3403 191.34 39.2203C191.16 39.9503 190.97 40.6803 190.77 41.4103C190.59 40.6803 190.41 39.9603 190.24 39.2303C189.8 37.3503 189.25 35.4703 188.59 33.5803L182.67 16.5703H176.29L187.67 46.6503L187.03 48.8503C186.67 50.1403 186.19 51.0903 185.6 51.7303C185 52.3603 184.3 52.7403 183.48 52.8703C182.67 52.9903 181.75 52.9203 180.73 52.6603L180.06 52.5003L178.61 57.3003C178.97 57.4603 179.51 57.6103 180.24 57.7403C180.97 57.8703 181.8 57.9403 182.73 57.9403C184.34 57.9403 185.75 57.6703 186.96 57.1203C188.17 56.5803 189.22 55.7703 190.11 54.7003C190.99 53.6303 191.74 52.2903 192.35 50.6803L205.37 16.5803H199.05L193.02 33.5903L193.04 33.5803Z" fill="white"/>
<path d="M251.01 34.7398C249.96 36.9598 248.55 38.6398 246.75 39.7798C244.95 40.9098 242.92 41.4798 240.66 41.4798C238.4 41.4798 236.33 40.9098 234.53 39.7698C232.73 38.6298 231.3 36.9498 230.26 34.7298C229.21 32.5198 228.69 29.7998 228.69 26.5898C228.69 23.3798 229.21 20.6298 230.26 18.4098C231.3 16.1898 232.73 14.4998 234.53 13.3598C236.33 12.2198 238.38 11.6498 240.66 11.6498C242.94 11.6498 244.96 12.2198 246.75 13.3498C248.54 14.4798 249.96 16.1598 251.01 18.3898C252.05 20.6098 252.58 23.3498 252.58 26.5998C252.58 29.8498 252.06 32.5298 251.01 34.7598M249.89 8.54984C247.18 6.90984 244.11 6.08984 240.66 6.08984C237.21 6.08984 234.13 6.90984 231.41 8.54984C228.69 10.1898 226.54 12.5498 224.98 15.6098C223.42 18.6698 222.64 22.3398 222.64 26.6098C222.64 30.8798 223.42 34.5198 224.98 37.5798C226.54 40.6398 228.68 42.9898 231.41 44.6298C234.13 46.2598 237.22 47.0798 240.66 47.0798C244.1 47.0798 247.18 46.2598 249.89 44.6298C252.59 42.9998 254.73 40.6498 256.29 37.5798C257.85 34.5198 258.63 30.8598 258.63 26.6098C258.63 22.3598 257.85 18.6798 256.29 15.6098C254.73 12.5498 252.59 10.1898 249.89 8.54984Z" fill="white"/>
<path d="M278.41 16.1396C276.66 16.1396 275.1 16.5996 273.72 17.5296C272.34 18.4596 271.38 19.7396 270.83 21.3896H270.51V16.5696H264.81V46.5196H270.7V28.3296C270.7 27.0096 271 25.8396 271.61 24.8396C272.22 23.8296 273.07 23.0396 274.15 22.4696C275.24 21.8996 276.46 21.6096 277.82 21.6096C278.44 21.6096 279.06 21.6496 279.67 21.7196C280.28 21.7896 280.69 21.8596 280.9 21.9296V16.3096C280.58 16.2596 280.18 16.2196 279.69 16.1896C279.21 16.1596 278.78 16.1496 278.4 16.1496" fill="white"/>
<path d="M302.9 38.9504C302.49 39.6204 301.98 40.1904 301.37 40.6604C300.76 41.1304 300.08 41.5004 299.31 41.7604C298.54 42.0204 297.69 42.1504 296.77 42.1504C294.97 42.1504 293.47 41.6804 292.28 40.7304C291.09 39.7804 290.21 38.5204 289.63 36.9404C289.05 35.3604 288.76 33.6104 288.76 31.7004C288.76 29.7904 289.05 28.0104 289.63 26.4204C290.21 24.8304 291.09 23.5604 292.28 22.6004C293.47 21.6504 294.96 21.1704 296.77 21.1704C297.68 21.1704 298.51 21.2904 299.27 21.5504C300.03 21.8004 300.7 22.1604 301.28 22.6204C301.86 23.0804 302.36 23.6304 302.77 24.2704C303.18 24.9104 303.48 25.6004 303.68 26.3704L309.28 25.0304C308.9 23.6504 308.34 22.4204 307.58 21.3204C306.82 20.2204 305.89 19.2904 304.79 18.5304C303.69 17.7704 302.46 17.1904 301.11 16.7904C299.75 16.3904 298.3 16.1904 296.74 16.1904C293.92 16.1904 291.46 16.8304 289.37 18.1204C287.28 19.4104 285.66 21.2104 284.49 23.5404C283.33 25.8704 282.75 28.5904 282.75 31.7004C282.75 34.8104 283.33 37.4704 284.49 39.7904C285.65 42.1104 287.28 43.9104 289.37 45.2004C291.46 46.4904 293.91 47.1304 296.74 47.1304C298.31 47.1304 299.78 46.9304 301.16 46.5104C302.54 46.0904 303.77 45.5004 304.87 44.7104C305.97 43.9304 306.9 42.9704 307.67 41.8604C308.44 40.7404 309 39.4804 309.36 38.0704L303.79 36.7304C303.61 37.5304 303.32 38.2704 302.91 38.9404" fill="white"/>
<path d="M335.22 17.4796C333.69 16.6196 331.91 16.1896 329.88 16.1896C327.52 16.1896 325.51 16.8096 323.85 18.0396C322.63 18.9496 321.62 20.2496 320.82 21.9396V6.59961H314.98V46.5096H320.87V28.7796C320.87 27.1896 321.17 25.8396 321.78 24.7396C322.39 23.6296 323.22 22.7896 324.27 22.2096C325.32 21.6296 326.51 21.3396 327.83 21.3396C329.79 21.3396 331.34 21.9496 332.46 23.1596C333.58 24.3696 334.15 26.0596 334.15 28.2196V46.5096H340.04V27.4896C340.04 25.0096 339.61 22.9296 338.77 21.2596C337.92 19.5896 336.73 18.3296 335.21 17.4696" fill="white"/>
<path d="M352.6 25.4504C353.22 24.1404 354.11 23.0804 355.29 22.2804C356.47 21.4804 357.89 21.0704 359.55 21.0704C361.21 21.0704 362.63 21.4604 363.74 22.2504C364.86 23.0404 365.7 24.1304 366.27 25.5304C366.69 26.5504 366.95 27.6904 367.06 28.9404H351.7C351.79 27.6904 352.08 26.5304 352.59 25.4404M368.78 19.6704C367.51 18.4704 366.08 17.5904 364.49 17.0304C362.9 16.4704 361.25 16.1904 359.53 16.1904C356.74 16.1904 354.32 16.8504 352.24 18.1604C350.17 19.4704 348.57 21.3004 347.43 23.6404C346.3 25.9804 345.73 28.6804 345.73 31.7604C345.73 34.8404 346.31 37.5704 347.46 39.8804C348.61 42.1804 350.26 43.9704 352.4 45.2404C354.54 46.5104 357.09 47.1404 360.03 47.1404C362.17 47.1404 364.09 46.8104 365.77 46.1604C367.46 45.5104 368.87 44.5904 370 43.4204C371.13 42.2404 371.94 40.8804 372.42 39.3504L366.88 38.0404C366.54 38.9704 366.04 39.7504 365.39 40.3804C364.74 41.0104 363.97 41.4904 363.07 41.8004C362.18 42.1104 361.18 42.2704 360.07 42.2704C358.39 42.2704 356.92 41.9104 355.65 41.1904C354.38 40.4704 353.39 39.4004 352.69 37.9804C352.05 36.7004 351.71 35.1604 351.65 33.3604H372.88V31.2704C372.88 28.5604 372.51 26.2504 371.77 24.3504C371.03 22.4504 370.03 20.9004 368.76 19.7004" fill="white"/>
<path d="M393.48 29.7204L388.66 28.6504C387.02 28.2704 385.83 27.7804 385.11 27.1604C384.39 26.5404 384.03 25.7404 384.03 24.7404C384.03 23.6204 384.57 22.6904 385.66 21.9504C386.75 21.2204 388.11 20.8504 389.73 20.8504C391.5 20.8504 392.85 21.2504 393.77 22.0404C394.7 22.8304 395.35 23.7604 395.73 24.8104L401.01 23.6604C400.6 22.1804 399.92 20.8704 398.96 19.7504C398 18.6304 396.76 17.7504 395.22 17.1304C393.68 16.5104 391.84 16.1904 389.67 16.1904C387.4 16.1904 385.4 16.5604 383.67 17.3004C381.94 18.0404 380.57 19.0804 379.57 20.4204C378.57 21.7604 378.07 23.3204 378.07 25.1104C378.07 27.2504 378.75 29.0104 380.11 30.3904C381.47 31.7704 383.54 32.7704 386.32 33.3904L391.36 34.5404C392.79 34.8404 393.85 35.3104 394.53 35.9304C395.22 36.5504 395.56 37.3504 395.56 38.3104C395.56 39.4204 395 40.3704 393.87 41.1604C392.75 41.9504 391.23 42.3504 389.34 42.3504C387.61 42.3504 386.18 41.9704 385.05 41.2304C383.92 40.4904 383.16 39.3304 382.75 37.7804L377.21 38.9304C377.57 40.7004 378.29 42.1904 379.37 43.4204C380.45 44.6404 381.83 45.5704 383.52 46.1904C385.21 46.8104 387.13 47.1304 389.29 47.1304C391.74 47.1304 393.88 46.7304 395.73 45.9404C397.58 45.1404 399.03 44.0504 400.07 42.6404C401.11 41.2404 401.64 39.6304 401.64 37.8104C401.64 35.7204 400.97 34.0104 399.63 32.6704C398.29 31.3304 396.24 30.3504 393.47 29.7204" fill="white"/>
<path d="M418.59 41.8002C418.09 41.8702 417.69 41.9102 417.38 41.9102C416.22 41.9102 415.38 41.6302 414.87 41.0702C414.36 40.5102 414.11 39.6302 414.11 38.4302V21.3702H420.08V16.5702H414.11V9.4502H408.22V16.5702H403.85V21.3702H408.22V38.9102C408.22 41.4502 408.97 43.4202 410.47 44.8202C411.97 46.2202 414.08 46.9202 416.79 46.9202C417.49 46.9202 418.19 46.8702 418.91 46.7702C419.62 46.6702 420.29 46.5102 420.92 46.3002L419.87 41.5902C419.51 41.6602 419.08 41.7302 418.58 41.8002" fill="white"/>
<path d="M438.74 16.1396C436.99 16.1396 435.43 16.5996 434.05 17.5296C432.67 18.4596 431.71 19.7396 431.16 21.3896H430.84V16.5696H425.14V46.5196H431.03V28.3296C431.03 27.0096 431.33 25.8396 431.94 24.8396C432.55 23.8296 433.4 23.0396 434.49 22.4696C435.58 21.8996 436.8 21.6096 438.16 21.6096C438.78 21.6096 439.4 21.6496 440.01 21.7196C440.62 21.7896 441.03 21.8596 441.24 21.9296V16.3096C440.92 16.2596 440.52 16.2196 440.03 16.1896C439.55 16.1596 439.12 16.1496 438.74 16.1496" fill="white"/>
<path d="M462.64 35.7202C462.64 36.8802 462.34 37.9802 461.73 39.0102C461.12 40.0502 460.25 40.8802 459.11 41.5002C457.97 42.1302 456.59 42.4402 454.99 42.4402C453.88 42.4402 452.91 42.2802 452.07 41.9602C451.23 41.6402 450.56 41.1602 450.07 40.5102C449.58 39.8702 449.33 39.0702 449.33 38.1302C449.33 37.0902 449.6 36.2602 450.15 35.6402C450.7 35.0202 451.43 34.5302 452.35 34.1902C453.27 33.8502 454.28 33.6102 455.39 33.4702C455.85 33.4202 456.44 33.3502 457.16 33.2602C457.87 33.1702 458.61 33.0602 459.38 32.9302C460.15 32.8002 460.83 32.6402 461.43 32.4702C462.03 32.3002 462.44 32.1102 462.65 31.8902V35.7202H462.64ZM467.38 21.3402C466.63 19.9802 465.66 18.9302 464.46 18.1802C463.26 17.4302 461.99 16.9102 460.63 16.6302C459.27 16.3402 457.99 16.2002 456.77 16.2002C455.02 16.2002 453.32 16.4502 451.68 16.9502C450.04 17.4502 448.58 18.2402 447.31 19.3302C446.04 20.4202 445.07 21.8602 444.39 23.6402L449.94 25.0902C450.22 24.4102 450.66 23.7602 451.24 23.1302C451.82 22.5102 452.58 21.9902 453.52 21.5902C454.46 21.1902 455.58 20.9902 456.88 20.9902C458.18 20.9902 459.21 21.2002 460.05 21.6202C460.9 22.0402 461.54 22.6302 461.97 23.4002C462.4 24.1702 462.61 25.1102 462.61 26.2402V26.4002C462.61 27.1002 462.35 27.6002 461.82 27.9102C461.29 28.2202 460.48 28.4502 459.37 28.5802C458.26 28.7102 456.83 28.8902 455.06 29.1002C453.65 29.2602 452.26 29.5002 450.89 29.8202C449.52 30.1402 448.28 30.6202 447.17 31.2702C446.05 31.9102 445.17 32.7802 444.52 33.8702C443.87 34.9602 443.54 36.3502 443.54 38.0502C443.54 40.0102 443.99 41.6702 444.88 43.0302C445.77 44.3902 446.99 45.4202 448.52 46.1202C450.06 46.8302 451.77 47.1802 453.66 47.1802C455.28 47.1802 456.68 46.9402 457.85 46.4702C459.02 46.0002 459.99 45.3902 460.76 44.6602C461.53 43.9302 462.11 43.1802 462.5 42.4102H462.79V46.5102H468.5V26.6302C468.5 24.4502 468.12 22.6802 467.38 21.3302" fill="white"/>
</g>
<defs>
<clipPath id="clip0_385_257">
<rect width="473.32" height="80.25" fill="white"/>
</clipPath>
</defs>
</svg>
