<svg width="301" height="62" viewBox="0 0 301 62" fill="none" xmlns="http://www.w3.org/2000/svg">
<g clip-path="url(#clip0_2299_820)">
<path d="M214.794 49.6158L218.068 47.701C218.761 49.5063 220.12 50.671 222.534 50.671C224.838 50.671 225.641 49.6993 225.641 48.6153C225.641 47.1754 224.337 46.6184 221.454 45.7876C218.484 44.9281 215.599 43.6771 215.599 39.9899C215.599 36.326 218.651 34.2183 221.98 34.2183C225.17 34.2183 227.613 35.8538 228.915 38.5734L225.699 40.432C225.003 38.9607 223.949 37.9356 221.98 37.9356C220.37 37.9356 219.427 38.7691 219.427 39.8777C219.427 41.0712 220.177 41.709 223.119 42.5972C226.197 43.569 229.471 44.5941 229.471 48.5605C229.471 52.1971 226.558 54.4157 222.423 54.4157C218.456 54.4157 215.85 52.5009 214.794 49.6158ZM212.685 50.3658V54.027H200.811V34.607H212.685V38.2681H204.64V42.4015H211.993V46.0093H204.64V50.3658H212.685ZM187.328 43.9276H191.266C192.71 43.9276 193.902 42.652 193.902 41.0424C193.902 39.4329 192.71 38.1847 191.266 38.1847H187.328V43.9276ZM190.24 47.2849H187.328V54.027H183.497V34.607H191.266C194.845 34.607 197.73 37.4921 197.73 41.0424C197.73 43.4855 196.204 45.6754 193.985 46.7046L198.285 54.027H194.152L190.24 47.2849ZM179.614 54.027H175.786V34.6056H179.614V54.027ZM168.988 44.3163C168.988 40.5702 166.241 37.9356 162.717 37.9356C159.192 37.9356 156.448 40.5702 156.448 44.3163C156.448 48.035 159.192 50.671 162.717 50.671C166.241 50.671 168.988 48.035 168.988 44.3163ZM152.646 44.3163C152.646 38.6308 157.115 34.2183 162.717 34.2183C168.321 34.2183 172.816 38.6308 172.816 44.3163C172.816 49.9771 168.321 54.4157 162.717 54.4157C157.115 54.4157 152.646 49.9771 152.646 44.3163ZM152.231 38.2681H146.986V54.027H143.158V38.2681H137.941V34.607H152.231V38.2681ZM135.501 54.027H131.672V34.6056H135.501V54.027ZM118.19 43.9276H122.127C123.57 43.9276 124.763 42.652 124.763 41.0424C124.763 39.4329 123.57 38.1847 122.127 38.1847H118.19V43.9276ZM121.101 47.2849H118.19V54.027H114.357V34.607H122.127C125.705 34.607 128.592 37.4921 128.592 41.0424C128.592 43.4855 127.065 45.6754 124.845 46.7046L129.146 54.027H125.012L121.101 47.2849ZM100.875 43.9276H104.815C106.258 43.9276 107.451 42.652 107.451 41.0424C107.451 39.4329 106.258 38.1847 104.815 38.1847H100.875V43.9276ZM103.79 47.2849H100.875V54.027H97.0465V34.607H104.815C108.394 34.607 111.279 37.4921 111.279 41.0424C111.279 43.4855 109.753 45.6754 107.535 46.7046L111.835 54.027H107.702L103.79 47.2849ZM93.9396 50.3658V54.027H82.0637V34.607H93.9396V38.2681H85.8918V42.4015H93.2443V46.0093H85.8918V50.3658H93.9396ZM79.6493 38.2681H74.406V54.027H70.5778V38.2681H65.3618V34.607H79.6493V38.2681Z" fill="white"/>
<path d="M140.341 16.4503C140.341 10.9962 135.95 6.60547 130.496 6.60547C125.045 6.60547 120.654 10.9962 120.654 16.4503C120.654 21.9044 125.045 26.2924 130.496 26.2924C132.178 26.2924 133.762 25.8681 135.137 25.1386L134.088 24.1025C133.005 24.6158 131.794 24.9046 130.496 24.9046C125.834 24.9046 122.099 21.1407 122.099 16.4503C122.099 11.7599 125.834 7.99604 130.496 7.99604C135.161 7.99604 138.896 11.7599 138.896 16.4503C138.896 18.8496 137.914 21.0025 136.332 22.5573L131.947 18.2734L130.968 19.1739L139.841 27.969L140.823 27.0684L137.341 23.54C139.195 21.7402 140.341 19.2314 140.341 16.4503ZM174.122 24.6308V25.9926H163.27V6.90795H174.122V8.26977H164.716V15.6866H173.441V17.0498H164.716V24.6308H174.122ZM144.266 19.6119V6.90795H145.712V19.6119C145.712 22.7215 147.647 24.9046 151.245 24.9046C154.873 24.9046 156.809 22.7215 156.809 19.6119V6.90795H158.254V19.6119C158.254 23.6495 155.447 26.2951 151.245 26.2951C147.047 26.2951 144.266 23.6495 144.266 19.6119ZM116.456 6.90795V25.9926H115.174L103.913 9.57958V25.9926H102.467V6.90795H103.724L115.011 23.321V6.90795H116.456ZM95.2434 19.7762L90.9896 8.679L86.7371 19.7762H95.2434ZM95.7607 21.1407H86.1896L84.3351 25.9926H82.809L90.2272 6.90795H91.7533L99.1413 25.9926H97.6153L95.7607 21.1407ZM79.2395 20.7862C79.2395 18.6593 77.5492 16.9403 75.4757 16.9403H68.6857V24.6308H75.4757C77.5492 24.6308 79.2395 22.9118 79.2395 20.7862ZM68.6857 8.26977V15.5785H74.8475C76.8115 15.5785 78.4211 13.9429 78.4211 11.9241C78.4211 9.90533 76.8115 8.26977 74.8475 8.26977H68.6857ZM80.6848 20.7862C80.6848 23.6755 78.3663 25.9926 75.4757 25.9926H67.2432V6.90795H74.8475C77.63 6.90795 79.8664 9.17035 79.8664 11.9241C79.8664 13.7787 78.8851 15.3047 77.4137 16.0958C79.3203 16.8308 80.6848 18.6046 80.6848 20.7862ZM229.252 22.4095C229.252 24.6514 227.287 26.2896 224.362 26.2896C221.63 26.2896 219.828 25.0058 219.171 23.258L220.345 22.5737C220.838 24.0505 222.312 24.9798 224.362 24.9798C226.276 24.9798 227.888 24.1313 227.888 22.4095C227.888 18.6922 219.609 20.8259 219.609 15.9056C219.609 13.7472 221.466 12.0254 224.253 12.0254C226.466 12.0254 228.162 13.093 228.898 14.76L227.75 15.4142C227.177 13.9949 225.755 13.3379 224.253 13.3379C222.476 13.3379 220.973 14.2673 220.973 15.9056C220.973 19.5681 229.252 17.4084 229.252 22.4095ZM203.634 18.5279H214.619C214.316 15.1952 211.967 13.3379 209.29 13.3379C206.175 13.3379 203.906 15.4977 203.634 18.5279ZM216.041 19.2136C216.041 19.4326 216.012 19.6516 216.012 19.8692H203.634C203.961 22.9556 206.311 24.9798 209.429 24.9798C211.668 24.9798 213.361 23.941 214.155 22.493L215.356 23.2006C214.235 25.0606 212.106 26.2896 209.4 26.2896C205.191 26.2896 202.214 23.2841 202.214 19.1589C202.214 15.1432 205.11 12.0254 209.29 12.0254C213.444 12.0254 216.041 15.469 216.041 19.2136ZM196.612 19.1589C196.612 15.9056 194.072 13.3379 190.82 13.3379C187.57 13.3379 185.028 15.9056 185.028 19.1589C185.028 22.4095 187.57 24.9798 190.82 24.9798C194.072 24.9798 196.612 22.4095 196.612 19.1589ZM197.98 6.86141V25.9899H196.612V22.8201C195.491 24.9251 193.388 26.2896 190.739 26.2896C186.829 26.2896 183.661 23.2006 183.661 19.1589C183.661 15.1145 186.829 12.0254 190.739 12.0254C193.388 12.0254 195.491 13.3927 196.612 15.4977V6.86141H197.98Z" fill="white"/>
<path d="M25.7637 54.0186L9.47519 44.9416V52.1695L25.7637 61.2451L51.5289 46.8851V39.6503L25.7637 54.0186ZM45.2166 39.5531L51.5289 36.0357V14.3587L25.7637 0L19.2598 3.6256L45.2166 18.0678V39.5531ZM6.31631 50.4094L-0.00146484 46.8851V14.3587L16.0174 5.43909L22.5008 9.05374L6.31083 18.0678L6.31631 50.4094Z" fill="white"/>
<path d="M242.39 7.37939H243.14V54.0263H242.39V7.37939Z" fill="white"/>
<path d="M282.267 25.6849C282.466 25.7971 282.71 25.7684 282.931 25.5932L283.525 25.1279C283.646 25.2373 283.687 25.2579 283.757 25.2031L283.765 25.1949L283.39 24.7241L283.314 24.7843L283.317 24.7884C283.332 24.8432 283.38 24.9239 283.416 24.9896L282.835 25.4481C282.59 25.6411 282.385 25.6356 282.226 25.4317C282.048 25.2086 282.083 25.0102 282.335 24.8131L282.916 24.3546C282.971 24.4066 283.038 24.4682 283.086 24.4969L283.09 24.5024L283.168 24.4422L282.767 23.9316L282.76 23.9399C282.689 23.9946 282.7 24.0384 282.778 24.1821L282.184 24.6488C282.014 24.7843 281.924 24.9239 281.91 25.0731C281.901 25.2155 281.955 25.3619 282.083 25.5234C282.137 25.5905 282.2 25.6452 282.267 25.6849Z" fill="white"/>
<g clip-path="url(#clip1_2299_820)">
<path d="M249.644 7.22656H296.273V53.8557H249.644V7.22656Z" fill="white"/>
<path d="M255.587 32.4509C254.543 32.4509 254.076 33.3105 254.076 34.378C254.076 35.3128 254.488 36.2558 255.587 36.2558C256.34 36.2558 256.754 35.759 256.847 34.998H258.033C257.897 36.5036 256.868 37.2878 255.587 37.2878C253.871 37.2878 252.855 36.0108 252.855 34.378C252.855 32.6535 253.923 31.4121 255.587 31.4121C256.865 31.4121 257.845 32.1881 257.986 33.4323H256.801C256.717 32.8697 256.181 32.4509 255.587 32.4509Z" fill="black"/>
<path d="M261.099 35.5885C261.099 36.292 260.71 36.5233 260.202 36.5233C259.856 36.5233 259.526 36.4247 259.526 36.0045C259.526 35.7212 259.663 35.4995 260.179 35.4064C260.268 35.39 260.357 35.3777 260.445 35.3667C260.657 35.3462 260.987 35.2832 261.099 35.1724V35.5885ZM262.206 36.2577V34.1404C262.206 33.0852 261.062 32.9839 260.438 32.9839C259.584 32.9839 258.609 33.2782 258.543 34.3457H259.651C259.694 33.8776 259.974 33.7339 260.383 33.7339C260.768 33.7339 261.099 33.8119 261.099 34.2841C261.112 34.5496 260.906 34.692 260.273 34.7549C260.112 34.77 259.948 34.7919 259.783 34.8179C259.135 34.9192 258.422 35.1122 258.422 36.0524C258.422 36.8408 258.964 37.2637 259.792 37.2637C260.216 37.2637 260.784 37.1611 261.145 36.7683C261.151 36.8641 261.188 37.0653 261.223 37.1611H262.344C262.227 36.9708 262.206 36.552 262.206 36.2577Z" fill="black"/>
<path d="M264.096 37.162H262.991V33.0971H264.096V37.162ZM262.991 31.5464H264.096V32.4661H262.991V31.5464Z" fill="black"/>
<path d="M266.545 36.5242C266.837 36.5242 267.269 36.4038 267.269 36.0055C267.269 35.9097 267.235 35.829 267.165 35.7605C266.771 35.3814 265.504 35.4539 264.979 34.9202C264.831 34.7682 264.74 34.5657 264.74 34.2892C264.74 33.4488 265.337 32.9849 266.49 32.9849C267.246 32.9849 268.178 33.2134 268.267 34.2824H267.214C267.199 33.8553 266.857 33.7322 266.459 33.7322C266.184 33.7322 265.844 33.7896 265.844 34.1099C265.844 34.3754 266.124 34.5055 266.64 34.6122C266.79 34.6437 266.943 34.6779 267.097 34.7135C267.733 34.8599 268.376 35.0967 268.376 35.855C268.376 36.6885 267.785 37.2633 266.537 37.2633C265.53 37.2633 264.682 36.8705 264.647 35.8399H265.696C265.696 36.2929 266.077 36.5242 266.545 36.5242Z" fill="black"/>
<path d="M263.599 44.1497C263.89 44.1497 264.323 44.0293 264.323 43.631C264.323 43.5352 264.288 43.4544 264.219 43.386C263.824 43.0069 262.557 43.0822 262.033 42.5456C261.885 42.3937 261.793 42.1939 261.793 41.9147C261.793 41.0743 262.39 40.6104 263.544 40.6104C264.299 40.6104 265.231 40.8417 265.32 41.9078H264.268C264.253 41.4808 263.911 41.3576 263.512 41.3576C263.237 41.3576 262.898 41.4151 262.898 41.7354C262.898 42.0009 263.177 42.1309 263.693 42.2377C263.844 42.2692 263.997 42.3034 264.15 42.3417C264.787 42.4854 265.43 42.7222 265.43 43.4804C265.43 44.314 264.839 44.8888 263.59 44.8888C262.583 44.8888 261.736 44.496 261.7 43.4654H262.75C262.75 43.9184 263.129 44.1497 263.599 44.1497Z" fill="black"/>
<path d="M290.931 44.1497C291.223 44.1497 291.655 44.0293 291.655 43.631C291.655 43.5352 291.621 43.4544 291.551 43.386C291.157 43.0069 289.89 43.0822 289.366 42.5456C289.218 42.3937 289.126 42.1939 289.126 41.9147C289.126 41.0743 289.723 40.6104 290.877 40.6104C291.632 40.6104 292.564 40.8417 292.653 41.9078H291.601C291.586 41.4808 291.246 41.3576 290.845 41.3576C290.57 41.3576 290.231 41.4151 290.231 41.7354C290.231 42.0009 290.51 42.1309 291.026 42.2377C291.176 42.2692 291.33 42.3034 291.483 42.3417C292.119 42.4854 292.76 42.7222 292.76 43.4804C292.76 44.314 292.171 44.8888 290.923 44.8888C289.916 44.8888 289.069 44.496 289.033 43.4654H290.083C290.083 43.9184 290.463 44.1497 290.931 44.1497Z" fill="black"/>
<path d="M270.671 36.5242C270.962 36.5242 271.395 36.4038 271.395 36.0055C271.395 35.9097 271.361 35.829 271.291 35.7605C270.898 35.3814 269.629 35.4539 269.105 34.9202C268.957 34.7682 268.863 34.5657 268.863 34.2892C268.863 33.4488 269.462 32.9849 270.616 32.9849C271.372 32.9849 272.304 33.2134 272.393 34.2824H271.34C271.325 33.8553 270.983 33.7322 270.585 33.7322C270.31 33.7322 269.97 33.7896 269.97 34.1099C269.97 34.3754 270.249 34.5055 270.765 34.6122C270.916 34.6437 271.066 34.6779 271.222 34.7135C271.859 34.8599 272.499 35.0967 272.499 35.855C272.499 36.6885 271.911 37.2633 270.663 37.2633C269.655 37.2633 268.808 36.8705 268.77 35.8399H269.822C269.822 36.2929 270.203 36.5242 270.671 36.5242Z" fill="black"/>
<path d="M274.925 33.8266C274.344 33.8266 274.036 34.2126 274.005 34.6916H275.805C275.698 34.1181 275.458 33.8266 274.925 33.8266ZM274.994 36.4312C275.44 36.4312 275.795 36.1547 275.868 35.9029H276.839C276.494 36.9827 275.743 37.2647 274.956 37.2647C273.62 37.2647 272.902 36.3244 272.902 35.1309C272.902 33.8964 273.753 32.9849 274.956 32.9849C276.41 32.9849 276.984 34.2564 276.909 35.3992H274.005C274.039 36.1451 274.393 36.4312 274.994 36.4312Z" fill="black"/>
<path d="M259.361 41.4526C258.781 41.4526 258.473 41.8385 258.441 42.3176H260.241C260.134 41.7441 259.895 41.4526 259.361 41.4526ZM259.431 44.0571C259.877 44.0571 260.232 43.7807 260.304 43.5288H261.276C260.931 44.6087 260.18 44.8907 259.393 44.8907C258.057 44.8907 257.337 43.9504 257.337 42.7569C257.337 41.5224 258.19 40.6108 259.393 40.6108C260.846 40.6108 261.421 41.8823 261.346 43.0252H258.441C258.476 43.7711 258.83 44.0571 259.431 44.0571Z" fill="black"/>
<path d="M254.884 41.4525C254.201 41.4525 253.91 42.0232 253.91 42.75C253.91 43.3672 254.181 44.057 254.884 44.057C255.614 44.057 255.835 43.4083 255.835 42.7418C255.835 42.0848 255.6 41.4525 254.884 41.4525ZM255.835 44.2678C255.574 44.7099 255.14 44.8906 254.61 44.8906C253.378 44.8906 252.806 43.8435 252.806 42.7185C252.806 41.5332 253.477 40.6107 254.587 40.6107C255.059 40.6107 255.527 40.8147 255.781 41.2184H255.796V39.1709H256.9V44.7865H255.85V44.2678H255.835Z" fill="black"/>
<path d="M269.889 43.7493C270.722 43.7493 271.274 43.1731 271.274 42.0672C271.274 41.0352 270.948 40.2099 269.67 40.2099H268.798V43.7493H269.889ZM269.975 39.1738C271.381 39.1738 272.496 40.0566 272.496 41.9467C272.496 43.6288 271.62 44.7881 269.975 44.7881H267.576V39.1738H269.975Z" fill="black"/>
<path d="M274.928 41.4526C274.348 41.4526 274.04 41.8385 274.008 42.3176H275.808C275.701 41.7441 275.462 41.4526 274.928 41.4526ZM274.998 44.0571C275.444 44.0571 275.798 43.7807 275.871 43.5288H276.843C276.498 44.6087 275.746 44.8907 274.959 44.8907C273.623 44.8907 272.904 43.9504 272.904 42.7569C272.904 41.5224 273.754 40.6108 274.959 40.6108C276.413 40.6108 276.988 41.8823 276.912 43.0252H274.008C274.042 43.7711 274.397 44.0571 274.998 44.0571Z" fill="black"/>
<path d="M275.157 38.6147L274.332 40.0047L275.102 40.005L276.37 38.6138L275.157 38.6147Z" fill="black"/>
<path d="M280.354 42.7656C280.354 42.0211 280.034 41.4531 279.388 41.4531C278.771 41.4531 278.433 41.9458 278.433 42.7656C278.433 43.4746 278.711 44.0549 279.396 44.0549C280.075 44.0549 280.354 43.4951 280.354 42.7656ZM278.416 40.7208V41.2395H278.433C278.706 40.7893 279.146 40.6113 279.63 40.6113C280.94 40.6113 281.459 41.7186 281.459 42.7971C281.459 43.9043 280.862 44.8884 279.693 44.8884C279.172 44.8884 278.745 44.6667 278.485 44.2835H278.468V46.2119H277.364V40.7208H278.416Z" fill="black"/>
<path d="M283.968 44.0557C284.712 44.0557 284.949 43.4303 284.949 42.7583C284.949 42.1382 284.746 41.4512 283.968 41.4512C283.278 41.4512 282.993 42.0192 282.993 42.7583C282.993 43.4754 283.261 44.0557 283.968 44.0557ZM284.481 39.1025L285.338 40.2194H284.426L283.944 39.5816L283.446 40.2194H282.613L283.471 39.1025H284.481ZM283.968 40.6094C285.251 40.6094 286.053 41.4744 286.053 42.7583C286.053 43.9859 285.303 44.8893 283.968 44.8893C282.785 44.8893 281.89 44.1338 281.89 42.7583C281.89 41.4457 282.722 40.6094 283.968 40.6094Z" fill="black"/>
<path d="M288.777 40.7214V41.4687H287.966V43.482C287.966 43.8571 288.064 43.9529 288.433 43.9529C288.552 43.9529 288.675 43.9433 288.777 43.9228V44.7864C288.581 44.8206 288.307 44.8261 288.131 44.8261C287.394 44.8261 286.859 44.6536 286.859 43.868V41.4687H286.193V40.7214H286.859V39.502H287.966V40.7214H288.777Z" fill="black"/>
<path d="M252.962 48.9608V48.9526C252.962 48.1191 253.593 47.417 254.478 47.417C254.991 47.417 255.307 47.5593 255.608 47.8207L255.281 48.2136C255.054 48.0178 254.832 47.896 254.457 47.896C253.916 47.896 253.504 48.3751 253.504 48.9431V48.9526C253.504 49.5644 253.903 50.0134 254.504 50.0134C254.78 50.0134 255.033 49.9244 255.212 49.7889V49.2318H254.462V48.7788H255.712V50.0257C255.423 50.2761 255.007 50.4897 254.486 50.4897C253.566 50.4897 252.962 49.8258 252.962 48.9608Z" fill="black"/>
<path d="M258.402 48.9396C258.771 48.9396 259.005 48.7439 259.005 48.4428V48.4345C259.005 48.117 258.78 47.9418 258.396 47.9418H257.646V48.9396H258.402ZM257.128 47.4683H258.442C258.808 47.4683 259.1 47.5778 259.287 47.7653C259.443 47.9268 259.532 48.1458 259.532 48.4058V48.414C259.532 48.8999 259.244 49.1942 258.829 49.3146L259.623 50.4369H259.016L258.292 49.4036H257.646V50.4369H257.128V47.4683Z" fill="black"/>
<path d="M263.103 48.9608V48.9526C263.103 48.3751 262.687 47.896 262.102 47.896C261.519 47.896 261.11 48.3668 261.11 48.9431V48.9526C261.11 49.5288 261.527 50.0106 262.11 50.0106C262.696 50.0106 263.103 49.5384 263.103 48.9608ZM260.568 48.9608V48.9526C260.568 48.1164 261.207 47.417 262.11 47.417C263.014 47.417 263.645 48.1068 263.645 48.9431V48.9526C263.645 49.7889 263.007 50.4897 262.102 50.4897C261.199 50.4897 260.568 49.7971 260.568 48.9608Z" fill="black"/>
<path d="M264.758 49.1776V47.4668H265.274V49.1571C265.274 49.7087 265.557 50.0057 266.019 50.0057C266.477 50.0057 266.758 49.7251 266.758 49.1776V47.4668H267.274V49.1516C267.274 50.0399 266.78 50.4847 266.01 50.4847C265.245 50.4847 264.758 50.0399 264.758 49.1776Z" fill="black"/>
<path d="M269.646 49.0116C270.036 49.0116 270.281 48.7899 270.281 48.4806V48.4724C270.281 48.1261 270.032 47.9413 269.646 47.9413H269.044V49.0116H269.646ZM268.529 47.4678H269.687C270.373 47.4678 270.805 47.8606 270.805 48.4601V48.4696C270.805 49.1334 270.277 49.4825 269.631 49.4825H269.044V50.4392H268.529V47.4678Z" fill="black"/>
<path d="M271.814 47.4668H273.994V47.9335H272.33V48.7068H273.807V49.1722H272.33V49.9728H274.015V50.4382H271.814V47.4668Z" fill="black"/>
<path d="M283.862 22.784C284.013 22.9797 284.172 23.1617 284.336 23.3287C284.521 23.248 284.774 23.2137 285.112 23.274C284.682 22.9564 284.292 22.5472 283.951 22.0517C283.767 21.7862 283.602 21.5002 283.459 21.1977C283.19 20.6064 282.885 20.1589 282.565 19.8537C282.063 19.3828 281.43 19.1775 280.747 19.7004C281.006 19.9454 281.596 20.2218 282.045 19.7551C282.351 19.9344 282.648 20.2916 282.826 20.8227C282.881 20.9869 282.943 21.1512 283.011 21.3099C282.587 21.054 282.126 21.0964 281.844 21.4605C282.037 21.5727 282.435 21.6562 282.636 21.3099C282.685 21.3209 282.789 21.3674 282.815 21.3797C283.179 21.5727 283.285 21.919 283.493 22.2475C283.34 22.268 283.19 22.3392 283.063 22.4637C283.389 22.3679 283.628 22.476 283.862 22.784Z" fill="black"/>
<path d="M282.841 14.769C282.945 15.1234 282.861 15.4177 282.807 15.5532C282.694 15.831 282.422 16.1226 282.158 16.3032C281.742 15.9022 281.213 16.2143 280.934 16.4825C281.427 16.8452 282.122 16.67 282.625 16.1965C282.567 16.4415 282.518 16.6906 282.481 16.9465C282.341 16.8658 282.169 16.837 281.984 16.8835C282.265 16.9492 282.445 17.1463 282.426 17.4543C282.425 17.4912 282.411 17.6678 282.408 17.7089C282.267 17.5665 282.042 17.4023 281.755 17.316C281.479 17.2202 281.111 17.2408 280.788 17.3995C281.007 17.8156 281.658 17.8635 282.044 17.6103C282.209 17.7485 282.399 17.9881 282.399 18.3453C282.399 18.7614 282.213 19.0529 281.75 19.1473C282.036 19.2171 282.267 19.1624 282.44 19.0214C282.458 19.2048 282.484 19.3868 282.512 19.5634C282.703 19.7098 282.887 19.9069 283.063 20.1519C282.856 19.4471 282.746 18.6916 282.746 17.9155C282.746 17.0615 282.893 16.3867 283.005 15.8831C283.094 15.4985 283.112 15.1618 283.065 14.8839C282.956 14.2119 282.503 13.9272 281.916 13.8574C281.953 14.2475 282.209 14.8524 282.841 14.769Z" fill="black"/>
<path d="M283.196 14.6057C283.24 14.7412 283.266 14.8917 283.274 15.0615C283.346 14.8739 283.427 14.6919 283.516 14.514C284.222 13.1809 283.928 12.4706 283.1 12.0586C282.943 12.4309 282.902 13.1658 283.628 13.4122C283.6 13.6736 283.505 14.0144 283.285 14.4305C283.253 14.488 283.225 14.5482 283.196 14.6057Z" fill="black"/>
<path d="M283.048 13.8262C283.088 13.5429 282.901 13.1747 282.496 13.1597C282.405 13.5183 282.707 13.8344 283.048 13.8262Z" fill="black"/>
<path d="M287.395 26.2148L286.653 25.7826C286.653 25.7826 286.738 25.9715 286.738 26.2137C286.739 26.4567 286.654 26.6462 286.654 26.6462L287.395 26.2148Z" fill="black"/>
<path d="M287.455 26.2749L287.023 27.0163C287.023 27.0163 287.211 26.9315 287.454 26.9317C287.697 26.9308 287.886 27.016 287.886 27.016L287.455 26.2749Z" fill="black"/>
<path d="M287.514 26.2139L288.256 26.6461C288.256 26.6461 288.171 26.4573 288.171 26.215C288.17 25.9721 288.255 25.7825 288.255 25.7825L287.514 26.2139Z" fill="black"/>
<path d="M287.024 25.4121L287.456 26.1535L287.887 25.4124C287.887 25.4124 287.698 25.4976 287.455 25.4978C287.213 25.4981 287.024 25.4121 287.024 25.4121Z" fill="black"/>
<path d="M284.05 23.3528C283.914 23.2542 283.781 23.1858 283.649 23.1571C283.623 22.8245 283.253 22.6726 282.643 22.7506C282.711 22.9832 282.919 23.1571 283.193 23.2488C282.985 23.376 282.766 23.6293 282.526 24.0535C283.098 24.2041 283.718 23.9002 284.05 23.3528Z" fill="black"/>
<path d="M282.867 21.945C282.417 21.8492 281.956 22.0121 281.76 22.3693C282.261 22.565 282.821 22.3611 282.867 21.945Z" fill="black"/>
<path d="M282.172 20.7614C282.278 20.4489 282.024 20.2639 281.513 20.2658C281.529 20.3602 281.576 20.4491 281.646 20.5219C281.466 20.5584 281.249 20.6986 280.973 20.9774C281.344 21.1857 281.834 21.0842 282.172 20.7614Z" fill="black"/>
<path d="M282.095 15.1138C282.049 15.0193 281.994 14.9468 281.926 14.8975C282.009 14.6991 281.845 14.5143 281.481 14.3979C281.449 14.5458 281.515 14.7018 281.642 14.8277C281.489 14.8428 281.291 14.929 281.028 15.1056C281.308 15.3451 281.746 15.3382 282.095 15.1138Z" fill="black"/>
<path d="M285.288 25.3442C285.038 25.0937 284.624 25.1717 284.455 25.4359C284.671 25.607 285.069 25.6494 285.288 25.3442Z" fill="black"/>
<path d="M282.322 15.629C282.096 15.3895 281.71 15.447 281.546 15.6865C281.742 15.8535 282.111 15.9055 282.322 15.629Z" fill="black"/>
<path d="M281.304 18.8532C281.525 18.9654 281.881 18.9339 282.015 18.6314C281.746 18.4549 281.398 18.5931 281.304 18.8532Z" fill="black"/>
<path d="M281.878 23.3367C282.084 23.516 282.478 23.5762 282.706 23.2847C282.47 23.0274 282.055 23.0822 281.878 23.3367Z" fill="black"/>
<path d="M284.217 24.3615C283.909 24.1849 283.533 24.3587 283.444 24.653C283.696 24.7625 284.09 24.705 284.217 24.3615Z" fill="black"/>
<path d="M281.921 21.8123C281.723 21.5988 281.379 21.6508 281.234 21.8643C281.405 22.0107 281.731 22.0573 281.921 21.8123Z" fill="black"/>
<path d="M281.662 18.2383C281.373 17.8769 280.825 17.9125 280.571 18.2301C280.825 18.486 281.336 18.5996 281.662 18.2383Z" fill="black"/>
<path d="M288.064 24.6976C288.108 24.6195 288.082 24.5388 288.017 24.484C287.965 24.4403 287.856 24.3335 287.614 24.1296C287.571 24.0953 287.516 24.0625 287.458 24.0625C287.397 24.0625 287.343 24.0953 287.3 24.1296C287.059 24.3335 286.95 24.4403 286.898 24.484C286.832 24.5388 286.806 24.6195 286.847 24.6976C286.892 24.7728 286.98 24.7988 287.051 24.7523C286.97 24.8741 287.028 24.9836 287.089 25.0233C287.163 25.0698 287.254 25.0411 287.296 24.9658C287.274 25.1041 287.369 25.1875 287.458 25.1875C287.542 25.1875 287.637 25.1041 287.616 24.9658C287.66 25.0411 287.752 25.0698 287.824 25.0233C287.887 24.9836 287.942 24.8741 287.863 24.7523C287.931 24.7988 288.023 24.7728 288.064 24.6976Z" fill="black"/>
<path d="M285.906 23.7368C285.484 23.5493 284.749 23.3015 284.284 23.5753C284.109 23.6793 283.958 23.8586 283.918 24.0625C284.233 23.7135 285.028 23.5985 285.252 24.2391C285.314 24.417 285.32 24.6948 285.127 24.8016C285.2 24.3431 284.903 24.0625 284.507 24.0516C284.455 24.2623 284.51 24.495 284.64 24.6483C284.51 24.6332 284.388 24.662 284.291 24.7003C284.291 24.7003 284.452 24.9604 284.767 24.9864C284.994 25.0055 285.202 24.9193 285.346 24.7605C285.38 25.0466 285.435 25.3053 285.747 25.3956C285.435 25.5448 285.174 25.7939 285.104 26.1169C286.405 26.0526 286.281 25.5626 286.162 25.2601C285.395 25.4613 285.542 24.7208 285.546 24.2213C285.611 24.2555 285.833 24.354 286.047 24.4348C285.997 24.5621 285.921 24.6661 285.82 24.7605C286.206 24.7291 286.364 24.6141 287.028 24.042C286.641 23.9968 286.266 23.8928 285.906 23.7368Z" fill="black"/>
<path d="M292.344 19.8547C292.021 20.1572 291.716 20.6075 291.45 21.1988C291.305 21.4985 291.141 21.7873 290.959 22.0528C290.617 22.5483 290.224 22.9534 289.797 23.2723C290.132 23.2121 290.385 23.2463 290.57 23.3284C290.737 23.1601 290.896 22.9794 291.046 22.785C291.279 22.4771 291.521 22.3676 291.844 22.4648C291.716 22.3361 291.571 22.2691 291.417 22.2485C291.625 21.92 291.729 21.5738 292.093 21.3781C292.118 21.3657 292.222 21.3178 292.274 21.3083C292.471 21.6573 292.872 21.571 293.063 21.4615C292.782 21.0975 292.321 21.055 291.896 21.311C291.963 21.1522 292.026 20.988 292.084 20.821C292.258 20.2927 292.555 19.9355 292.863 19.7562C293.313 20.2188 293.904 19.9437 294.159 19.7014C293.48 19.1772 292.844 19.3839 292.344 19.8547Z" fill="black"/>
<path d="M291.845 14.8844C291.801 15.1636 291.819 15.4962 291.905 15.8849C292.017 16.3872 292.162 17.062 292.162 17.916C292.162 18.692 292.053 19.4475 291.847 20.1538C292.024 19.9088 292.209 19.7103 292.396 19.5639C292.428 19.3846 292.451 19.2053 292.47 19.0205C292.644 19.1629 292.877 19.2176 293.16 19.1478C292.699 19.0534 292.511 18.7618 292.511 18.3458C292.511 17.9858 292.704 17.749 292.868 17.6108C293.253 17.8613 293.904 17.8175 294.121 17.4C293.8 17.2413 293.431 17.2207 293.154 17.3165C292.871 17.4028 292.644 17.567 292.502 17.7107C292.502 17.6683 292.488 17.4917 292.485 17.4548C292.465 17.1482 292.647 16.9497 292.929 16.884C292.741 16.8348 292.571 16.8662 292.428 16.947C292.392 16.6924 292.344 16.442 292.285 16.197C292.788 16.6678 293.483 16.8457 293.977 16.4803C293.696 16.2148 293.168 15.9 292.751 16.3037C292.491 16.1244 292.214 15.8329 292.102 15.5537C292.05 15.4182 291.965 15.1212 292.069 14.7694C292.701 14.8529 292.957 14.2493 292.996 13.8579C292.407 13.9263 291.954 14.2124 291.845 14.8844Z" fill="black"/>
<path d="M291.391 14.5148C291.48 14.6913 291.561 14.8747 291.634 15.0622C291.642 14.8925 291.668 14.742 291.712 14.6065C291.683 14.5462 291.654 14.4888 291.623 14.4313C291.402 14.0152 291.308 13.673 291.279 13.413C292.006 13.1625 291.965 12.4317 291.807 12.0566C290.979 12.47 290.685 13.1817 291.391 14.5148Z" fill="black"/>
<path d="M291.864 13.8262C292.205 13.8344 292.508 13.5183 292.416 13.1597C292.011 13.1747 291.825 13.5429 291.864 13.8262Z" fill="black"/>
<path d="M292.265 22.7512C291.656 22.6731 291.288 22.8237 291.26 23.1577C291.126 23.1864 290.996 23.2535 290.859 23.3534C291.192 23.8995 291.809 24.2047 292.383 24.0528C292.143 23.6285 291.927 23.3766 291.718 23.248C291.989 23.1577 292.198 22.9825 292.265 22.7512Z" fill="black"/>
<path d="M292.042 21.945C292.088 22.3611 292.648 22.565 293.149 22.3693C292.953 22.0121 292.492 21.8492 292.042 21.945Z" fill="black"/>
<path d="M293.261 20.5214C293.33 20.4491 293.378 20.3627 293.393 20.2671C292.883 20.2634 292.629 20.4484 292.735 20.7609C293.074 21.0836 293.564 21.1852 293.935 20.9769C293.659 20.698 293.44 20.5585 293.261 20.5214Z" fill="black"/>
<path d="M293.428 14.397C293.061 14.5174 292.897 14.6994 292.98 14.8965C292.915 14.9485 292.86 15.0225 292.813 15.1128C293.16 15.3372 293.6 15.3455 293.878 15.1059C293.618 14.928 293.42 14.8418 293.264 14.8267C293.391 14.7022 293.459 14.5475 293.428 14.397Z" fill="black"/>
<path d="M290.455 25.4367C290.288 25.1712 289.875 25.0959 289.624 25.345C289.843 25.6475 290.239 25.6064 290.455 25.4367Z" fill="black"/>
<path d="M292.59 15.629C292.801 15.9055 293.171 15.8535 293.366 15.6865C293.202 15.447 292.816 15.3895 292.59 15.629Z" fill="black"/>
<path d="M293.605 18.8532C293.511 18.5931 293.163 18.4549 292.894 18.6314C293.028 18.9339 293.384 18.9654 293.605 18.8532Z" fill="black"/>
<path d="M293.03 23.3367C292.854 23.0822 292.439 23.0274 292.202 23.2847C292.431 23.5762 292.825 23.516 293.03 23.3367Z" fill="black"/>
<path d="M290.695 24.3615C290.822 24.705 291.216 24.7625 291.468 24.653C291.379 24.3587 291.003 24.1849 290.695 24.3615Z" fill="black"/>
<path d="M293.678 21.8641C293.531 21.6506 293.188 21.6013 292.99 21.8121C293.178 22.0571 293.505 22.0106 293.678 21.8641Z" fill="black"/>
<path d="M293.25 18.2383C293.576 18.5996 294.087 18.486 294.341 18.2301C294.089 17.9125 293.539 17.8769 293.25 18.2383Z" fill="black"/>
<path d="M290.99 24.0625C290.951 23.8599 290.803 23.6793 290.626 23.5753C290.16 23.3015 289.425 23.5493 289.003 23.7368C288.646 23.8928 288.27 23.9968 287.881 24.042C288.547 24.6141 288.706 24.7291 289.089 24.7605C288.988 24.6661 288.913 24.5621 288.862 24.4375C289.078 24.354 289.297 24.2555 289.363 24.2213C289.369 24.7208 289.516 25.4586 288.751 25.2601C288.628 25.5626 288.506 26.0526 289.805 26.1169C289.735 25.7939 289.475 25.5448 289.162 25.3956C289.475 25.3053 289.53 25.0466 289.563 24.7605C289.707 24.9193 289.915 25.0028 290.145 24.9877C290.457 24.9604 290.618 24.7003 290.618 24.7003C290.522 24.662 290.399 24.6332 290.269 24.6483C290.402 24.495 290.454 24.2637 290.405 24.0516C290.006 24.0625 289.709 24.3445 289.782 24.8016C289.592 24.6948 289.594 24.417 289.657 24.2391C289.88 23.5985 290.676 23.7135 290.99 24.0625Z" fill="black"/>
<path d="M287.456 23.225C285.354 23.225 283.643 20.8449 283.643 17.9173C283.643 14.9897 285.354 12.6041 287.456 12.6041C289.558 12.6041 291.269 14.9897 291.269 17.9173C291.269 20.8449 289.558 23.225 287.456 23.225ZM291.673 17.9173C291.673 14.7707 289.784 12.2168 287.456 12.2168C285.128 12.2168 283.239 14.7707 283.239 17.9173C283.239 21.0639 285.128 23.611 287.456 23.611C289.784 23.611 291.673 21.0639 291.673 17.9173Z" fill="black"/>
<path d="M287.456 12.9707C287.102 12.9707 286.753 13.0515 286.42 13.2047H288.492C288.159 13.0515 287.81 12.9707 287.456 12.9707Z" fill="black"/>
<path d="M289.043 13.5386H285.868C285.775 13.6111 285.683 13.6864 285.593 13.7726H289.32C289.228 13.6864 289.138 13.6111 289.043 13.5386Z" fill="black"/>
<path d="M289.631 14.1064H285.282C285.217 14.1817 285.157 14.2597 285.097 14.3405H289.816C289.756 14.2597 289.694 14.1817 289.631 14.1064Z" fill="black"/>
<path d="M284.025 18.0816C284.028 18.1597 284.031 18.2379 284.036 18.3161L290.876 18.3156C290.88 18.2377 290.882 18.1597 290.885 18.0817L284.025 18.0816Z" fill="black"/>
<path d="M285.866 22.2917H289.043C289.137 22.2191 289.231 22.1438 289.319 22.0576H285.59C285.682 22.1438 285.772 22.2191 285.866 22.2917Z" fill="black"/>
<path d="M287.456 22.859C287.813 22.859 288.162 22.7783 288.492 22.625H286.42C286.753 22.7783 287.099 22.859 287.456 22.859Z" fill="black"/>
<path d="M285.505 14.6743H284.874C284.827 14.7496 284.783 14.8276 284.74 14.9084H285.335C285.384 14.8249 285.442 14.7469 285.505 14.6743Z" fill="black"/>
<path d="M289.575 14.9088H290.171C290.126 14.8281 290.083 14.7501 290.036 14.6748H289.405C289.468 14.7473 289.525 14.8254 289.575 14.9088Z" fill="black"/>
<path d="M285.177 15.2422H284.573C284.539 15.3202 284.505 15.3982 284.474 15.4762H285.111C285.128 15.401 285.148 15.3229 285.177 15.2422Z" fill="black"/>
<path d="M289.795 15.4767H290.435C290.401 15.396 290.371 15.318 290.334 15.2427H289.729C289.758 15.3234 289.78 15.4014 289.795 15.4767Z" fill="black"/>
<path d="M285.111 15.925C285.103 15.8853 285.096 15.847 285.093 15.8101H284.353C284.327 15.8881 284.303 15.9661 284.28 16.0455H284.721C284.834 15.9716 284.967 15.9305 285.111 15.925Z" fill="black"/>
<path d="M289.798 15.925C289.942 15.9305 290.075 15.9716 290.188 16.0455H290.629C290.606 15.9661 290.582 15.8881 290.556 15.8101H289.816C289.813 15.847 289.806 15.8853 289.798 15.925Z" fill="black"/>
<path d="M284.416 16.3779H284.194C284.176 16.4561 284.16 16.5343 284.144 16.6125H284.338C284.353 16.5288 284.379 16.4506 284.416 16.3779Z" fill="black"/>
<path d="M290.574 16.613H290.767C290.75 16.5348 290.735 16.4566 290.718 16.3784H290.495C290.532 16.4511 290.558 16.5293 290.574 16.613Z" fill="black"/>
<path d="M284.405 17.1163C284.379 17.0588 284.361 17.0013 284.347 16.9438H284.09C284.079 17.0219 284.068 17.1012 284.061 17.182H284.446C284.431 17.1601 284.416 17.1396 284.405 17.1163Z" fill="black"/>
<path d="M290.504 17.1163C290.493 17.1396 290.478 17.1601 290.463 17.182H290.848C290.841 17.1012 290.83 17.0219 290.819 16.9438H290.562C290.548 17.0013 290.53 17.0588 290.504 17.1163Z" fill="black"/>
<path d="M288.729 14.6743H286.182C286.245 14.7469 286.302 14.8249 286.351 14.9084H288.559C288.608 14.8249 288.666 14.7469 288.729 14.6743Z" fill="black"/>
<path d="M288.402 15.2422H286.507C286.535 15.3229 286.556 15.401 286.571 15.4762H288.337C288.353 15.401 288.374 15.3229 288.402 15.2422Z" fill="black"/>
<path d="M288.333 15.925C288.325 15.8853 288.318 15.847 288.315 15.8101H286.594C286.588 15.847 286.583 15.8853 286.573 15.925C286.718 15.9305 286.848 15.9716 286.966 16.0455H287.943C288.057 15.9716 288.189 15.9305 288.333 15.925Z" fill="black"/>
<path d="M287.562 16.6126C287.577 16.5282 287.603 16.4504 287.64 16.3783L287.271 16.3787C287.306 16.4508 287.333 16.5286 287.346 16.6129L287.562 16.6126Z" fill="black"/>
<path d="M287.672 17.1805C287.635 17.1377 287.596 17.0501 287.573 16.947L287.341 16.9467C287.317 17.0509 287.278 17.1372 287.242 17.1806L287.672 17.1805Z" fill="black"/>
<path d="M287.117 18.6494H284.06C284.068 18.7274 284.077 18.8054 284.088 18.8835H286.947C286.997 18.8 287.054 18.722 287.117 18.6494Z" fill="black"/>
<path d="M287.962 18.8839H290.821C290.832 18.8059 290.843 18.7279 290.85 18.6499H287.792C287.855 18.7224 287.913 18.8005 287.962 18.8839Z" fill="black"/>
<path d="M286.791 19.2173H284.145C284.157 19.2953 284.174 19.3733 284.191 19.4513H286.725C286.741 19.3761 286.762 19.298 286.791 19.2173Z" fill="black"/>
<path d="M288.182 19.4518H290.717C290.735 19.3738 290.75 19.2958 290.766 19.2178H288.116C288.145 19.2985 288.167 19.3765 288.182 19.4518Z" fill="black"/>
<path d="M286.72 19.9019C286.712 19.8622 286.707 19.8239 286.703 19.7842H284.277C284.301 19.8622 284.324 19.9429 284.35 20.0196H286.333C286.447 19.9484 286.579 19.9074 286.72 19.9019Z" fill="black"/>
<path d="M288.188 19.9019C288.329 19.9074 288.462 19.9484 288.577 20.0196H290.559C290.585 19.9429 290.611 19.8622 290.632 19.7842H288.206C288.204 19.8239 288.197 19.8622 288.188 19.9019Z" fill="black"/>
<path d="M286.028 20.353H284.474C284.505 20.4338 284.539 20.5118 284.572 20.5871H285.95C285.965 20.5036 285.991 20.4256 286.028 20.353Z" fill="black"/>
<path d="M288.961 20.5876H290.339C290.372 20.5095 290.406 20.4315 290.437 20.3535H288.883C288.92 20.4261 288.946 20.5041 288.961 20.5876Z" fill="black"/>
<path d="M286.484 21.1554H286.945C286.922 21.0637 286.844 20.9624 286.732 20.9624C286.617 20.9624 286.536 21.0568 286.484 21.1554Z" fill="black"/>
<path d="M287.965 21.1554H288.427C288.375 21.0568 288.294 20.9624 288.182 20.9624C288.067 20.9624 287.989 21.0637 287.965 21.1554Z" fill="black"/>
<path d="M284.871 17.1783H285.332C285.309 17.0866 285.231 16.9854 285.119 16.9854C285.004 16.9854 284.923 17.0798 284.871 17.1783Z" fill="black"/>
<path d="M286.566 16.9868C286.454 16.9868 286.376 17.0854 286.35 17.1798H286.814C286.762 17.0813 286.681 16.9868 286.566 16.9868Z" fill="black"/>
<path d="M289.792 16.9868C289.679 16.9868 289.601 17.0854 289.575 17.1798H290.039C289.987 17.0813 289.907 16.9868 289.792 16.9868Z" fill="black"/>
<path d="M288.343 16.9868C288.228 16.9868 288.147 17.0813 288.095 17.1798H288.559C288.533 17.0854 288.455 16.9868 288.343 16.9868Z" fill="black"/>
<path d="M285.957 20.9209H284.736C284.78 21.0016 284.824 21.0797 284.872 21.1549H286.056C286.012 21.1084 285.971 20.9811 285.957 20.9209Z" fill="black"/>
<path d="M288.852 21.1554H290.035C290.084 21.0802 290.128 21.0021 290.173 20.9214H288.951C288.936 20.9816 288.896 21.1089 288.852 21.1554Z" fill="black"/>
<path d="M285.843 14.9772C286.175 15.4959 286.14 15.8751 285.843 16.4143V14.9772ZM286.567 16.7072C286.769 16.7072 286.937 16.829 287.029 17.0015C287.06 16.9276 287.083 16.8468 287.083 16.7606C287.083 16.454 286.844 16.2035 286.55 16.2035C286.455 16.2035 286.365 16.2323 286.288 16.2788L286.101 16.5498L286.031 16.5005C286.031 16.5005 286.32 16.0188 286.32 15.7218C286.32 15.4193 286.132 14.9663 285.843 14.7295C285.554 14.9663 285.364 15.4193 285.364 15.7218C285.364 16.0188 285.656 16.5005 285.656 16.5005L285.586 16.5498L285.398 16.2788C285.322 16.2323 285.231 16.2035 285.134 16.2035C284.84 16.2035 284.603 16.454 284.603 16.7606C284.603 16.8468 284.624 16.9276 284.658 17.0015C284.75 16.829 284.919 16.7072 285.119 16.7072C285.422 16.7072 285.622 16.9878 285.622 17.2328C285.622 17.3368 285.604 17.4312 285.581 17.5106V17.5134C285.552 17.6078 285.515 17.6858 285.476 17.7488H286.21C286.172 17.6858 286.135 17.6078 286.106 17.5134V17.5106C286.083 17.4312 286.065 17.3368 286.065 17.2328C286.065 16.9878 286.265 16.7072 286.567 16.7072Z" fill="black"/>
<path d="M289.069 14.9772C289.4 15.4959 289.366 15.8751 289.069 16.4143V14.9772ZM289.793 16.7072C289.993 16.7072 290.162 16.829 290.254 17.0015C290.286 16.9276 290.309 16.8468 290.309 16.7606C290.309 16.454 290.069 16.2035 289.778 16.2035C289.681 16.2035 289.59 16.2323 289.514 16.2788L289.326 16.5498L289.256 16.5005C289.256 16.5005 289.545 16.0188 289.545 15.7218C289.545 15.4193 289.358 14.9663 289.069 14.7295C288.78 14.9663 288.59 15.4193 288.59 15.7218C288.59 16.0188 288.881 16.5005 288.881 16.5005L288.812 16.5498L288.624 16.2788C288.547 16.2323 288.457 16.2035 288.36 16.2035C288.066 16.2035 287.829 16.454 287.829 16.7606C287.829 16.8468 287.849 16.9276 287.884 17.0015C287.975 16.829 288.145 16.7072 288.345 16.7072C288.647 16.7072 288.844 16.9878 288.847 17.2328C288.847 17.3368 288.829 17.4312 288.806 17.5106V17.5134C288.777 17.6078 288.74 17.6858 288.702 17.7488H289.436C289.397 17.6858 289.36 17.6078 289.332 17.5134V17.5106C289.308 17.4312 289.291 17.3368 289.291 17.2328C289.291 16.9878 289.49 16.7072 289.793 16.7072Z" fill="black"/>
<path d="M287.456 20.3923V18.9552C287.787 19.4726 287.753 19.8531 287.456 20.3923ZM287.456 18.7075C287.167 18.9416 286.98 19.3973 286.98 19.6998C286.98 19.9968 287.269 20.4758 287.269 20.4758L287.199 20.5278L287.011 20.2569C286.935 20.2076 286.844 20.1816 286.747 20.1816C286.456 20.1816 286.216 20.432 286.216 20.7386C286.216 20.8248 286.239 20.9056 286.271 20.9781C286.363 20.8071 286.531 20.6839 286.732 20.6839C287.035 20.6839 287.234 20.9658 287.234 21.2108C287.234 21.4284 287.162 21.6064 287.092 21.7227H287.82C287.75 21.6064 287.678 21.4284 287.678 21.2108V21.2081C287.681 20.9658 287.878 20.6839 288.18 20.6839C288.38 20.6839 288.55 20.8071 288.641 20.9781C288.673 20.9056 288.696 20.8248 288.696 20.7386C288.696 20.432 288.457 20.1816 288.165 20.1816C288.068 20.1816 287.978 20.2076 287.901 20.2569L287.713 20.5278L287.644 20.4758C287.644 20.4758 287.935 19.9968 287.935 19.6998C287.935 19.3973 287.745 18.9416 287.456 18.7075Z" fill="black"/>
<path d="M286.894 21.4888H285.094C285.154 21.5723 285.217 21.6475 285.279 21.7228H286.785C286.824 21.6612 286.863 21.5832 286.894 21.4888Z" fill="black"/>
<path d="M288.126 21.7233H289.632C289.695 21.648 289.756 21.57 289.816 21.4893H288.017C288.048 21.5823 288.086 21.6603 288.126 21.7233Z" fill="black"/>
<path d="M287.824 8.32753C287.824 8.12497 287.66 7.96073 287.457 7.96073C287.252 7.96073 287.088 8.12497 287.088 8.32753C287.088 8.5301 287.252 8.69434 287.457 8.69434C287.66 8.69434 287.824 8.5301 287.824 8.32753Z" fill="black"/>
<path d="M287.791 11.5518L287.887 11.6846L288.051 11.4163L287.895 11.1562H287.018L286.862 11.4163L287.023 11.6846L287.122 11.5518H287.791Z" fill="black"/>
<path d="M286.353 11.6923L286.496 11.7813L286.54 11.4733L286.295 11.2886L285.479 11.6006L285.438 11.9004L285.694 12.0906L285.735 11.9318L286.353 11.6923Z" fill="black"/>
<path d="M289.174 11.9314L289.215 12.0901L289.471 11.8999L289.427 11.6029L288.614 11.2881L288.366 11.4729L288.413 11.7835L288.557 11.6918L289.174 11.9314Z" fill="black"/>
<path d="M285.282 17.5137H284.036C284.032 17.5917 284.027 17.6697 284.027 17.7477H285.172C285.212 17.6861 285.25 17.6081 285.282 17.5137Z" fill="black"/>
<path d="M289.739 17.7482H290.885C290.882 17.6702 290.879 17.5922 290.875 17.5142H289.63C289.658 17.6072 289.699 17.6852 289.739 17.7482Z" fill="black"/>
<path d="M288.394 17.7487C288.433 17.6857 288.474 17.6065 288.503 17.5134L286.404 17.5146C286.436 17.6079 286.475 17.6856 286.513 17.7479L288.394 17.7487Z" fill="black"/>
<path d="M290.035 9.97353L289.025 9.55198L288.818 9.96258C288.737 10.1118 288.589 10.135 288.477 10.0912C288.37 10.0488 288.272 9.93247 288.313 9.77507L288.425 9.30151L287.453 8.89502L286.484 9.30151L286.596 9.77507C286.636 9.93247 286.539 10.0488 286.43 10.0912C286.319 10.135 286.169 10.1118 286.089 9.96258L285.886 9.55198L284.873 9.97353L284.981 10.3882C285.024 10.5443 284.925 10.6606 284.819 10.703C284.706 10.7468 284.557 10.7236 284.476 10.5757L284.277 10.224L283.643 10.484C283.524 10.2473 283.325 10.3089 283.245 10.3485L284.179 12.1483C284.433 12.6999 284.326 13.0982 284.309 13.2241C284.604 12.7683 285.276 12.3304 285.388 12.2606L284.868 11.8746C284.862 11.943 284.875 12.0471 284.894 12.1278L284.684 12.2921L284.396 11.7911C285.258 11.1944 286.273 10.8385 287.3 10.8194C287.253 10.6948 287.188 10.5621 286.937 10.5853C286.013 10.6688 285.11 10.9946 284.268 11.5694L283.81 10.7701L284.177 10.6305C284.381 10.9603 284.628 10.9973 284.912 10.8851C285.188 10.7728 285.292 10.5538 285.226 10.213L285.792 9.99132C286.028 10.3773 286.265 10.3951 286.536 10.2856C286.813 10.1761 286.902 9.91331 286.839 9.57798C286.839 9.57798 286.998 9.51503 287.17 9.44522C287.259 10.0652 287.453 10.4115 287.453 10.4115C287.453 10.4115 287.649 10.0652 287.741 9.44522C287.909 9.51503 288.068 9.57798 288.068 9.57798C288.006 9.91331 288.097 10.1761 288.373 10.2856C288.641 10.3951 288.878 10.3773 289.118 9.99132L289.68 10.213C289.619 10.5538 289.72 10.7728 289.998 10.8851C290.28 10.9973 290.527 10.9603 290.733 10.6305L291.099 10.7701L290.638 11.5694C289.798 10.9946 288.896 10.6688 287.972 10.5853C287.719 10.5621 287.654 10.6948 287.609 10.8194C288.636 10.8385 289.649 11.1944 290.511 11.7911L290.225 12.2921L290.014 12.1278C290.032 12.0471 290.046 11.943 290.043 11.8746L289.519 12.2606C289.631 12.3304 290.303 12.7683 290.597 13.2241C290.585 13.0982 290.475 12.6999 290.727 12.1483L291.665 10.3485C291.584 10.3089 291.384 10.2473 291.264 10.484L290.634 10.224L290.433 10.5757C290.352 10.7236 290.204 10.7468 290.092 10.703C289.983 10.6606 289.887 10.5443 289.925 10.3882L290.035 9.97353Z" fill="black"/>
<path d="M275.317 17.4899C275.314 17.6144 275.415 17.7169 275.541 17.7171C275.663 17.7186 275.764 17.6171 275.767 17.4954C275.767 17.3694 275.669 17.2683 275.543 17.2654C275.418 17.2653 275.317 17.3653 275.317 17.4899Z" fill="black"/>
<path d="M274.994 18.8472L274.983 18.8499L275.074 19.485V19.4932L275.173 19.4795V19.4727C275.181 19.4179 275.187 19.3372 275.187 19.2482L275.752 19.1675L275.798 19.5014C275.812 19.5849 275.853 19.6082 275.885 19.6178L275.965 19.6082L275.9 19.1469L276.384 19.0758L276.447 19.5192C276.369 19.5479 276.312 19.5767 276.243 19.6205L276.239 19.6232L276.249 19.704H276.254C276.314 19.719 276.429 19.7327 276.507 19.7218C276.551 19.7149 276.585 19.7067 276.609 19.693L276.614 19.6917L276.465 18.646H276.454C276.364 18.6597 276.35 18.7007 276.346 18.8609L275.158 19.0265C275.106 18.8732 275.083 18.8335 274.994 18.8472Z" fill="black"/>
<path d="M275.555 20.461C275.639 20.346 275.78 20.2598 275.959 20.2105C276.144 20.1612 276.308 20.164 276.438 20.2215C276.456 20.2269 276.472 20.2365 276.487 20.2447C276.589 20.3022 276.66 20.3953 276.691 20.5157C276.727 20.654 276.706 20.7867 276.626 20.899C276.542 21.0126 276.404 21.1015 276.225 21.1481C276.04 21.1987 275.876 21.196 275.743 21.1385C275.613 21.0837 275.524 20.9824 275.488 20.8442C275.448 20.706 275.475 20.5732 275.555 20.461ZM275.677 21.315C275.683 21.315 275.685 21.3178 275.691 21.3205C275.865 21.4163 276.084 21.4396 276.3 21.3807C276.524 21.3205 276.691 21.2001 276.784 21.0345C276.873 20.8771 276.891 20.6896 276.836 20.4897C276.784 20.2967 276.665 20.138 276.501 20.0449L276.487 20.0367C276.316 19.9395 276.1 19.919 275.884 19.9792C275.659 20.0394 275.49 20.1585 275.394 20.3227C275.305 20.4788 275.284 20.6635 275.336 20.862C275.388 21.0577 275.511 21.2192 275.677 21.315Z" fill="black"/>
<path d="M277.188 21.923L277.193 21.9285L277.284 21.8943L277.055 21.3003L277.047 21.3058C276.963 21.3372 276.959 21.3865 276.989 21.548L275.872 21.9778C275.786 21.8368 275.752 21.8026 275.67 21.8341L275.659 21.8368L275.888 22.4308L275.979 22.3939V22.3898C275.974 22.3295 275.961 22.246 275.948 22.1831L277.073 21.7533C277.104 21.8081 277.151 21.8792 277.188 21.923Z" fill="black"/>
<path d="M277.759 23.1531C277.791 23.1942 277.835 23.2735 277.858 23.3091C277.91 23.4008 277.929 23.4788 277.915 23.5486C277.903 23.6226 277.855 23.6787 277.775 23.7266C277.716 23.7622 277.624 23.7964 277.525 23.7622C277.421 23.7293 277.332 23.6226 277.26 23.4474L277.759 23.1531ZM277.564 23.9606C277.684 23.9989 277.806 23.9866 277.91 23.9264C278.022 23.8621 278.085 23.7704 278.1 23.6609C278.117 23.5541 278.085 23.4323 278.004 23.2941C277.988 23.2653 277.952 23.2078 277.913 23.1421C277.869 23.0723 277.822 22.9971 277.801 22.9601L277.664 22.7261L277.655 22.7315C277.575 22.7781 277.58 22.8219 277.635 22.9683L276.597 23.5774C276.491 23.4528 276.455 23.4268 276.377 23.4734L276.369 23.4761L276.695 24.0304L276.7 24.0386L276.782 23.9894V23.9839C276.773 23.9401 276.749 23.8689 276.707 23.7704L277.137 23.5172C277.269 23.8142 277.442 23.9237 277.564 23.9606Z" fill="black"/>
<path d="M277.805 25.5872C278.004 25.6995 278.247 25.6707 278.469 25.4955L279.063 25.0302C279.184 25.1397 279.225 25.1602 279.294 25.1055L279.303 25.0973L278.928 24.6264L278.852 24.6867L278.855 24.6908C278.87 24.7455 278.918 24.8263 278.954 24.892L278.373 25.3505C278.128 25.5435 277.923 25.538 277.764 25.334C277.586 25.111 277.621 24.9125 277.872 24.7154L278.454 24.2569C278.509 24.3089 278.576 24.3705 278.624 24.3992L278.628 24.4047L278.706 24.3445L278.305 23.834L278.298 23.8422C278.227 23.8969 278.238 23.9407 278.316 24.0845L277.722 24.5512C277.552 24.6867 277.462 24.8263 277.448 24.9755C277.439 25.1178 277.493 25.2642 277.621 25.4257C277.675 25.4928 277.738 25.5476 277.805 25.5872Z" fill="black"/>
<path d="M278.807 26.4161L279.156 26.0493L279.338 26.2204C279.482 26.3586 279.497 26.5023 279.378 26.6269C279.249 26.7623 279.09 26.7623 278.951 26.6296L278.81 26.4941C278.778 26.4653 278.778 26.4448 278.807 26.4161ZM279.606 25.5771L279.756 25.7181C279.875 25.8358 279.88 25.9576 279.771 26.0753C279.684 26.1629 279.549 26.2176 279.419 26.1013L279.255 25.9466L279.606 25.5771ZM279.021 26.8582C279.214 26.9676 279.407 26.9444 279.557 26.7829C279.69 26.6446 279.698 26.4763 279.578 26.3038C279.721 26.3504 279.865 26.3175 279.966 26.2108C280.076 26.0931 280.154 25.9028 279.892 25.6551L279.401 25.187L279.393 25.1952C279.33 25.2623 279.346 25.302 279.439 25.4293L278.614 26.2984C278.481 26.2108 278.44 26.1971 278.377 26.2655L278.369 26.2696L278.862 26.7391C278.917 26.7884 278.969 26.8308 279.021 26.8582Z" fill="black"/>
<path d="M280.864 26.5921L280.872 26.5948L280.929 26.5168L280.437 26.1514L280.428 26.1445L280.423 26.1514C280.368 26.2253 280.387 26.2609 280.5 26.3786L279.78 27.3449C279.64 27.2751 279.598 27.2668 279.543 27.3366L279.537 27.3449L280.411 27.9936L280.416 27.9991L280.423 27.9963C280.449 27.9772 280.48 27.9484 280.504 27.9183C280.554 27.8499 280.601 27.7322 280.616 27.6788L280.619 27.6706L280.554 27.6241L280.549 27.6254C280.489 27.6596 280.426 27.7062 280.353 27.7746L279.958 27.4804L280.676 26.5086C280.734 26.5373 280.809 26.5743 280.864 26.5921Z" fill="black"/>
<path d="M281.905 27.2755L281.913 27.2783L281.962 27.1948L281.431 26.8663L281.423 26.8608L281.415 26.8718C281.371 26.9471 281.397 26.9895 281.519 27.0963L280.895 28.12C280.74 28.0598 280.691 28.0543 280.644 28.1296L280.642 28.1378L281.173 28.4635L281.181 28.469L281.233 28.3855L281.227 28.3801C281.192 28.3376 281.129 28.2788 281.082 28.2364L281.709 27.2099C281.769 27.2345 281.847 27.2619 281.905 27.2755Z" fill="black"/>
<path d="M282.207 28.86C282.077 28.7998 281.991 28.6958 281.959 28.5603C281.926 28.422 281.95 28.2605 282.03 28.0922C282.193 27.7404 282.463 27.6022 282.733 27.7295C282.746 27.735 282.759 27.7432 282.77 27.7473C283.009 27.8828 283.067 28.1729 282.916 28.496C282.752 28.8422 282.473 28.9846 282.207 28.86ZM283.142 28.5863C283.24 28.3755 283.257 28.1702 283.188 27.9923C283.127 27.8239 282.994 27.6884 282.809 27.6022C282.418 27.4174 281.996 27.5872 281.801 27.9978C281.705 28.2085 281.684 28.4152 281.749 28.5945C281.809 28.7642 281.939 28.8997 282.124 28.9846C282.141 28.9955 282.161 29.0037 282.167 29.0065C282.274 29.3185 282.438 29.5471 282.634 29.6593C282.649 29.6703 282.666 29.6785 282.681 29.6826C282.856 29.7661 283.004 29.7319 283.064 29.699L283.069 29.6963L283.072 29.6155L283.064 29.6128C283.056 29.6128 283.05 29.61 283.043 29.61C282.998 29.5991 282.934 29.5868 282.845 29.5471C282.663 29.4595 282.499 29.2953 282.355 29.053C282.681 29.0941 282.989 28.9148 283.142 28.5863Z" fill="black"/>
<path d="M283.718 29.5886C283.775 29.6228 283.843 29.6515 283.923 29.672C284.09 29.7241 284.249 29.709 284.379 29.6296C284.509 29.5543 284.606 29.4188 284.658 29.2423L284.874 28.5183C285.036 28.5388 285.083 28.5306 285.106 28.4457L285.109 28.4375L284.541 28.2678L284.531 28.2651L284.505 28.3595L284.509 28.3622C284.554 28.3951 284.638 28.4348 284.705 28.4662L284.494 29.1766C284.453 29.323 284.387 29.4271 284.304 29.4845C284.22 29.5448 284.113 29.5543 283.989 29.5188C283.843 29.4736 283.755 29.4065 283.712 29.3052C283.674 29.2108 283.677 29.0958 283.721 28.948L283.929 28.2363C284.004 28.2473 284.096 28.2609 284.153 28.2582L284.159 28.2555L284.186 28.1638L283.574 27.9817L283.565 27.979L283.562 27.99C283.539 28.0734 283.57 28.1036 283.718 28.1775L283.502 28.9015C283.441 29.1095 283.447 29.2738 283.525 29.4065C283.567 29.4791 283.632 29.5393 283.718 29.5886Z" fill="black"/>
<path d="M286.1 28.7215C286.105 28.805 286.115 28.8693 286.136 28.9459L286.139 28.9528L286.217 28.9637L286.221 28.9583C286.25 28.909 286.298 28.8022 286.31 28.7242C286.316 28.6777 286.318 28.6435 286.31 28.6175V28.612L285.256 28.4505L285.245 28.4478L285.243 28.4587C285.229 28.549 285.266 28.575 285.415 28.6257L285.235 29.8096C285.078 29.8151 285.035 29.826 285.021 29.9191V29.9273L286.076 30.0888H286.084L286.086 30.0833C286.102 30.0546 286.115 30.0162 286.123 29.9766C286.134 29.8931 286.12 29.7767 286.108 29.7192V29.711L286.027 29.7001L286.024 29.7056C285.985 29.7658 285.952 29.8342 285.923 29.9218L285.453 29.852L285.54 29.284L285.897 29.336C285.979 29.3497 286.013 29.3155 286.032 29.2895L286.034 29.2867L286.045 29.2087L285.563 29.1362L285.636 28.6517L286.1 28.7215Z" fill="black"/>
<path d="M287.18 29.5063L287.177 29.509V29.6473L287.527 29.6445C287.644 29.6445 287.683 29.6418 287.719 29.598V29.457H287.373C287.256 29.457 287.214 29.4625 287.18 29.5063Z" fill="black"/>
<path d="M288.773 30.0756V30.0865L289.393 30.0058L289.404 30.003L289.39 29.9059L289.382 29.9031C289.344 29.899 289.273 29.8908 289.18 29.8881L289.054 28.9355V28.93L289.05 28.9273C289.015 28.9108 288.974 28.9095 288.924 28.9136C288.822 28.9273 288.701 28.9793 288.661 29.0025L288.656 29.0053L288.666 29.0833L288.675 29.086C288.716 29.0915 288.77 29.0983 288.857 29.0983L288.966 29.9141C288.805 29.9606 288.762 29.9866 288.773 30.0756Z" fill="black"/>
<path d="M289.923 29.1945L290.015 29.2123C290.209 29.2492 290.316 29.2985 290.35 29.4545C290.381 29.5955 290.298 29.7077 290.136 29.7447C289.967 29.7803 289.842 29.705 289.805 29.5408C289.77 29.3793 289.845 29.2752 289.923 29.1945ZM289.681 28.7647C289.666 28.6949 289.675 28.6374 289.712 28.5909C289.746 28.5485 289.801 28.517 289.871 28.502C289.934 28.4883 289.993 28.4937 290.043 28.5225C290.047 28.5252 290.05 28.528 290.056 28.5307C290.105 28.5649 290.142 28.621 290.157 28.6922C290.18 28.8017 290.149 28.9002 290.064 28.996L290.038 28.9919C289.85 28.9577 289.715 28.9208 289.681 28.7647ZM289.589 29.6065C289.611 29.7077 289.663 29.7858 289.741 29.8378C289.746 29.8405 289.753 29.8432 289.759 29.8487C289.86 29.9048 289.995 29.9158 290.157 29.8816C290.442 29.8172 290.61 29.601 290.558 29.3669C290.511 29.1507 290.381 29.0741 290.179 29.022C290.292 28.9522 290.413 28.8277 290.368 28.6292C290.329 28.4554 290.173 28.2967 289.853 28.3665C289.718 28.3979 289.608 28.4595 289.54 28.5485C289.475 28.632 289.452 28.7333 289.475 28.8373C289.522 29.0508 289.667 29.1274 289.811 29.1658C289.64 29.267 289.553 29.434 289.589 29.6065Z" fill="black"/>
<path d="M290.954 29.6457L290.957 29.6567L291.554 29.4664L291.561 29.4637L291.532 29.3692H291.525C291.483 29.3692 291.416 29.3747 291.321 29.3911L291.03 28.4686L291.024 28.4659C290.989 28.4577 290.949 28.4604 290.9 28.4769C290.801 28.507 290.692 28.5809 290.655 28.6096L290.649 28.6124L290.674 28.6876H290.681C290.726 28.6876 290.779 28.6849 290.865 28.6685L291.116 29.4527C290.965 29.528 290.928 29.5622 290.954 29.6457Z" fill="black"/>
<path d="M291.976 28.4247C292.062 28.3877 292.143 28.3904 292.213 28.4329C292.278 28.4685 292.336 28.5396 292.374 28.6354C292.417 28.734 292.426 28.8257 292.408 28.9037C292.391 28.9817 292.343 29.0365 292.273 29.0679C292.2 29.0967 292.126 29.0967 292.059 29.0679C292.051 29.0625 292.043 29.057 292.033 29.0542C291.872 28.9612 291.783 28.7217 291.771 28.682C291.783 28.5944 291.861 28.4739 291.976 28.4247ZM291.877 29.1856C291.881 29.1884 291.887 29.1897 291.892 29.1925C292.02 29.2609 292.166 29.2609 292.313 29.2007C292.444 29.1459 292.541 29.0392 292.585 28.9037C292.627 28.7764 292.619 28.6327 292.567 28.5054C292.518 28.385 292.437 28.2946 292.336 28.2454C292.226 28.1934 292.106 28.1906 291.984 28.2426C291.809 28.3152 291.75 28.4479 291.728 28.5314C291.661 28.1824 291.806 27.8567 292.124 27.6568L292.132 27.6541L292.077 27.5679L292.07 27.5706C291.564 27.7869 291.361 28.2919 291.575 28.8024C291.65 28.9817 291.751 29.1145 291.877 29.1856Z" fill="black"/>
<path d="M293.605 28.0623C293.729 28.0625 293.83 27.9638 293.83 27.8378C293.833 27.7161 293.732 27.6149 293.61 27.6121C293.484 27.6119 293.383 27.7106 293.38 27.8351C293.38 27.961 293.48 28.0622 293.605 28.0623Z" fill="black"/>
<path d="M275.276 14.8729H275.271L275.268 14.8783C275.239 14.9276 275.19 15.1069 275.167 15.2301C275.101 15.5942 275.232 15.8939 275.507 16.0527C275.591 16.0992 275.691 16.1334 275.799 16.1539C276.253 16.2347 276.594 16.0184 276.667 15.6024C276.721 15.3054 276.571 15.1302 276.505 15.0686L276.5 15.0631L276.497 15.0659C276.476 15.0713 276.433 15.1001 276.419 15.1151L276.415 15.1206L276.422 15.1329C276.459 15.1904 276.545 15.3286 276.511 15.5244C276.485 15.6722 276.401 15.7899 276.271 15.8569C276.147 15.9199 275.985 15.9377 275.813 15.909C275.617 15.8734 275.475 15.8022 275.386 15.6954C275.299 15.5914 275.271 15.4641 275.297 15.3108C275.316 15.2137 275.346 15.1384 275.368 15.1014C275.492 15.1014 275.588 15.0782 275.622 15.0686H275.628L275.643 14.9878L275.637 14.9851C275.587 14.9536 275.484 14.8961 275.391 14.8783C275.357 14.8729 275.31 14.8674 275.276 14.8729Z" fill="black"/>
<path d="M276.275 14.3343L275.704 13.9224L276.407 13.9155L276.275 14.3343ZM275.749 13.7048C275.646 13.7061 275.574 13.7089 275.527 13.8498L275.493 13.9566L276.661 14.8134C276.652 14.9174 276.661 14.9639 276.707 14.9927C276.715 14.9981 276.725 15.0009 276.736 15.0064L276.745 15.0091L276.906 14.5095L276.91 14.4986L276.817 14.4698L276.811 14.4753C276.774 14.5328 276.739 14.5999 276.715 14.6519L276.395 14.4233L276.555 13.9155L276.952 13.9101C276.941 13.9621 276.932 14.0373 276.929 14.1099V14.1181L277.022 14.1468L277.199 13.5953L277.201 13.5843L277.192 13.5816C277.114 13.5556 277.082 13.5898 277.019 13.6938L275.756 13.7048H275.749Z" fill="black"/>
<path d="M276.242 12.3356L276.153 12.2959L275.901 12.8666L275.896 12.8776L275.904 12.8803C275.986 12.9159 276.023 12.8858 276.114 12.7476L277.211 13.2321C277.171 13.3936 277.171 13.4401 277.255 13.4757L277.263 13.4812L277.516 12.9118L277.52 12.9008L277.433 12.8612L277.427 12.8666C277.387 12.9091 277.338 12.9789 277.304 13.0309L276.202 12.5436C276.219 12.482 276.234 12.4013 276.242 12.3438V12.3356Z" fill="black"/>
<path d="M276.781 11.4285C276.859 11.4517 276.963 11.4695 277.012 11.4695H277.02L277.057 11.3997L277.054 11.3943C276.945 11.2752 276.848 11.2068 276.763 11.1917L276.757 11.189L276.755 11.1944C276.726 11.2273 276.64 11.3245 276.544 11.5038C276.388 11.7857 276.419 12.0115 276.627 12.132C276.63 12.1347 276.633 12.1347 276.634 12.1375C276.786 12.2182 276.934 12.21 277.08 12.1114C277.147 12.0635 277.184 12.0321 277.231 11.9937C277.257 11.9705 277.286 11.9445 277.329 11.9103C277.437 11.8213 277.528 11.783 277.658 11.8555H277.663C277.793 11.9308 277.819 12.0745 277.732 12.2305C277.677 12.3345 277.599 12.403 277.541 12.4345C277.473 12.4057 277.369 12.3742 277.28 12.366H277.273L277.234 12.4386L277.239 12.444C277.283 12.507 277.358 12.5823 277.439 12.6261C277.468 12.6452 277.499 12.6575 277.528 12.6658H277.536C277.58 12.6398 277.734 12.5412 277.859 12.314C278.018 12.0252 277.971 11.7802 277.732 11.642C277.729 11.642 277.726 11.6393 277.721 11.6393C277.541 11.538 277.372 11.5695 277.176 11.7378C277.158 11.7542 277.142 11.7665 277.13 11.7802C277.078 11.824 277.046 11.8528 276.994 11.8925C276.887 11.9705 276.801 11.9855 276.715 11.9363L276.711 11.9335C276.593 11.8692 276.575 11.746 276.659 11.5955C276.705 11.512 276.752 11.4572 276.781 11.4285Z" fill="black"/>
<path d="M277.549 10.0389L277.544 10.0361L277.538 10.0416C277.508 10.0703 277.411 10.1593 277.293 10.3222C277.107 10.5891 277.111 10.8204 277.312 10.9614C277.451 11.0626 277.601 11.0708 277.757 10.9901C277.83 10.9504 277.869 10.9244 277.919 10.8902C277.95 10.8697 277.982 10.8491 278.028 10.8204C278.143 10.7451 278.239 10.7136 278.362 10.7998C278.422 10.8436 278.455 10.9011 278.463 10.9655C278.469 11.0366 278.446 11.1092 278.392 11.1844C278.323 11.2816 278.236 11.3391 278.18 11.3624C278.114 11.3254 278.013 11.2844 277.927 11.2652H277.921L277.872 11.3309L277.875 11.3364C277.919 11.4171 278.002 11.5184 278.097 11.5704C278.109 11.5786 278.125 11.5855 278.14 11.5909H278.146C278.192 11.5704 278.357 11.4897 278.505 11.2816C278.7 11.0079 278.68 10.7574 278.45 10.5932C278.281 10.4741 278.109 10.4837 277.898 10.6301C277.878 10.6425 277.859 10.6561 277.843 10.6671C277.789 10.7054 277.755 10.7287 277.697 10.7602C277.583 10.8286 277.497 10.8327 277.416 10.7738C277.301 10.6958 277.296 10.5699 277.399 10.4276C277.455 10.3482 277.508 10.2989 277.538 10.2756C277.615 10.3099 277.716 10.3386 277.765 10.3441L277.771 10.3468L277.817 10.2784L277.812 10.2729C277.722 10.1429 277.633 10.0649 277.549 10.0389Z" fill="black"/>
<path d="M278.498 9.11793C278.571 9.15899 278.628 9.185 278.704 9.20964L278.709 9.21237L278.764 9.15215L278.761 9.14394C278.735 9.09193 278.674 8.99612 278.613 8.94138C278.579 8.91263 278.55 8.89074 278.527 8.88389L278.519 8.87842L277.806 9.67225L277.798 9.68046L277.806 9.68867C277.876 9.74752 277.915 9.73247 278.04 9.63392L278.931 10.4387C278.847 10.5715 278.835 10.6125 278.905 10.6755L278.91 10.681L279.632 9.88165L279.626 9.87618C279.612 9.84743 279.586 9.81322 279.556 9.78721C279.496 9.73247 279.389 9.67772 279.335 9.65719L279.326 9.65445L279.274 9.71467L279.277 9.72152C279.306 9.78721 279.344 9.85017 279.402 9.92545L279.084 10.2772L278.657 9.89397L278.899 9.62571C278.954 9.56275 278.946 9.51348 278.934 9.48474L278.873 9.42999L278.545 9.79269L278.184 9.46421L278.496 9.11793H278.498Z" fill="black"/>
<path d="M279.737 7.97683L279.935 7.82901C280.224 7.60729 280.507 7.65109 280.735 7.94809C280.856 8.11233 280.917 8.25878 280.911 8.39291C280.906 8.54483 280.825 8.67485 280.663 8.79666L280.513 8.91163C280.479 8.93764 280.461 8.9349 280.435 8.90205L279.737 7.97683ZM280.213 9.30033L280.221 9.30991L280.778 8.88563C280.971 8.74192 281.081 8.56262 281.104 8.36553C281.125 8.17803 281.063 7.97957 280.925 7.7948C280.657 7.44031 280.265 7.40062 279.883 7.69078L279.321 8.11507L279.325 8.12328C279.38 8.19856 279.425 8.18761 279.564 8.1178L280.286 9.07313C280.179 9.1881 280.158 9.22642 280.213 9.30033Z" fill="black"/>
<path d="M281.514 8.34584L281.519 8.35405L282.449 7.82437L282.454 7.82301L282.452 7.81479C282.449 7.78331 282.434 7.74362 282.412 7.71077C282.374 7.63687 282.29 7.55201 282.244 7.51506L282.238 7.51232L282.168 7.55201L282.171 7.55612C282.175 7.63002 282.192 7.70256 282.223 7.79153L281.811 8.02557L281.528 7.526L281.84 7.34808C281.912 7.30702 281.918 7.26048 281.918 7.229H281.748L281.454 7.39461L281.358 7.229H281.102L281.615 8.12959C281.493 8.22813 281.467 8.26509 281.514 8.34584Z" fill="black"/>
<path d="M283.284 7.24406C283.253 7.30428 283.193 7.35629 283.109 7.39051C283.001 7.43704 282.898 7.44252 282.837 7.43157C282.8 7.36861 282.742 7.28786 282.681 7.229H282.63L282.592 7.24406V7.25227C282.586 7.35629 282.61 7.51232 282.681 7.60676L282.682 7.60812H282.688C282.737 7.61634 282.92 7.63276 283.157 7.53285C283.302 7.47263 283.409 7.38777 283.464 7.28512C283.475 7.26733 283.483 7.2468 283.487 7.229H283.29C283.287 7.23311 283.287 7.23858 283.284 7.24406Z" fill="black"/>
<path d="M296.197 24.3712L296.189 24.3657L295.807 24.7982L295.879 24.8612L295.885 24.8584C295.934 24.8297 295.998 24.7804 296.051 24.7353L296.269 24.931V24.7065L296.165 24.6135C296.252 24.4725 296.263 24.4287 296.197 24.3712Z" fill="black"/>
<path d="M296.258 26.5273L296.266 26.535L296.272 26.5273L296.272 26.3178C296.206 26.4303 296.198 26.4749 296.258 26.5273Z" fill="black"/>
<path d="M296.273 25.3335L295.408 25.2295H295.402L295.372 25.2664C295.33 25.313 295.321 25.3623 295.347 25.4143C295.372 25.4635 295.419 25.5073 295.46 25.547L296.273 26.2683V26.0438L295.624 25.469L296.273 25.5498V25.3335Z" fill="black"/>
<path d="M295.34 27.1403C295.274 27.091 295.184 27.0363 295.137 27.0199L295.131 27.0185L295.069 27.0705L295.071 27.0773C295.131 27.2265 295.199 27.3251 295.272 27.3689L295.277 27.3716L295.282 27.3689C295.319 27.3483 295.434 27.2868 295.59 27.154C295.835 26.9419 295.884 26.7133 295.725 26.5285C295.613 26.3985 295.47 26.3533 295.298 26.3958C295.218 26.4163 295.173 26.4313 295.115 26.4532C295.084 26.4656 295.045 26.4792 294.996 26.497C294.863 26.5408 294.763 26.5463 294.665 26.4341C294.566 26.3205 294.59 26.174 294.728 26.055C294.818 25.9783 294.915 25.9427 294.978 25.9318C295.032 25.9838 295.121 26.0495 295.199 26.0851L295.204 26.0878L295.267 26.0358V26.0276C295.238 25.9263 295.167 25.7881 295.071 25.721L295.069 25.7183H295.063C295.014 25.7265 294.834 25.7648 294.642 25.9318C294.52 26.0358 294.443 26.1508 294.423 26.2657C294.399 26.3875 294.436 26.5052 294.532 26.6147C294.668 26.7735 294.834 26.8022 295.077 26.7133C295.1 26.7023 295.118 26.6955 295.137 26.69C295.199 26.664 295.238 26.6503 295.303 26.6325C295.428 26.5928 295.515 26.612 295.579 26.6873C295.668 26.7913 295.645 26.9131 295.512 27.0281C295.438 27.091 295.374 27.1253 295.34 27.1403Z" fill="black"/>
<path d="M296.272 27.7237C293.916 29.7863 290.835 31.0386 287.457 31.0386C280.061 31.0386 274.062 25.0439 274.062 17.6476C274.062 13.4362 276.005 9.68332 279.041 7.22656H277.388C274.661 9.86262 272.963 13.5553 272.963 17.6476C272.963 25.6502 279.453 32.1377 287.457 32.1377C290.774 32.1377 293.829 31.0209 296.272 29.143V27.7237Z" fill="black"/>
</g>
</g>
<defs>
<clipPath id="clip0_2299_820">
<rect width="300.888" height="61.4258" fill="white"/>
</clipPath>
<clipPath id="clip1_2299_820">
<rect width="46.9726" height="46.6442" fill="white" transform="translate(249.645 7.22656)"/>
</clipPath>
</defs>
</svg>
