<svg width="163" height="104" viewBox="0 0 163 104" fill="none" xmlns="http://www.w3.org/2000/svg">
<rect width="163" height="104" rx="5" fill="white"/>
<path d="M17.4258 45.6186V43.673H14.4591V41.5412H19.7927V46.4595C18.7087 47.8971 16.8899 48.8206 14.7049 48.8206C10.9223 48.8206 8.33545 46.0132 8.33545 42.7162C8.33545 39.4144 10.8535 36.6069 14.5415 36.6069C16.6565 36.6069 18.3929 37.5514 19.4596 38.9508L17.5941 40.3884C16.9244 39.4489 15.8749 38.8028 14.5415 38.8028C12.338 38.8028 10.7712 40.5018 10.7712 42.7162C10.7712 44.9257 12.4204 46.6235 14.7049 46.6235C15.806 46.6235 16.7609 46.2462 17.4258 45.6186Z" fill="black"/>
<path d="M33.9559 42.7142C33.9559 46.0161 31.4378 48.8186 27.7671 48.8186C24.0791 48.8186 21.5623 46.0161 21.5623 42.7142C21.5623 39.4124 24.0791 36.6099 27.7671 36.6099C31.4378 36.6099 33.9559 39.4124 33.9559 42.7142ZM31.5202 42.7142C31.5202 40.5048 29.9521 38.8021 27.7671 38.8021C25.5648 38.8021 23.998 40.5048 23.998 42.7142C23.998 44.9237 25.5648 46.6264 27.7671 46.6264C29.9521 46.6264 31.5202 44.9237 31.5202 42.7142Z" fill="black"/>
<path d="M43.1133 36.9385H45.4802V43.9663C45.4802 47.0031 43.6786 48.8193 40.7464 48.8193C37.8277 48.8193 36.0225 47.0031 36.0225 43.9663V36.9385H38.393V44.1648C38.393 45.7171 39.2791 46.6258 40.7599 46.6258C42.2113 46.6258 43.1133 45.7171 43.1133 44.1648V36.9385Z" fill="black"/>
<path d="M49.469 36.938L52.9235 45.9632L56.3743 36.938H58.8923L54.4744 48.4883H51.3689L46.9509 36.938H49.469Z" fill="black"/>
<path d="M60.6941 36.938H67.4998V38.9354H63.061V41.6084H66.8301V43.6058H63.061V46.4922H67.4998V48.4883H60.6941V36.938Z" fill="black"/>
<path d="M70.2524 36.938H73.8237C76.3884 36.938 77.9737 38.2425 77.9737 40.3866C77.9737 41.7736 77.2917 42.813 76.1082 43.3716L79.7741 48.4883H76.9414L73.8372 43.8179H72.6193V48.4883H70.2524V36.938ZM72.6193 38.9354V41.8205H73.9539C74.9555 41.8205 75.538 41.2928 75.538 40.352C75.538 39.4816 74.9555 38.9354 73.9539 38.9354H72.6193Z" fill="black"/>
<path d="M81.2446 36.938H84.2801L89.5017 45.205V36.938H91.8686V48.4883H88.832L83.6115 40.1881V48.4883H81.2446V36.938Z" fill="black"/>
<path d="M95.1389 36.938H101.945V38.9354H97.5058V41.6084H101.275V43.6058H97.5058V46.4922H101.945V48.4883H95.1389V36.938Z" fill="black"/>
<path d="M104.697 36.938H107.68L110.501 41.691L113.321 36.938H116.305V48.4883H113.938V40.2694L111.334 44.5293H109.668L107.063 40.2694V48.4883H104.697V36.938Z" fill="black"/>
<path d="M119.558 36.938H126.364V38.9354H121.925V41.6084H125.694V43.6058H121.925V46.4922H126.364V48.4883H119.558V36.938Z" fill="black"/>
<path d="M129.116 36.938H132.152L137.373 45.205V36.938H139.74V48.4883H136.704L131.483 40.1881V48.4883H129.116V36.938Z" fill="black"/>
<path d="M141.811 36.938H151.385V39.0648H147.783V48.4883H145.413V39.0648H141.811V36.938Z" fill="black"/>
<path d="M58.5095 87.8464C58.9159 87.8464 59.2701 88.1525 59.0819 88.9283L57.1875 89.363C57.5196 88.4873 58.0699 87.8464 58.5095 87.8464ZM59.5547 90.8622H59.1815C58.7103 91.4191 58.198 91.8554 57.692 91.8554C57.1765 91.8554 56.914 91.5539 56.914 90.8622C56.914 90.583 56.9488 90.299 56.9978 90.0373L60.0544 89.0457C60.6489 87.6512 59.9326 87.0373 59.093 87.0373C57.6477 87.0373 56.0095 89.4233 56.0095 91.5206C56.0095 92.4566 56.4586 92.9691 57.1654 92.9691C57.9924 92.9691 58.8479 92.1727 59.5547 90.8622ZM58.9491 86.4868L61.0996 84.5021V84.272H59.9437L58.6202 86.4868H58.9491ZM52.3631 87.8797H53.3751L51.7685 92.2282C51.6246 92.5963 51.8254 92.9691 52.2081 92.9691C53.1252 92.9691 54.5974 92.0727 55.1145 90.8575H54.8314C54.4251 91.2811 53.6423 91.8443 52.9687 91.9664L54.4472 87.8797H55.9541L56.1423 87.2562H54.6749L55.2362 85.6888H54.6528L53.6091 87.2562L52.3631 87.4339V87.8797ZM50.9968 87.6734C51.1186 87.2673 50.8419 87.0373 50.6363 87.0373C49.7524 87.0373 48.7072 87.8241 48.285 88.9283H48.5743C48.8637 88.5206 49.346 88.0748 49.7967 87.9971L48.1126 92.3345C47.9576 92.7406 48.2628 92.9691 48.4747 92.9691C49.3128 92.9691 50.2916 92.1727 50.7138 91.0859H50.4244C50.1351 91.4873 49.6528 91.9331 49.2021 92.0108L50.9968 87.6734ZM51.3084 85.4936C51.7021 85.4936 52.031 85.1763 52.031 84.7749C52.031 84.3783 51.7021 84.0547 51.3084 84.0547C50.8972 84.0547 50.5794 84.3783 50.5794 84.7749C50.5794 85.1763 50.8972 85.4936 51.3084 85.4936ZM41.6009 92.1616C41.3843 92.6518 41.612 92.9691 42.0943 92.9691C42.3947 92.9691 42.5291 92.8913 42.6509 92.574L43.8179 89.5137C44.3571 88.8617 45.4687 88.1637 45.9067 88.1637C46.2293 88.1637 46.185 88.4254 45.9731 88.8157L44.1784 92.2282C44.0013 92.5629 44.2337 92.9691 44.618 92.9691C45.5019 92.9691 46.5456 92.1838 46.9678 91.0859H46.68C46.3953 91.4873 45.9067 91.9331 45.4561 92.0108L47.001 88.9283C47.1955 88.5317 47.2967 88.1637 47.2967 87.8686C47.2967 87.3672 47.012 87.0373 46.4791 87.0373C45.7233 87.0373 44.9516 87.8908 44.0345 88.9331V88.1303C44.0345 87.5513 43.8511 87.0373 43.3182 87.0373C42.9893 87.0373 42.6667 87.3228 42.3726 87.7242V87.8353C42.945 87.8019 43.2012 88.6555 42.79 89.5471L41.6009 92.1616ZM41.5788 88.3699C41.7891 87.6623 41.6784 87.0373 41.1281 87.0373C40.4782 87.0373 40.3106 87.5291 39.6496 88.9331V88.1303C39.6496 87.5513 39.4662 87.0373 38.9333 87.0373C38.3166 87.0373 37.7552 87.986 37.3267 88.9283H37.6161C37.9102 88.4984 38.1885 88.2477 38.4052 88.2477C38.6724 88.2477 38.8163 88.6555 38.4052 89.5471L37.216 92.1616C36.9994 92.6518 37.2271 92.9691 37.711 92.9691C38.0114 92.9691 38.1442 92.8913 38.266 92.574L39.433 89.5137C39.7619 89.1124 40.0607 88.7602 40.4339 88.3699H41.5788ZM34.8157 87.8464C35.222 87.8464 35.5778 88.1525 35.3881 88.9283L33.4937 89.363C33.8274 88.4873 34.3761 87.8464 34.8157 87.8464ZM35.8609 90.8622H35.4877C35.0165 91.4191 34.5105 91.8554 33.9997 91.8554C33.4826 91.8554 33.2217 91.5539 33.2217 90.8622C33.2217 90.583 33.2549 90.299 33.3103 90.0373L36.3606 89.0457C36.9551 87.6512 36.2388 87.0373 35.3991 87.0373C33.9539 87.0373 32.3157 89.4233 32.3157 91.5206C32.3157 92.4566 32.7647 92.9691 33.4716 92.9691C34.2986 92.9691 35.1604 92.1727 35.8609 90.8622ZM28.6708 87.8797H29.6813L28.0763 92.2282C27.9308 92.5963 28.1316 92.9691 28.5143 92.9691C29.4314 92.9691 30.9036 92.0727 31.427 90.8575H31.1376C30.7312 91.2811 29.9485 91.8443 29.2765 91.9664L30.7534 87.8797H32.2603L32.4485 87.2562H30.9811L31.5424 85.6888H30.9589L29.9153 87.2562L28.6708 87.4339V87.8797ZM23.1079 91.27C23.1079 89.9262 24.6133 88.1081 25.464 88.1081C25.6522 88.1081 25.8309 88.1303 25.9811 88.1748L25.1035 90.4942C24.5975 91.1018 23.8131 91.8443 23.4463 91.8443C23.2407 91.8443 23.1079 91.6713 23.1079 91.27ZM27.7426 86.7866L27.2809 86.7596L26.7638 87.2562H26.6531C24.142 87.2562 21.9741 90.0484 21.9741 92.0727C21.9741 92.6407 22.3252 92.9691 22.8739 92.9691C23.5254 92.9691 24.1642 92.0553 24.8805 91.0748L24.8473 91.4191C24.7587 92.4233 25.0687 92.9691 25.5968 92.9691C26.2135 92.9691 26.7749 92.022 27.2034 91.0859H26.9204C26.6199 91.5095 26.3479 91.7602 26.125 91.7602C25.8925 91.7602 25.7312 91.3414 26.125 90.4609L27.7426 86.7866ZM22.3916 88.3699C22.6019 87.6623 22.4912 87.0373 21.9409 87.0373C21.291 87.0373 21.1234 87.5291 20.4624 88.9331V88.1303C20.4624 87.5513 20.2743 87.0373 19.7461 87.0373C19.1294 87.0373 18.5681 87.986 18.1395 88.9283H18.4242C18.723 88.4984 19.0013 88.2477 19.218 88.2477C19.4852 88.2477 19.6291 88.6555 19.218 89.5471L18.0288 92.1616C17.8075 92.6518 18.0399 92.9691 18.5238 92.9691C18.8242 92.9691 18.957 92.8913 19.0741 92.574L20.2458 89.5137C20.5747 89.1124 20.8736 88.7602 21.2467 88.3699H22.3916ZM13.9555 92.7517L14.0614 92.4122C12.6003 92.1394 12.4106 92.1394 12.9941 90.5608L13.5886 88.9331H15.2126C15.9336 88.9331 15.9447 89.2282 15.8404 90.0151H16.2562L17.224 87.3895H16.8065C16.446 88.0082 16.1566 88.4651 15.3612 88.4651H13.7673L14.618 86.1679C14.8789 85.4381 15.0339 85.2874 16.0238 85.2874H16.729C17.7569 85.2874 17.8739 85.5603 17.8739 86.5804H18.285L18.6234 84.7972H12.545L12.4327 85.1319C13.6108 85.3715 13.723 85.4825 13.1727 86.9881L11.8508 90.5608C11.3005 92.0553 11.0665 92.1727 9.71133 92.4122L9.61646 92.7517H13.9555Z" fill="black"/>
<path d="M43.7603 74.2246C44.1667 74.2246 44.5209 74.5308 44.3327 75.3066L42.4384 75.7413C42.7704 74.8655 43.3207 74.2246 43.7603 74.2246ZM44.8055 77.2405H44.4324C43.9611 77.7973 43.4488 78.2336 42.9428 78.2336C42.4273 78.2336 42.1648 77.9322 42.1648 77.2405C42.1648 76.9613 42.1996 76.6773 42.2486 76.4155L45.3052 75.424C45.8998 74.0295 45.1835 73.4155 44.3438 73.4155C42.8985 73.4155 41.2603 75.8016 41.2603 77.8989C41.2603 78.8349 41.7094 79.3473 42.4162 79.3473C43.2432 79.3473 44.0987 78.5509 44.8055 77.2405ZM44.1999 72.865L46.3504 70.8803V70.6503H45.1945L43.871 72.865H44.1999ZM37.6139 74.2579H38.6259L37.0193 78.6064C36.8754 78.9745 37.0763 79.3473 37.4589 79.3473C38.3761 79.3473 39.8482 78.451 40.3653 77.2357H40.0823C39.6759 77.6593 38.8932 78.2225 38.2195 78.3447L39.698 74.2579H41.205L41.3932 73.6344H39.9257L40.4871 72.067H39.9036L38.8599 73.6344L37.6139 73.8121V74.2579ZM36.2477 74.0517C36.3694 73.6455 36.0927 73.4155 35.8871 73.4155C35.0032 73.4155 33.958 74.2024 33.5358 75.3066H33.8252C34.1145 74.8989 34.5968 74.4531 35.0475 74.3753L33.3634 78.7127C33.2085 79.1189 33.5137 79.3473 33.7255 79.3473C34.5636 79.3473 35.5424 78.5509 35.9646 77.4642H35.6753C35.3859 77.8656 34.9036 78.3114 34.4529 78.3891L36.2477 74.0517ZM36.5592 71.8719C36.9529 71.8719 37.2818 71.5546 37.2818 71.1532C37.2818 70.7566 36.9529 70.4329 36.5592 70.4329C36.1481 70.4329 35.8302 70.7566 35.8302 71.1532C35.8302 71.5546 36.1481 71.8719 36.5592 71.8719ZM30.6958 78.3891L33.7698 70.4218L33.6686 70.2997L31.741 70.517V70.7455L32.119 71.0295C32.4574 71.2928 32.3467 71.5435 32.0415 72.351L29.6411 78.6064C29.4624 78.9412 29.6965 79.3473 30.0791 79.3473C30.9631 79.3473 31.896 78.562 32.3135 77.4642H32.0304C31.741 77.8656 31.1465 78.3114 30.6958 78.3891ZM24.8562 77.6482C24.8562 76.3045 26.3679 74.4864 27.2186 74.4864C27.402 74.4864 27.5791 74.5086 27.7341 74.553L26.8517 76.8724C26.3457 77.48 25.5614 78.2225 25.2009 78.2225C24.9906 78.2225 24.8562 78.0496 24.8562 77.6482ZM29.4956 73.1648L29.0355 73.1379L28.5184 73.6344H28.4077C25.8951 73.6344 23.7224 76.4266 23.7224 78.451C23.7224 79.0189 24.0782 79.3473 24.6285 79.3473C25.2784 79.3473 25.9172 78.4335 26.6351 77.4531L26.6019 77.7973C26.5118 78.8016 26.8185 79.3473 27.3451 79.3473C27.9634 79.3473 28.5295 78.4002 28.958 77.4642H28.6686C28.3745 77.8878 28.0962 78.1384 27.8796 78.1384C27.6455 78.1384 27.4795 77.7196 27.8796 76.8391L29.4956 73.1648ZM18.2828 80.4023C18.2828 79.828 18.8442 79.4647 19.6506 79.1522C19.9115 79.2807 20.3116 79.4203 20.8397 79.5996C21.6778 79.8724 21.9941 79.9787 21.9941 80.2294C21.9941 80.764 21.0785 81.1654 19.8325 81.1654C18.7888 81.1654 18.2828 80.9481 18.2828 80.4023ZM20.5614 76.8835C20.1993 76.8835 20.0554 76.5773 20.0554 76.2315C20.0554 75.2622 20.5836 73.8343 21.4106 73.8343C21.7727 73.8343 21.9166 74.1358 21.9166 74.4864C21.9166 75.4573 21.3884 76.8835 20.5614 76.8835ZM22.9507 79.8724C22.9507 79.1696 22.323 78.919 21.2999 78.6175C20.4223 78.3558 20.0222 78.278 20.0222 77.9925C20.0222 77.764 20.2104 77.4912 20.5836 77.296C22.0289 77.2246 22.9618 75.9364 22.9618 74.8544C22.9618 74.626 22.9223 74.4308 22.8448 74.2579H24.0671L24.2505 73.6344H22.3166C22.0842 73.4948 21.8059 73.4155 21.5339 73.4155C20.0001 73.4155 19.0102 74.7481 19.0102 75.8238C19.0102 76.644 19.5383 77.1564 20.1772 77.2738C19.4609 77.5927 19.0671 77.9655 19.0671 78.4002C19.0671 78.6509 19.1557 78.8238 19.3612 78.9856C17.7104 79.4647 17.0605 80.0121 17.0605 80.7863C17.0605 81.5398 18.0614 81.8508 19.2506 81.8508C21.2667 81.8508 22.9507 80.7752 22.9507 79.8724ZM15.2547 75.205C15.9821 75.205 15.9931 75.5017 15.8824 76.2823H16.2999L17.2724 73.6566H16.8486C16.4881 74.2801 16.1987 74.737 15.4096 74.737H13.8094L14.6158 72.5461C14.8767 71.8163 15.0317 71.6767 16.0263 71.6767H16.7268C17.7547 71.6767 17.878 71.9448 17.878 72.9586H18.2828L18.6212 71.1754H12.5428L12.4321 71.5102C13.6101 71.7497 13.7208 71.8608 13.1705 73.3663L11.8486 76.9391C11.2983 78.4335 11.0706 78.5509 9.71388 78.7905L9.61426 79.13H16.3774L17.5886 77.2357H17.1269C16.3552 77.9544 15.3875 78.6398 14.0323 78.6398C12.2376 78.6398 12.3989 78.562 12.9934 76.9391L13.6323 75.205H15.2547ZM16.1323 70.6392L18.2828 69.1796V68.9512H16.983L15.7939 70.6392H16.1323Z" fill="black"/>
<path d="M43.0438 60.6027C43.4501 60.6027 43.8044 60.9089 43.6162 61.6846L41.7218 62.1193C42.0539 61.2436 42.6042 60.6027 43.0438 60.6027ZM44.089 63.6186H43.7158C43.2446 64.177 42.7322 64.6117 42.2262 64.6117C41.7107 64.6117 41.4483 64.3103 41.4483 63.6186C41.4483 63.3393 41.483 63.0554 41.5321 62.7936L44.5887 61.802C45.1832 60.4075 44.4669 59.7936 43.6273 59.7936C42.182 59.7936 40.5438 62.1796 40.5438 64.2769C40.5438 65.213 40.9928 65.7254 41.6997 65.7254C42.5267 65.7254 43.3822 64.929 44.089 63.6186ZM43.4834 59.2431L45.6339 57.2584V57.0299H44.478L43.1544 59.2431H43.4834ZM37.1709 60.636H37.9758L36.3708 64.9845C36.2253 65.3526 36.4261 65.7254 36.8088 65.7254C37.7259 65.7254 39.1981 64.829 39.7152 63.6074H39.4321C39.021 64.0374 38.243 64.6006 37.571 64.7227L39.0431 60.636H40.5548L40.743 60.0125H39.2756L39.8369 58.4451H39.2534L38.2098 60.0125L37.1709 60.1902V60.636ZM36.3818 61.1262C36.5874 60.4186 36.4815 59.7936 35.9264 59.7936C35.2813 59.7936 35.1137 60.2854 34.4527 61.6894V60.8866C34.4527 60.3076 34.2645 59.7936 33.7364 59.7936C33.1197 59.7936 32.5583 60.7423 32.1298 61.6846H32.4144C32.7133 61.2547 32.9868 61.004 33.2082 61.004C33.4691 61.004 33.6146 61.4118 33.2082 62.3034L32.0191 64.9179C31.7977 65.4081 32.0302 65.7254 32.514 65.7254C32.8082 65.7254 32.941 65.6477 33.0643 65.3304L34.2313 62.2701C34.565 61.8687 34.8591 61.5165 35.237 61.1262H36.3818ZM29.6187 60.6027C30.0251 60.6027 30.3746 60.9089 30.1912 61.6846L28.2968 62.1193C28.6241 61.2436 29.1744 60.6027 29.6187 60.6027ZM30.664 63.6186H30.2908C29.8132 64.177 29.3072 64.6117 28.8012 64.6117C28.2857 64.6117 28.0185 64.3103 28.0185 63.6186C28.0185 63.3393 28.0517 63.0554 28.107 62.7936L31.1573 61.802C31.7519 60.4075 31.0356 59.7936 30.2022 59.7936C28.7569 59.7936 27.1187 62.1796 27.1187 64.2769C27.1187 65.213 27.5678 65.7254 28.2746 65.7254C29.0969 65.7254 29.9571 64.929 30.664 63.6186ZM23.1845 64.8401C22.8841 64.8401 22.4556 64.572 22.4556 64.3325C22.4556 64.2547 22.59 63.9136 22.756 63.49L23.2509 62.1923C23.7791 61.572 24.584 60.9089 25.0346 60.9089C25.3129 60.9089 25.5185 61.0818 25.5185 61.4832C25.5185 62.6714 24.3958 64.8401 23.1845 64.8401ZM26.6523 61.004C26.6523 60.1236 26.3234 59.7936 25.7067 59.7936C24.935 59.7936 24.206 60.6027 23.4786 61.5831L25.324 56.7999L25.2228 56.6777L23.2952 56.8951V57.1235L23.6684 57.4075C24.0115 57.6709 23.9008 57.9437 23.5893 58.729L21.6064 63.7867C21.4673 64.1532 21.2886 64.5895 21.2886 64.7116C21.2886 65.2352 22.0065 65.7254 22.6564 65.7254C24.1507 65.7254 26.6523 63.0554 26.6523 61.004ZM20.6608 60.4297C20.7841 60.0236 20.5058 59.7936 20.3003 59.7936C19.4163 59.7936 18.3727 60.5805 17.9505 61.6846H18.2383C18.5213 61.2769 19.0115 60.8311 19.4606 60.7534L17.7781 65.0908C17.6216 65.4969 17.9284 65.7254 18.1387 65.7254C18.9783 65.7254 19.9556 64.929 20.373 63.8422H20.0884C19.8006 64.2436 19.3167 64.6894 18.8661 64.7672L20.6608 60.4297ZM20.9723 58.2499C21.3676 58.2499 21.695 57.9326 21.695 57.5313C21.695 57.1346 21.3676 56.811 20.9723 56.811C20.5612 56.811 20.2449 57.1346 20.2449 57.5313C20.2449 57.9326 20.5612 58.2499 20.9723 58.2499ZM16.5321 57.5535H12.5204L12.4097 57.8882C13.5878 58.1278 13.6984 58.2388 13.1482 59.7444L11.8484 63.3171C11.2981 64.8116 11.0656 64.929 9.71522 65.1685L9.61401 65.508H15.7162L17.0381 63.1728H16.578C15.8268 63.993 14.9429 65.0178 13.5878 65.0178C12.5647 65.0178 12.4429 64.8401 12.9932 63.3171L14.293 59.7444C14.8322 58.2499 15.0773 58.1278 16.4325 57.8882L16.5321 57.5535Z" fill="black"/>
<path d="M10.44 7.43115H63.5535V27.1669H10.44V7.43115Z" fill="white"/>
<path d="M32.2494 24.8387C32.4661 24.6261 32.678 24.3976 32.8946 24.1692H32.8883C33.2883 23.7234 33.6837 23.295 34.1501 22.9048C34.2893 22.7762 34.4284 22.6636 34.5549 22.5748C34.5945 22.5414 34.5945 22.4637 34.634 22.4304C34.4443 22.5034 34.3336 22.6525 34.1438 22.7255C34.1059 22.7255 34.0663 22.6874 34.1059 22.6525C34.2387 22.5526 34.3715 22.4526 34.5059 22.3527H34.4838C34.4443 22.3527 34.4443 22.3193 34.4443 22.2797C33.9556 22.2019 33.5777 22.5414 33.2393 22.8365C33.1603 22.8762 33.0891 22.7985 33.0496 22.7985C32.4835 22.9872 32.0723 23.4727 31.5047 23.6964V23.6234C31.277 23.6964 31.0603 23.8297 30.8263 23.8852C30.4879 23.9582 30.1827 23.9185 29.8823 23.9185C29.4269 23.9629 28.9715 24.0645 28.5097 24.1644C28.4987 24.1644 28.4876 24.1692 28.4702 24.1692C28.2267 24.2358 27.999 24.3262 27.7713 24.4484C27.7602 24.4547 27.7539 24.4595 27.7428 24.4658C27.727 24.4881 27.7096 24.5103 27.6875 24.5325C27.61 24.6213 27.5372 24.6991 27.4313 24.7546C27.1988 24.872 27.0091 25.0735 26.8035 25.24C26.7925 25.2511 26.7703 25.2575 26.7482 25.2575C26.5426 25.4463 26.3434 25.6414 26.1378 25.8318C26.1267 25.8477 26.0651 25.854 26.0255 25.8477V25.8429C26.0319 25.8318 26.0429 25.8191 26.0477 25.808C26.0809 25.7525 26.1141 25.7033 26.1426 25.6478C26.1821 25.5907 26.22 25.5351 26.2596 25.4748C26.3086 25.4019 26.3592 25.3241 26.4145 25.2511C26.4319 25.2289 26.4256 25.2115 26.4145 25.2004C26.4035 25.1893 26.3813 25.1782 26.3655 25.1782C26.5537 25.0005 26.7766 24.845 26.998 24.7165V24.7054C26.9711 24.7165 26.9379 24.6943 26.9537 24.6721C26.9759 24.6372 26.998 24.5991 27.0202 24.5658C27.0202 24.5547 27.0265 24.5436 27.0312 24.5325C27.0202 24.5261 27.0091 24.515 27.0044 24.5039C26.9427 24.5436 26.8763 24.5817 26.8257 24.6261C26.7371 24.7102 26.6644 24.872 26.5268 24.872C26.5205 24.872 26.492 24.872 26.4699 24.8609C26.4541 24.8609 26.443 24.8561 26.4319 24.8498C26.4319 24.845 26.4319 24.845 26.4367 24.8387C26.4367 24.8387 26.4367 24.8323 26.443 24.8323C26.443 24.8276 26.443 24.8228 26.4477 24.8228C26.4541 24.8101 26.4588 24.799 26.4651 24.7879C26.4699 24.7768 26.4762 24.7657 26.4809 24.7546C26.4873 24.7498 26.492 24.7387 26.4983 24.7324C26.5031 24.7165 26.5157 24.6991 26.5268 24.6832C26.5315 24.6721 26.5379 24.661 26.5426 24.6499C26.56 24.6213 26.5758 24.5928 26.5932 24.5658C26.598 24.5547 26.609 24.5436 26.6154 24.5261C26.6312 24.5039 26.6422 24.4817 26.6533 24.4595C26.6754 24.4309 26.6533 24.404 26.6264 24.3929C26.6976 24.304 26.7814 24.231 26.8873 24.1692H26.8763C27.0202 24.0978 27.1656 24.0137 27.3095 23.9296C27.3269 23.9137 27.3491 23.8963 27.3712 23.8804C27.1546 23.9518 26.9601 24.047 26.7703 24.1692C26.7703 24.1692 26.7213 24.1914 26.7039 24.2025C26.7039 24.2025 26.6644 24.2199 26.6154 24.1692C26.609 24.1644 26.6043 24.1581 26.6043 24.1422C26.6422 24.0692 26.7545 24.0311 26.832 23.9582C26.8652 23.9582 26.9031 23.9582 26.9031 23.9962C28.1097 23.0602 29.7716 23.2839 31.1663 22.7985C31.277 22.7255 31.3876 22.6525 31.5047 22.5748C31.6944 22.5034 31.8431 22.3193 32.0723 22.2019C32.3712 21.9783 32.5989 21.7165 32.7112 21.3484C32.7112 21.3103 32.6716 21.2707 32.6716 21.2707C32.183 21.7942 31.6153 22.2019 31.016 22.5034C30.2207 22.9159 29.3541 22.8365 28.5271 22.9492C28.5651 22.8762 28.6378 22.8762 28.7153 22.8762C28.7153 22.7651 28.788 22.7255 28.8655 22.6525H28.9762C29.0157 22.6525 29.0157 22.5748 29.0537 22.5748C29.1264 22.5748 29.2434 22.5414 29.2039 22.5414C29.0932 22.3907 28.8655 22.6525 28.6758 22.5414C28.7548 22.4637 28.7153 22.3527 28.788 22.3193H28.9382C28.9382 22.24 29.0157 22.1686 29.0157 22.1686C29.5818 21.8339 30.11 21.5721 30.6381 21.2707C30.5211 21.2707 30.4484 21.3817 30.3377 21.3103C30.4104 21.3103 30.3377 21.1977 30.4104 21.1977C30.8263 21.0867 31.1663 20.863 31.5774 20.7138C31.4272 20.7138 31.3165 20.8249 31.1663 20.7138C31.2374 20.6742 31.277 20.6012 31.3876 20.6012V20.4901C31.3876 20.4505 31.4272 20.4505 31.4667 20.4505C31.4272 20.4505 31.3876 20.4124 31.3876 20.4124C31.4272 20.3394 31.5442 20.3791 31.6153 20.3014C31.5774 20.3014 31.5047 20.3013 31.5047 20.2664C31.6153 20.1173 31.8051 20.0777 31.9933 20.038C31.9553 19.9666 31.8431 20.038 31.8431 19.9666C31.8431 19.9269 31.8826 19.9269 31.9158 19.9269H31.8431C31.7656 19.8936 31.8051 19.8159 31.8051 19.7826C32.0328 19.5208 32.0328 19.1861 32.1435 18.8846C32.1055 18.8846 32.0723 18.8846 32.0723 18.845C31.6944 19.2575 31.0888 19.4082 30.5211 19.5541H30.3377C30.1495 19.6319 29.8823 19.6319 29.6941 19.5208C29.5439 19.4415 29.4648 19.3304 29.3162 19.2194C29.0157 19.0353 28.7153 18.8846 28.3769 18.7736C27.4313 18.4721 26.4541 18.3278 25.4705 18.3611C25.8864 18.1374 26.3434 18.1215 26.7925 17.993C27.4313 17.8027 28.0369 17.5806 28.7153 17.6186C28.5983 17.5806 28.4481 17.6186 28.3374 17.6186C27.8092 17.5806 27.2811 17.7313 26.715 17.8423C26.3371 17.9137 25.9987 18.0644 25.6207 18.1374C25.3978 18.2151 25.2808 18.4388 25.0198 18.3992V18.2881C25.3978 17.8423 25.8484 17.3902 26.4541 17.3569C27.1324 17.2458 27.7713 17.3569 28.4481 17.4298C28.9382 17.4679 29.3937 17.5806 29.8823 17.6916C30.0704 17.6916 30.11 17.993 30.2602 18.0263C30.4879 18.1041 30.7109 18.0263 30.9386 18.1771C30.9386 18.1041 30.899 18.0263 30.9386 17.9534C31.0888 17.8027 31.277 17.993 31.4272 17.9137C31.7324 17.7313 31.1663 17.3902 31.016 17.1348C31.016 17.0951 31.0493 17.0554 31.0493 17.0554C31.3544 17.3188 31.5774 17.6186 31.9553 17.8027C32.1435 17.8756 32.5989 17.993 32.5214 17.7646C32.3332 17.3569 31.9553 17.0221 31.6549 16.6493V16.4986C31.5774 16.4986 31.5774 16.4589 31.5442 16.4256V16.2749C31.3876 16.1971 31.4272 16.0528 31.3544 15.9401C31.2374 15.7513 31.3165 15.4896 31.2374 15.2659C31.1663 15.0438 31.1267 14.8597 31.0888 14.6313C30.9765 14.0015 30.8263 13.4383 30.7488 12.8418C30.6777 12.1326 31.1663 11.5758 31.5047 10.9396C31.7656 10.4938 32.0723 10.048 32.561 9.74655C32.6716 9.30075 32.9721 8.92793 33.2773 8.55352C33.5777 8.1918 34.0774 7.96811 34.4395 7.80788C34.9661 7.57308 35.4389 7.42871 35.4389 7.42871H9.56763V27.1628H27.893C28.6093 26.6568 29.3272 26.4109 30.3266 25.9254C30.7994 25.6922 31.8826 25.2004 32.2494 24.8387ZM26.4541 22.1686C26.3766 22.1686 26.2264 22.2019 26.2659 22.129C26.3038 21.9449 26.5663 21.9449 26.715 21.8672C26.794 21.8339 26.9047 21.7561 26.9822 21.7942C27.055 21.9069 27.172 21.8672 27.2431 21.9449C27.0217 22.1686 26.715 22.0576 26.4541 22.1686ZM20.6872 21.3484C20.6872 21.3484 20.6476 21.3103 20.6476 21.2707C21.1362 20.6345 21.5142 20.038 21.8541 19.3701C22.3428 19.1067 22.7476 18.7292 23.1365 18.3278C23.7754 17.6519 24.4538 17.0554 25.2491 16.6826C25.548 16.5716 25.9259 16.6096 26.2264 16.7223C26.1157 16.8714 25.9259 16.8333 25.7773 16.9444C25.7377 16.9444 25.6982 16.9444 25.6603 16.9111C25.6982 16.8714 25.6982 16.8333 25.6982 16.7937C25.3203 17.2061 24.7937 17.3902 24.4933 17.8756C24.2656 18.2485 24.1154 18.7339 23.6267 18.845C23.4765 18.8846 23.6647 18.7339 23.5872 18.7736C22.4202 19.4811 21.5916 20.3394 20.6872 21.3484ZM23.8149 18.8846C23.7754 18.9576 23.7374 18.9687 23.6979 19.0353C23.6647 19.1067 23.6267 19.1464 23.5477 19.1861C23.5145 19.1861 23.4765 19.1861 23.4765 19.1464C23.5145 18.9957 23.6267 18.845 23.7754 18.8117C23.8149 18.8117 23.8149 18.845 23.8149 18.8846ZM25.5654 24.4706C25.548 24.515 25.51 24.5483 25.4705 24.5817C25.5211 24.5928 25.5543 24.6102 25.5211 24.6372C25.4326 24.7165 25.3488 24.799 25.2381 24.8387C25.227 24.8387 25.2049 24.845 25.1764 24.845C25.1321 24.8894 25.0878 24.9339 25.0372 24.9719C24.993 25.0116 24.7874 24.983 24.8491 24.9275C24.9424 24.845 25.0325 24.7546 25.1258 24.6721C25.1827 24.6213 25.2381 24.5769 25.2823 24.5214C25.3092 24.4928 25.3314 24.4595 25.3661 24.4373C25.3994 24.4151 25.5939 24.3976 25.5654 24.4706ZM24.887 24.1644L24.8823 24.1692C24.7368 24.2707 24.5992 24.3707 24.449 24.4547C24.2877 24.5483 24.1201 24.615 23.9541 24.6991C23.9477 24.6943 23.9477 24.6879 23.9477 24.6879C23.9367 24.6721 23.9098 24.661 23.8813 24.6721C23.7422 24.7498 23.6204 24.8498 23.5034 24.9561C23.4876 24.9719 23.4481 25.0116 23.4481 25.0116V25.0179C23.4259 25.0338 23.4101 25.0512 23.3927 25.0671L23.388 25.0735C23.388 25.0735 23.388 25.0782 23.3816 25.0782C23.3595 25.1004 23.331 25.129 23.3042 25.1623C23.282 25.1845 23.2757 25.2004 23.2536 25.2178C23.2267 25.2289 23.165 25.2289 23.1698 25.1893V25.1782C23.1476 25.1893 23.1255 25.2067 23.1033 25.2115C23.0812 25.2226 23.0654 25.2353 23.0433 25.2464C23.0369 25.2464 23.0259 25.24 23.0211 25.2464C23.01 25.2464 22.999 25.2464 22.9927 25.2511C22.9421 25.2908 22.8978 25.3241 22.8535 25.3685C22.776 25.4352 22.7033 25.5129 22.6369 25.597H22.6321C22.6321 25.6018 22.6258 25.6081 22.6258 25.6081C22.6211 25.6129 22.6147 25.6192 22.6147 25.624C22.61 25.6303 22.6037 25.6367 22.6037 25.6414H22.5989C22.5863 25.6589 22.5815 25.67 22.5705 25.6811V25.6858C22.5641 25.6922 22.5531 25.6969 22.542 25.6969C22.5372 25.6922 22.5309 25.6858 22.5262 25.6747C22.5199 25.67 22.5199 25.6636 22.5151 25.6589C22.504 25.6367 22.493 25.6192 22.4819 25.597C22.4756 25.5907 22.4756 25.5859 22.4708 25.5748C22.5151 25.5351 22.5531 25.4907 22.5926 25.4415L22.5989 25.4352C22.61 25.4177 22.6258 25.4019 22.6369 25.3844C22.659 25.3574 22.6811 25.3352 22.6985 25.3067C22.7096 25.2956 22.7144 25.2845 22.7254 25.2797C22.765 25.2226 22.8045 25.1734 22.8424 25.1179C22.8488 25.1068 22.8535 25.1004 22.8598 25.0893C22.8756 25.0671 22.8978 25.0401 22.9088 25.0116C22.9262 24.9894 22.9421 24.9608 22.9531 24.9386V24.9339C22.9594 24.9275 22.9594 24.9275 22.9594 24.9227C22.9642 24.9164 22.9642 24.9164 22.9642 24.9116C22.9816 24.8831 22.9927 24.8561 23.0037 24.8228V24.8101C23.01 24.8053 23.01 24.799 23.0148 24.7879C23.0211 24.7768 23.0211 24.7609 23.0259 24.7498V24.7387C23.0322 24.7213 23.0369 24.7054 23.0433 24.6832C23.0433 24.6721 23.0433 24.6657 23.0369 24.661C23.0765 24.588 23.1255 24.5214 23.1872 24.4595C23.1824 24.4595 23.1761 24.4658 23.1698 24.4658C23.1144 24.5039 23.0812 24.5483 23.0259 24.588C22.9879 24.615 22.9088 24.5658 22.9594 24.5325C22.9927 24.5039 23.0211 24.4817 23.048 24.4547V24.4484C23.1144 24.3865 23.1698 24.3088 23.2425 24.2596C23.2868 24.2263 23.3263 24.2025 23.3595 24.1692C23.3643 24.1644 23.3706 24.1581 23.3753 24.1581C23.4038 24.12 23.4322 24.0914 23.4591 24.0645C23.4591 24.0645 23.4591 24.0581 23.4655 24.0581C23.826 23.7123 24.4316 23.7297 24.9092 23.5124C25.0989 23.433 25.3203 23.5457 25.51 23.5124C25.6207 23.5124 25.7377 23.5124 25.8484 23.5838C25.51 23.7678 25.1985 23.974 24.887 24.1644ZM25.6603 21.5721C25.6207 21.5325 25.7773 21.5721 25.8105 21.4944H25.51C25.4705 21.4944 25.4705 21.4611 25.4705 21.4214C25.2823 21.4611 25.0594 21.5325 24.8712 21.5721C24.604 21.6435 24.3826 21.8339 24.0758 21.9069C23.6647 22.0576 23.3263 22.3907 22.8709 22.5414C22.8314 22.5414 22.8314 22.5034 22.8314 22.4637C22.8709 22.3527 23.0211 22.3193 23.0986 22.2019C23.0986 22.1686 23.0986 22.129 23.0591 22.129C23.3595 21.7165 23.7754 21.4944 24.1533 21.1596V21.047C24.2656 20.8979 24.4538 20.8249 24.5312 20.6345C24.5708 20.5235 24.721 20.3791 24.9092 20.3014C24.8712 20.2664 24.7937 20.2664 24.7937 20.1887C24.6435 20.1887 24.4933 20.2664 24.3431 20.1554C24.4095 20.084 24.4933 20.0443 24.5771 20.0221C24.5423 20.0158 24.5154 19.9999 24.4933 19.9666C24.4538 19.8936 24.5644 19.8095 24.6815 19.7826C24.8317 19.7429 25.0214 19.7429 25.1321 19.6319C24.8712 19.5922 24.5708 19.7048 24.3035 19.5541C24.4933 19.0734 24.7937 18.6609 25.2491 18.4388C25.2823 18.4388 25.3598 18.4388 25.3598 18.4721C25.3598 18.6609 25.2491 18.8117 25.0594 18.845C25.3598 18.9243 25.6603 18.9243 25.9655 19.0734C25.9259 19.1464 25.8484 19.1067 25.8105 19.1067C25.9987 19.2194 26.2264 19.1464 26.4161 19.2971C26.3038 19.4082 26.1884 19.2971 26.0761 19.2971C27.2431 19.6319 28.4876 19.8936 29.4664 20.6345C28.6378 21.047 27.7713 21.2374 26.8652 21.4214C26.7545 21.4214 26.677 21.4214 26.5663 21.3817C26.5663 21.4214 26.5663 21.4944 26.5268 21.4944C26.3766 21.4944 26.2659 21.4944 26.1489 21.5721C25.9987 21.6435 25.7773 21.6832 25.6603 21.5721Z" fill="#263375"/>
<path d="M64.4266 7.43018H42.9672C42.9672 7.43018 43.0051 7.43652 43.1727 7.52536C43.3451 7.61421 43.5728 7.73636 43.7119 7.80934C43.9887 7.95371 44.2559 8.13298 44.433 8.40586C44.5057 8.51691 44.6164 8.7406 44.5453 8.89132C44.4678 9.07535 44.433 9.37519 44.2448 9.44817C44.0171 9.55922 43.7167 9.55922 43.4495 9.5259C43.3008 9.5259 43.1506 9.48783 43.0004 9.44817C43.5617 9.67186 44.0899 9.93363 44.4678 10.4572C44.5057 10.5301 44.656 10.5682 44.8062 10.5682C44.8441 10.5682 44.8441 10.6412 44.8441 10.6809C44.773 10.7522 44.6955 10.7919 44.7334 10.903H44.8441C45.0339 10.8316 44.9944 10.4572 45.2616 10.5682C45.4498 10.6809 45.5225 10.9426 45.4118 11.1267C45.2616 11.2774 45.1114 11.3884 44.9612 11.4995C44.9232 11.5772 44.9232 11.6899 44.9612 11.7628C45.0734 11.912 45.1114 12.0627 45.1446 12.2086C45.2616 12.4704 45.3011 12.7718 45.4118 13.0273C45.562 13.5904 45.7123 14.1473 45.6727 14.7057C45.6727 15.0072 45.5225 15.2689 45.6395 15.564C45.7123 15.8654 45.9004 16.0876 46.0506 16.3509C46.2009 16.573 46.3558 16.7237 46.4681 16.9474C46.6958 17.3202 47.1069 17.6947 46.9172 18.1405C46.8065 18.4022 46.389 18.3626 46.1281 18.5133C45.9004 18.6973 46.0902 18.9987 46.2009 19.1828C46.389 19.5175 45.9779 19.746 45.7123 19.857C45.7897 19.9681 45.94 19.93 45.9779 20.0014C46.0111 20.1918 46.2009 20.3028 46.0902 20.4868C45.94 20.7153 45.4846 20.8279 45.7123 21.1611C45.8625 21.4244 45.7676 21.7132 45.6727 21.9813C45.562 22.316 45.2616 22.4668 44.9944 22.5382C44.773 22.6159 44.5057 22.6159 44.278 22.5778C44.2053 22.5382 44.1278 22.5048 44.0551 22.5048C43.4115 22.4271 42.7727 22.2431 42.1338 22.2431C41.9441 22.2827 41.7559 22.316 41.6057 22.3938C41.4333 22.5159 41.2831 22.6508 41.1503 22.7888C41.144 22.7888 41.144 22.7952 41.144 22.7952C41.1171 22.8221 41.0886 22.857 41.0601 22.884C41.0443 22.9062 41.0269 22.9237 41.0111 22.9459C41.0001 22.957 40.989 22.9681 40.9779 22.9792C40.872 23.1188 40.7724 23.2632 40.6822 23.4139C40.6775 23.4202 40.6712 23.4313 40.6664 23.4424C40.6553 23.4583 40.649 23.4758 40.6379 23.4916C40.5162 23.7201 40.4213 23.9485 40.3502 24.177C40.094 25.0305 40.211 25.7603 40.3881 25.9396C40.4387 25.9903 41.6326 26.3568 42.4659 26.7201C42.8549 26.893 43.1285 27.0263 43.3562 27.1659H64.4266V7.43018Z" fill="#E30613"/>
<path d="M44.2468 14.6302C44.397 14.6699 44.6248 14.6699 44.6248 14.7412C44.5473 15.0427 44.0966 15.1157 43.8689 15.4155H43.7582C43.6412 15.4885 43.6807 15.6725 43.5685 15.6725C43.4514 15.6392 43.3408 15.6725 43.2301 15.7122C43.3803 15.8629 43.5685 15.9739 43.7962 15.9343C43.8294 15.9343 43.9084 16.012 43.9084 16.085C43.9084 16.085 43.9464 16.085 43.9796 16.0469C44.0191 16.0469 44.0587 16.0469 44.0587 16.085V16.2357C43.9464 16.3801 43.7582 16.3087 43.608 16.3468C43.9084 16.4197 44.2073 16.4197 44.4745 16.3468C44.6975 16.269 44.4745 15.8962 44.6248 15.7122C44.5473 15.7122 44.6248 15.5995 44.5473 15.5995C44.6248 15.5281 44.6975 15.4155 44.775 15.3774C44.8525 15.3774 44.9631 15.3378 45.0027 15.2664C45.0027 15.187 44.8525 15.1537 44.8857 15.076C45.1134 14.9316 45.3031 14.7032 45.2241 14.4795C45.1908 14.3684 44.8857 14.3684 44.6975 14.2954C44.5077 14.2177 44.2864 14.2954 44.0587 14.3351C43.8689 14.3351 43.6807 14.4462 43.491 14.4795C43.2301 14.5572 43.0024 14.7032 42.7747 14.8539C43.0403 14.7412 43.3028 14.7032 43.608 14.6302C43.8294 14.6302 44.0239 14.5747 44.2468 14.6302Z" fill="#9D9C9C"/>
</svg>
